G04 #@! TF.GenerationSoftware,KiCad,Pcbnew,8.0.1*
G04 #@! TF.CreationDate,2025-10-01T17:28:23+01:00*
G04 #@! TF.ProjectId,Mux_bus_Tx_Rx,4d75785f-6275-4735-9f54-785f52782e6b,rev?*
G04 #@! TF.SameCoordinates,Original*
G04 #@! TF.FileFunction,Soldermask,Top*
G04 #@! TF.FilePolarity,Negative*
%FSLAX46Y46*%
G04 Gerber Fmt 4.6, Leading zero omitted, Abs format (unit mm)*
G04 Created by KiCad (PCBNEW 8.0.1) date 2025-10-01 17:28:23*
%MOMM*%
%LPD*%
G01*
G04 APERTURE LIST*
G04 Aperture macros list*
%AMRoundRect*
0 Rectangle with rounded corners*
0 $1 Rounding radius*
0 $2 $3 $4 $5 $6 $7 $8 $9 X,Y pos of 4 corners*
0 Add a 4 corners polygon primitive as box body*
4,1,4,$2,$3,$4,$5,$6,$7,$8,$9,$2,$3,0*
0 Add four circle primitives for the rounded corners*
1,1,$1+$1,$2,$3*
1,1,$1+$1,$4,$5*
1,1,$1+$1,$6,$7*
1,1,$1+$1,$8,$9*
0 Add four rect primitives between the rounded corners*
20,1,$1+$1,$2,$3,$4,$5,0*
20,1,$1+$1,$4,$5,$6,$7,0*
20,1,$1+$1,$6,$7,$8,$9,0*
20,1,$1+$1,$8,$9,$2,$3,0*%
G04 Aperture macros list end*
%ADD10RoundRect,0.102000X0.654000X0.654000X-0.654000X0.654000X-0.654000X-0.654000X0.654000X-0.654000X0*%
%ADD11C,1.512000*%
%ADD12RoundRect,0.250000X0.475000X-0.337500X0.475000X0.337500X-0.475000X0.337500X-0.475000X-0.337500X0*%
%ADD13RoundRect,0.250000X0.350000X0.450000X-0.350000X0.450000X-0.350000X-0.450000X0.350000X-0.450000X0*%
%ADD14R,1.000000X0.400000*%
%ADD15R,1.300000X2.000000*%
%ADD16RoundRect,0.250000X-0.600000X-0.725000X0.600000X-0.725000X0.600000X0.725000X-0.600000X0.725000X0*%
%ADD17O,1.700000X1.950000*%
%ADD18RoundRect,0.150000X0.875000X0.150000X-0.875000X0.150000X-0.875000X-0.150000X0.875000X-0.150000X0*%
%ADD19RoundRect,0.250000X-0.337500X-0.475000X0.337500X-0.475000X0.337500X0.475000X-0.337500X0.475000X0*%
%ADD20RoundRect,0.102000X0.495300X-0.152400X0.495300X0.152400X-0.495300X0.152400X-0.495300X-0.152400X0*%
%ADD21C,1.600000*%
%ADD22R,1.500000X1.500000*%
%ADD23RoundRect,0.102000X-1.075000X-0.475000X1.075000X-0.475000X1.075000X0.475000X-1.075000X0.475000X0*%
%ADD24RoundRect,0.102000X-1.075000X-1.625000X1.075000X-1.625000X1.075000X1.625000X-1.075000X1.625000X0*%
%ADD25RoundRect,0.102000X-1.104900X0.304800X-1.104900X-0.304800X1.104900X-0.304800X1.104900X0.304800X0*%
%ADD26RoundRect,0.250000X-0.450000X0.350000X-0.450000X-0.350000X0.450000X-0.350000X0.450000X0.350000X0*%
%ADD27RoundRect,0.250000X0.600000X0.725000X-0.600000X0.725000X-0.600000X-0.725000X0.600000X-0.725000X0*%
G04 APERTURE END LIST*
D10*
X97310000Y-86040000D03*
D11*
X89690000Y-86040000D03*
X97310000Y-83500000D03*
X89690000Y-83500000D03*
X97310000Y-80960000D03*
X89690000Y-80960000D03*
D12*
X88000000Y-75037500D03*
X88000000Y-72962500D03*
D13*
X87500000Y-82500000D03*
X85500000Y-82500000D03*
D14*
X121090000Y-82000000D03*
X121090000Y-81000000D03*
X121090000Y-80000000D03*
X121090000Y-79000000D03*
X121090000Y-78000000D03*
X121090000Y-77000000D03*
X121090000Y-76000000D03*
X121090000Y-75000000D03*
X121090000Y-74000000D03*
D15*
X123790000Y-84800000D03*
X123790000Y-71200000D03*
D16*
X88000000Y-66975000D03*
D17*
X90500000Y-66975000D03*
X93000000Y-66975000D03*
X95500000Y-66975000D03*
D13*
X87500000Y-77500000D03*
X85500000Y-77500000D03*
D18*
X109400000Y-79445000D03*
X109400000Y-78175000D03*
X109400000Y-76905000D03*
X109400000Y-75635000D03*
X109400000Y-74365000D03*
X109400000Y-73095000D03*
X109400000Y-71825000D03*
X109400000Y-70555000D03*
X100100000Y-70555000D03*
X100100000Y-71825000D03*
X100100000Y-73095000D03*
X100100000Y-74365000D03*
X100100000Y-75635000D03*
X100100000Y-76905000D03*
X100100000Y-78175000D03*
X100100000Y-79445000D03*
D13*
X87500000Y-80000000D03*
X85500000Y-80000000D03*
D19*
X85462500Y-87500000D03*
X87537500Y-87500000D03*
D20*
X117917800Y-75275000D03*
X117917800Y-74625000D03*
X117917800Y-73975000D03*
X117917800Y-73325000D03*
X117917800Y-72675000D03*
X117917800Y-72025000D03*
X117917800Y-71375000D03*
X117917800Y-70725000D03*
X112082200Y-70725000D03*
X112082200Y-71375000D03*
X112082200Y-72025000D03*
X112082200Y-72675000D03*
X112082200Y-73325000D03*
X112082200Y-73975000D03*
X112082200Y-74625000D03*
X112082200Y-75275000D03*
D21*
X100500000Y-89500000D03*
X102500000Y-89500000D03*
D22*
X92210000Y-90500000D03*
D21*
X89670000Y-90500000D03*
X94750000Y-90500000D03*
D20*
X117917800Y-85275000D03*
X117917800Y-84625000D03*
X117917800Y-83975000D03*
X117917800Y-83325000D03*
X117917800Y-82675000D03*
X117917800Y-82025000D03*
X117917800Y-81375000D03*
X117917800Y-80725000D03*
X112082200Y-80725000D03*
X112082200Y-81375000D03*
X112082200Y-82025000D03*
X112082200Y-82675000D03*
X112082200Y-83325000D03*
X112082200Y-83975000D03*
X112082200Y-84625000D03*
X112082200Y-85275000D03*
D23*
X91100000Y-72700000D03*
X91100000Y-75000000D03*
X91100000Y-77300000D03*
D24*
X96900000Y-75000000D03*
D13*
X87500000Y-85000000D03*
X85500000Y-85000000D03*
D25*
X102133800Y-81595000D03*
X102133800Y-82865000D03*
X102133800Y-84135000D03*
X102133800Y-85405000D03*
X107366200Y-85405000D03*
X107366200Y-84135000D03*
X107366200Y-82865000D03*
X107366200Y-81595000D03*
D21*
X108500000Y-89250000D03*
X106500000Y-89250000D03*
D26*
X85500000Y-73000000D03*
X85500000Y-75000000D03*
D27*
X107750000Y-66750000D03*
D17*
X105250000Y-66750000D03*
X102750000Y-66750000D03*
M02*
