M48
; DRILL file {KiCad 8.0.1} date 2025-10-01T17:28:58+0100
; FORMAT={-:-/ absolute / metric / decimal}
; #@! TF.CreationDate,2025-10-01T17:28:58+01:00
; #@! TF.GenerationSoftware,Kicad,Pcbnew,8.0.1
; #@! TF.FileFunction,Plated,1,4,PTH
FMAT,2
METRIC
; #@! TA.AperFunction,Plated,PTH,ViaDrill
T1C0.300
; #@! TA.AperFunction,Plated,PTH,ComponentDrill
T2C0.800
; #@! TA.AperFunction,Plated,PTH,ComponentDrill
T3C0.950
%
G90
G05
T1
X86.25Y-71.5
X88.75Y-79.75
X89.0Y-78.0
X91.0Y-82.0
X96.5Y-78.0
X98.0Y-78.5
X107.0Y-79.0
X107.25Y-73.095
X107.5Y-74.5
X107.5Y-77.0
X107.5Y-80.0
X109.5Y-85.0
X111.0Y-84.75
X112.5Y-77.25
X113.25Y-73.049
X113.25Y-75.75
X113.5Y-83.0
X113.75Y-72.25
X113.75Y-74.0
X114.25Y-71.5
X114.525Y-83.975
X114.75Y-70.75
X116.75Y-80.75
X116.75Y-85.275
X119.0Y-73.5
X119.175Y-72.675
X119.25Y-83.325
X119.52Y-82.27
X119.75Y-72.025
X119.77Y-81.02
X120.0Y-75.0
X120.0Y-76.0
X120.0Y-77.0
X120.0Y-78.0
X120.02Y-79.77
X120.5Y-71.375
X122.25Y-73.5
T2
X89.67Y-90.5
X89.69Y-80.96
X89.69Y-83.5
X89.69Y-86.04
X92.21Y-90.5
X94.75Y-90.5
X97.31Y-80.96
X97.31Y-83.5
X97.31Y-86.04
X100.5Y-89.5
X102.5Y-89.5
X106.5Y-89.25
X108.5Y-89.25
T3
X88.0Y-66.975
X90.5Y-66.975
X93.0Y-66.975
X95.5Y-66.975
X102.75Y-66.75
X105.25Y-66.75
X107.75Y-66.75
M30
