G04 #@! TF.GenerationSoftware,KiCad,Pcbnew,8.0.1*
G04 #@! TF.CreationDate,2025-10-01T17:28:23+01:00*
G04 #@! TF.ProjectId,Mux_bus_Tx_Rx,4d75785f-6275-4735-9f54-785f52782e6b,rev?*
G04 #@! TF.SameCoordinates,Original*
G04 #@! TF.FileFunction,Copper,L4,Bot*
G04 #@! TF.FilePolarity,Positive*
%FSLAX46Y46*%
G04 Gerber Fmt 4.6, Leading zero omitted, Abs format (unit mm)*
G04 Created by KiCad (PCBNEW 8.0.1) date 2025-10-01 17:28:23*
%MOMM*%
%LPD*%
G01*
G04 APERTURE LIST*
G04 Aperture macros list*
%AMRoundRect*
0 Rectangle with rounded corners*
0 $1 Rounding radius*
0 $2 $3 $4 $5 $6 $7 $8 $9 X,Y pos of 4 corners*
0 Add a 4 corners polygon primitive as box body*
4,1,4,$2,$3,$4,$5,$6,$7,$8,$9,$2,$3,0*
0 Add four circle primitives for the rounded corners*
1,1,$1+$1,$2,$3*
1,1,$1+$1,$4,$5*
1,1,$1+$1,$6,$7*
1,1,$1+$1,$8,$9*
0 Add four rect primitives between the rounded corners*
20,1,$1+$1,$2,$3,$4,$5,0*
20,1,$1+$1,$4,$5,$6,$7,0*
20,1,$1+$1,$6,$7,$8,$9,0*
20,1,$1+$1,$8,$9,$2,$3,0*%
G04 Aperture macros list end*
G04 #@! TA.AperFunction,ComponentPad*
%ADD10R,1.308000X1.308000*%
G04 #@! TD*
G04 #@! TA.AperFunction,ComponentPad*
%ADD11C,1.308000*%
G04 #@! TD*
G04 #@! TA.AperFunction,ComponentPad*
%ADD12RoundRect,0.250000X-0.600000X-0.725000X0.600000X-0.725000X0.600000X0.725000X-0.600000X0.725000X0*%
G04 #@! TD*
G04 #@! TA.AperFunction,ComponentPad*
%ADD13O,1.700000X1.950000*%
G04 #@! TD*
G04 #@! TA.AperFunction,ComponentPad*
%ADD14C,1.600000*%
G04 #@! TD*
G04 #@! TA.AperFunction,ComponentPad*
%ADD15R,1.500000X1.500000*%
G04 #@! TD*
G04 #@! TA.AperFunction,ComponentPad*
%ADD16RoundRect,0.250000X0.600000X0.725000X-0.600000X0.725000X-0.600000X-0.725000X0.600000X-0.725000X0*%
G04 #@! TD*
G04 #@! TA.AperFunction,ViaPad*
%ADD17C,0.600000*%
G04 #@! TD*
G04 #@! TA.AperFunction,Conductor*
%ADD18C,0.200000*%
G04 #@! TD*
G04 APERTURE END LIST*
D10*
X97310000Y-86040000D03*
D11*
X89690000Y-86040000D03*
X97310000Y-83500000D03*
X89690000Y-83500000D03*
X97310000Y-80960000D03*
X89690000Y-80960000D03*
D12*
X88000000Y-66975000D03*
D13*
X90500000Y-66975000D03*
X93000000Y-66975000D03*
X95500000Y-66975000D03*
D14*
X100500000Y-89500000D03*
X102500000Y-89500000D03*
D15*
X92210000Y-90500000D03*
D14*
X89670000Y-90500000D03*
X94750000Y-90500000D03*
X108500000Y-89250000D03*
X106500000Y-89250000D03*
D16*
X107750000Y-66750000D03*
D13*
X105250000Y-66750000D03*
X102750000Y-66750000D03*
D17*
X122250000Y-73500000D03*
X113500000Y-83000000D03*
X113750000Y-74000000D03*
X89000000Y-78000000D03*
X96500000Y-78000000D03*
X98000000Y-78500000D03*
X91000000Y-82000000D03*
X120000000Y-76000000D03*
X114250000Y-71500000D03*
X119175000Y-72675000D03*
X119520000Y-82270000D03*
X120500000Y-71375000D03*
X120020000Y-79770000D03*
X119000000Y-73500000D03*
X119250000Y-83325000D03*
X119750000Y-72025000D03*
X119770000Y-81020000D03*
X120000000Y-78000000D03*
X113250000Y-73049265D03*
X113750000Y-72250000D03*
X120000000Y-77000000D03*
X114750000Y-70750000D03*
X120000000Y-75000000D03*
X107500000Y-77000000D03*
X107000000Y-79000000D03*
X86250000Y-71500000D03*
X88750000Y-79750000D03*
X107500000Y-80000000D03*
X116750000Y-80750000D03*
X109500000Y-85000000D03*
X107500000Y-74500000D03*
X116750000Y-85275000D03*
X107250000Y-73095000D03*
X111000000Y-84750000D03*
X112500000Y-77250000D03*
X113250000Y-75750000D03*
X114525000Y-83975000D03*
D18*
X89000000Y-78000000D02*
X96500000Y-78000000D01*
X97000000Y-77500000D02*
X97000000Y-70975000D01*
X97000000Y-70975000D02*
X93000000Y-66975000D01*
X98000000Y-78500000D02*
X97000000Y-77500000D01*
X98000000Y-78500000D02*
X94500000Y-82000000D01*
X94500000Y-82000000D02*
X91000000Y-82000000D01*
X101810000Y-79000000D02*
X97310000Y-83500000D01*
X107000000Y-79000000D02*
X101810000Y-79000000D01*
X106750000Y-68250000D02*
X104250000Y-68250000D01*
X116750000Y-80750000D02*
X116750000Y-78250000D01*
X104250000Y-68250000D02*
X102750000Y-66750000D01*
X116750000Y-78250000D02*
X106750000Y-68250000D01*
X109500000Y-76500000D02*
X107500000Y-74500000D01*
X109500000Y-85000000D02*
X109500000Y-76500000D01*
X107250000Y-73095000D02*
X116750000Y-82595000D01*
X116750000Y-82595000D02*
X116750000Y-85275000D01*
X113025000Y-83975000D02*
X111150000Y-85850000D01*
X109900000Y-85850000D02*
X106500000Y-89250000D01*
X114525000Y-83975000D02*
X113025000Y-83975000D01*
X111150000Y-85850000D02*
X109900000Y-85850000D01*
G04 #@! TA.AperFunction,Conductor*
G36*
X111442539Y-63020185D02*
G01*
X111488294Y-63072989D01*
X111499500Y-63124500D01*
X111499500Y-69065891D01*
X111533608Y-69193187D01*
X111566554Y-69250250D01*
X111599500Y-69307314D01*
X111692686Y-69400500D01*
X111806814Y-69466392D01*
X111934108Y-69500500D01*
X126625500Y-69500500D01*
X126692539Y-69520185D01*
X126738294Y-69572989D01*
X126749500Y-69624500D01*
X126749500Y-86375500D01*
X126729815Y-86442539D01*
X126677011Y-86488294D01*
X126625500Y-86499500D01*
X111934108Y-86499500D01*
X111806812Y-86533608D01*
X111692686Y-86599500D01*
X111692683Y-86599502D01*
X111599502Y-86692683D01*
X111599500Y-86692686D01*
X111533608Y-86806812D01*
X111499500Y-86934108D01*
X111499500Y-92875500D01*
X111479815Y-92942539D01*
X111427011Y-92988294D01*
X111375500Y-92999500D01*
X83624500Y-92999500D01*
X83557461Y-92979815D01*
X83511706Y-92927011D01*
X83500500Y-92875500D01*
X83500500Y-90500002D01*
X88365034Y-90500002D01*
X88384858Y-90726599D01*
X88384860Y-90726610D01*
X88443730Y-90946317D01*
X88443735Y-90946331D01*
X88539863Y-91152478D01*
X88590974Y-91225472D01*
X89270000Y-90546446D01*
X89270000Y-90552661D01*
X89297259Y-90654394D01*
X89349920Y-90745606D01*
X89424394Y-90820080D01*
X89515606Y-90872741D01*
X89617339Y-90900000D01*
X89623553Y-90900000D01*
X88944526Y-91579025D01*
X89017513Y-91630132D01*
X89017521Y-91630136D01*
X89223668Y-91726264D01*
X89223682Y-91726269D01*
X89443389Y-91785139D01*
X89443400Y-91785141D01*
X89669998Y-91804966D01*
X89670002Y-91804966D01*
X89896599Y-91785141D01*
X89896610Y-91785139D01*
X90116317Y-91726269D01*
X90116331Y-91726264D01*
X90322478Y-91630136D01*
X90395471Y-91579024D01*
X89716447Y-90900000D01*
X89722661Y-90900000D01*
X89824394Y-90872741D01*
X89915606Y-90820080D01*
X89990080Y-90745606D01*
X90042741Y-90654394D01*
X90070000Y-90552661D01*
X90070000Y-90546447D01*
X90749025Y-91225472D01*
X90761237Y-91224403D01*
X90789772Y-91201595D01*
X90859270Y-91194401D01*
X90921625Y-91225923D01*
X90957040Y-91286153D01*
X90960061Y-91303088D01*
X90965909Y-91357483D01*
X91016202Y-91492328D01*
X91016206Y-91492335D01*
X91102452Y-91607544D01*
X91102455Y-91607547D01*
X91217664Y-91693793D01*
X91217671Y-91693797D01*
X91352517Y-91744091D01*
X91352516Y-91744091D01*
X91359444Y-91744835D01*
X91412127Y-91750500D01*
X93007872Y-91750499D01*
X93067483Y-91744091D01*
X93202331Y-91693796D01*
X93317546Y-91607546D01*
X93403796Y-91492331D01*
X93454091Y-91357483D01*
X93459858Y-91303842D01*
X93486593Y-91239296D01*
X93543985Y-91199447D01*
X93613810Y-91196952D01*
X93673900Y-91232604D01*
X93684721Y-91245978D01*
X93749954Y-91339141D01*
X93910858Y-91500045D01*
X93910861Y-91500047D01*
X94097266Y-91630568D01*
X94303504Y-91726739D01*
X94523308Y-91785635D01*
X94685230Y-91799801D01*
X94749998Y-91805468D01*
X94750000Y-91805468D01*
X94750002Y-91805468D01*
X94806673Y-91800509D01*
X94976692Y-91785635D01*
X95196496Y-91726739D01*
X95402734Y-91630568D01*
X95589139Y-91500047D01*
X95750047Y-91339139D01*
X95880568Y-91152734D01*
X95976739Y-90946496D01*
X96035635Y-90726692D01*
X96055468Y-90500000D01*
X96035635Y-90273308D01*
X95976739Y-90053504D01*
X95880568Y-89847266D01*
X95750047Y-89660861D01*
X95750045Y-89660858D01*
X95589188Y-89500001D01*
X99194532Y-89500001D01*
X99214364Y-89726686D01*
X99214366Y-89726697D01*
X99273258Y-89946488D01*
X99273261Y-89946497D01*
X99369431Y-90152732D01*
X99369432Y-90152734D01*
X99499954Y-90339141D01*
X99660858Y-90500045D01*
X99660861Y-90500047D01*
X99847266Y-90630568D01*
X100053504Y-90726739D01*
X100273308Y-90785635D01*
X100435230Y-90799801D01*
X100499998Y-90805468D01*
X100500000Y-90805468D01*
X100500002Y-90805468D01*
X100556673Y-90800509D01*
X100726692Y-90785635D01*
X100946496Y-90726739D01*
X101152734Y-90630568D01*
X101339139Y-90500047D01*
X101412320Y-90426865D01*
X101473641Y-90393382D01*
X101543333Y-90398366D01*
X101587679Y-90426865D01*
X101637078Y-90476264D01*
X101660862Y-90500048D01*
X101711686Y-90535635D01*
X101847266Y-90630568D01*
X102053504Y-90726739D01*
X102273308Y-90785635D01*
X102435230Y-90799801D01*
X102499998Y-90805468D01*
X102500000Y-90805468D01*
X102500002Y-90805468D01*
X102556673Y-90800509D01*
X102726692Y-90785635D01*
X102946496Y-90726739D01*
X103152734Y-90630568D01*
X103339139Y-90500047D01*
X103500047Y-90339139D01*
X103630568Y-90152734D01*
X103726739Y-89946496D01*
X103785635Y-89726692D01*
X103804797Y-89507669D01*
X103805468Y-89500001D01*
X103805468Y-89499998D01*
X103798554Y-89420973D01*
X103785635Y-89273308D01*
X103726739Y-89053504D01*
X103630568Y-88847266D01*
X103500047Y-88660861D01*
X103500045Y-88660858D01*
X103339141Y-88499954D01*
X103152734Y-88369432D01*
X103152732Y-88369431D01*
X102946497Y-88273261D01*
X102946488Y-88273258D01*
X102726697Y-88214366D01*
X102726693Y-88214365D01*
X102726692Y-88214365D01*
X102726691Y-88214364D01*
X102726686Y-88214364D01*
X102500002Y-88194532D01*
X102499998Y-88194532D01*
X102273313Y-88214364D01*
X102273302Y-88214366D01*
X102053511Y-88273258D01*
X102053502Y-88273261D01*
X101847267Y-88369431D01*
X101847265Y-88369432D01*
X101660858Y-88499954D01*
X101587681Y-88573132D01*
X101526358Y-88606617D01*
X101456666Y-88601633D01*
X101412319Y-88573132D01*
X101339141Y-88499954D01*
X101152734Y-88369432D01*
X101152732Y-88369431D01*
X100946497Y-88273261D01*
X100946488Y-88273258D01*
X100726697Y-88214366D01*
X100726693Y-88214365D01*
X100726692Y-88214365D01*
X100726691Y-88214364D01*
X100726686Y-88214364D01*
X100500002Y-88194532D01*
X100499998Y-88194532D01*
X100273313Y-88214364D01*
X100273302Y-88214366D01*
X100053511Y-88273258D01*
X100053502Y-88273261D01*
X99847267Y-88369431D01*
X99847265Y-88369432D01*
X99660858Y-88499954D01*
X99499954Y-88660858D01*
X99369432Y-88847265D01*
X99369431Y-88847267D01*
X99273261Y-89053502D01*
X99273258Y-89053511D01*
X99214366Y-89273302D01*
X99214364Y-89273313D01*
X99194532Y-89499998D01*
X99194532Y-89500001D01*
X95589188Y-89500001D01*
X95589141Y-89499954D01*
X95402734Y-89369432D01*
X95402732Y-89369431D01*
X95196497Y-89273261D01*
X95196488Y-89273258D01*
X94976697Y-89214366D01*
X94976693Y-89214365D01*
X94976692Y-89214365D01*
X94976691Y-89214364D01*
X94976686Y-89214364D01*
X94750002Y-89194532D01*
X94749998Y-89194532D01*
X94523313Y-89214364D01*
X94523302Y-89214366D01*
X94303511Y-89273258D01*
X94303502Y-89273261D01*
X94097267Y-89369431D01*
X94097265Y-89369432D01*
X93910858Y-89499954D01*
X93749956Y-89660856D01*
X93684721Y-89754022D01*
X93630144Y-89797646D01*
X93560645Y-89804839D01*
X93498291Y-89773317D01*
X93462877Y-89713087D01*
X93459856Y-89696150D01*
X93454091Y-89642516D01*
X93403797Y-89507671D01*
X93403793Y-89507664D01*
X93317547Y-89392455D01*
X93317544Y-89392452D01*
X93202335Y-89306206D01*
X93202328Y-89306202D01*
X93067482Y-89255908D01*
X93067483Y-89255908D01*
X93007883Y-89249501D01*
X93007881Y-89249500D01*
X93007873Y-89249500D01*
X93007864Y-89249500D01*
X91412129Y-89249500D01*
X91412123Y-89249501D01*
X91352516Y-89255908D01*
X91217671Y-89306202D01*
X91217664Y-89306206D01*
X91102455Y-89392452D01*
X91102452Y-89392455D01*
X91016206Y-89507664D01*
X91016202Y-89507671D01*
X90965908Y-89642516D01*
X90960060Y-89696911D01*
X90933321Y-89761462D01*
X90875928Y-89801309D01*
X90806103Y-89803802D01*
X90758103Y-89775321D01*
X90749025Y-89774526D01*
X90070000Y-90453551D01*
X90070000Y-90447339D01*
X90042741Y-90345606D01*
X89990080Y-90254394D01*
X89915606Y-90179920D01*
X89824394Y-90127259D01*
X89722661Y-90100000D01*
X89716448Y-90100000D01*
X90395472Y-89420974D01*
X90322478Y-89369863D01*
X90116331Y-89273735D01*
X90116317Y-89273730D01*
X89896610Y-89214860D01*
X89896599Y-89214858D01*
X89670002Y-89195034D01*
X89669998Y-89195034D01*
X89443400Y-89214858D01*
X89443389Y-89214860D01*
X89223682Y-89273730D01*
X89223673Y-89273734D01*
X89017516Y-89369866D01*
X89017512Y-89369868D01*
X88944526Y-89420973D01*
X88944526Y-89420974D01*
X89623553Y-90100000D01*
X89617339Y-90100000D01*
X89515606Y-90127259D01*
X89424394Y-90179920D01*
X89349920Y-90254394D01*
X89297259Y-90345606D01*
X89270000Y-90447339D01*
X89270000Y-90453552D01*
X88590974Y-89774526D01*
X88590973Y-89774526D01*
X88539868Y-89847512D01*
X88539866Y-89847516D01*
X88443734Y-90053673D01*
X88443730Y-90053682D01*
X88384860Y-90273389D01*
X88384858Y-90273400D01*
X88365034Y-90499997D01*
X88365034Y-90500002D01*
X83500500Y-90500002D01*
X83500500Y-71500003D01*
X85444435Y-71500003D01*
X85464630Y-71679249D01*
X85464631Y-71679254D01*
X85524211Y-71849523D01*
X85586850Y-71949211D01*
X85620184Y-72002262D01*
X85747738Y-72129816D01*
X85900478Y-72225789D01*
X86070745Y-72285368D01*
X86070750Y-72285369D01*
X86249996Y-72305565D01*
X86250000Y-72305565D01*
X86250004Y-72305565D01*
X86429249Y-72285369D01*
X86429252Y-72285368D01*
X86429255Y-72285368D01*
X86599522Y-72225789D01*
X86752262Y-72129816D01*
X86879816Y-72002262D01*
X86975789Y-71849522D01*
X87035368Y-71679255D01*
X87053003Y-71522738D01*
X87055565Y-71500003D01*
X87055565Y-71499996D01*
X87035369Y-71320750D01*
X87035368Y-71320745D01*
X87006985Y-71239632D01*
X86975789Y-71150478D01*
X86879816Y-70997738D01*
X86752262Y-70870184D01*
X86599523Y-70774211D01*
X86429254Y-70714631D01*
X86429249Y-70714630D01*
X86250004Y-70694435D01*
X86249996Y-70694435D01*
X86070750Y-70714630D01*
X86070745Y-70714631D01*
X85900476Y-70774211D01*
X85747737Y-70870184D01*
X85620184Y-70997737D01*
X85524211Y-71150476D01*
X85464631Y-71320745D01*
X85464630Y-71320750D01*
X85444435Y-71499996D01*
X85444435Y-71500003D01*
X83500500Y-71500003D01*
X83500500Y-67750001D01*
X86649500Y-67750001D01*
X86649501Y-67750018D01*
X86660000Y-67852796D01*
X86660001Y-67852799D01*
X86705894Y-67991294D01*
X86715186Y-68019334D01*
X86807288Y-68168656D01*
X86931344Y-68292712D01*
X87080666Y-68384814D01*
X87247203Y-68439999D01*
X87349991Y-68450500D01*
X88650008Y-68450499D01*
X88752797Y-68439999D01*
X88919334Y-68384814D01*
X89068656Y-68292712D01*
X89192712Y-68168656D01*
X89284814Y-68019334D01*
X89284814Y-68019331D01*
X89288178Y-68013879D01*
X89340126Y-67967154D01*
X89409088Y-67955931D01*
X89473170Y-67983774D01*
X89481398Y-67991294D01*
X89620213Y-68130109D01*
X89792179Y-68255048D01*
X89792181Y-68255049D01*
X89792184Y-68255051D01*
X89981588Y-68351557D01*
X90183757Y-68417246D01*
X90393713Y-68450500D01*
X90393714Y-68450500D01*
X90606286Y-68450500D01*
X90606287Y-68450500D01*
X90816243Y-68417246D01*
X91018412Y-68351557D01*
X91207816Y-68255051D01*
X91262945Y-68214998D01*
X91379786Y-68130109D01*
X91379788Y-68130106D01*
X91379792Y-68130104D01*
X91530104Y-67979792D01*
X91649683Y-67815204D01*
X91705011Y-67772540D01*
X91774624Y-67766561D01*
X91836420Y-67799166D01*
X91850313Y-67815199D01*
X91915636Y-67905109D01*
X91969896Y-67979792D01*
X92120213Y-68130109D01*
X92292179Y-68255048D01*
X92292181Y-68255049D01*
X92292184Y-68255051D01*
X92481588Y-68351557D01*
X92683757Y-68417246D01*
X92893713Y-68450500D01*
X92893714Y-68450500D01*
X93106286Y-68450500D01*
X93106287Y-68450500D01*
X93316243Y-68417246D01*
X93452873Y-68372851D01*
X93522708Y-68370856D01*
X93578867Y-68403102D01*
X96363181Y-71187416D01*
X96396666Y-71248739D01*
X96399500Y-71275097D01*
X96399500Y-77099092D01*
X96379815Y-77166131D01*
X96327011Y-77211886D01*
X96316463Y-77216130D01*
X96260093Y-77235854D01*
X96150478Y-77274210D01*
X95997736Y-77370185D01*
X95994903Y-77372445D01*
X95992724Y-77373334D01*
X95991842Y-77373889D01*
X95991744Y-77373734D01*
X95930217Y-77398855D01*
X95917588Y-77399500D01*
X89582412Y-77399500D01*
X89515373Y-77379815D01*
X89505097Y-77372445D01*
X89502263Y-77370185D01*
X89502262Y-77370184D01*
X89445496Y-77334515D01*
X89349523Y-77274211D01*
X89179254Y-77214631D01*
X89179249Y-77214630D01*
X89000004Y-77194435D01*
X88999996Y-77194435D01*
X88820750Y-77214630D01*
X88820745Y-77214631D01*
X88650476Y-77274211D01*
X88497737Y-77370184D01*
X88370184Y-77497737D01*
X88274211Y-77650476D01*
X88214631Y-77820745D01*
X88214630Y-77820750D01*
X88194435Y-77999996D01*
X88194435Y-78000003D01*
X88214630Y-78179249D01*
X88214631Y-78179254D01*
X88274211Y-78349523D01*
X88345147Y-78462416D01*
X88370184Y-78502262D01*
X88497738Y-78629816D01*
X88576410Y-78679249D01*
X88656374Y-78729494D01*
X88655558Y-78730791D01*
X88701354Y-78772138D01*
X88719667Y-78839565D01*
X88698619Y-78906189D01*
X88644893Y-78950858D01*
X88609577Y-78960256D01*
X88570749Y-78964630D01*
X88570745Y-78964631D01*
X88400476Y-79024211D01*
X88247737Y-79120184D01*
X88120184Y-79247737D01*
X88024211Y-79400476D01*
X87964631Y-79570745D01*
X87964630Y-79570750D01*
X87944435Y-79749996D01*
X87944435Y-79750003D01*
X87964630Y-79929249D01*
X87964631Y-79929254D01*
X88024211Y-80099523D01*
X88113576Y-80241745D01*
X88120184Y-80252262D01*
X88247738Y-80379816D01*
X88400478Y-80475789D01*
X88496610Y-80509427D01*
X88553385Y-80550147D01*
X88579133Y-80615100D01*
X88574922Y-80660400D01*
X88550297Y-80746949D01*
X88550295Y-80746956D01*
X88530554Y-80959999D01*
X88530554Y-80960000D01*
X88550295Y-81173047D01*
X88550296Y-81173050D01*
X88608846Y-81378835D01*
X88608849Y-81378841D01*
X88676094Y-81513888D01*
X88704219Y-81570370D01*
X88833159Y-81741114D01*
X88991278Y-81885258D01*
X88991283Y-81885261D01*
X88991286Y-81885263D01*
X89173186Y-81997891D01*
X89173187Y-81997891D01*
X89173190Y-81997893D01*
X89372703Y-82075185D01*
X89548845Y-82108111D01*
X89611125Y-82139779D01*
X89646398Y-82200092D01*
X89643464Y-82269900D01*
X89603255Y-82327040D01*
X89548845Y-82351888D01*
X89372703Y-82384815D01*
X89300244Y-82412886D01*
X89173192Y-82462106D01*
X89173186Y-82462108D01*
X88991286Y-82574736D01*
X88991283Y-82574738D01*
X88991279Y-82574740D01*
X88991278Y-82574742D01*
X88882331Y-82674060D01*
X88833158Y-82718887D01*
X88704219Y-82889629D01*
X88608849Y-83081158D01*
X88608846Y-83081164D01*
X88550296Y-83286949D01*
X88550295Y-83286952D01*
X88530554Y-83499999D01*
X88530554Y-83500000D01*
X88550295Y-83713047D01*
X88550296Y-83713050D01*
X88608846Y-83918835D01*
X88608849Y-83918841D01*
X88661317Y-84024211D01*
X88704219Y-84110370D01*
X88833159Y-84281114D01*
X88991278Y-84425258D01*
X88991283Y-84425261D01*
X88991286Y-84425263D01*
X89173186Y-84537891D01*
X89173187Y-84537891D01*
X89173190Y-84537893D01*
X89372703Y-84615185D01*
X89548845Y-84648111D01*
X89611125Y-84679779D01*
X89646398Y-84740092D01*
X89643464Y-84809900D01*
X89603255Y-84867040D01*
X89548845Y-84891888D01*
X89372703Y-84924815D01*
X89327812Y-84942206D01*
X89173192Y-85002106D01*
X89173186Y-85002108D01*
X88991286Y-85114736D01*
X88991283Y-85114738D01*
X88991279Y-85114740D01*
X88991278Y-85114742D01*
X88843455Y-85249500D01*
X88833158Y-85258887D01*
X88704219Y-85429629D01*
X88608849Y-85621158D01*
X88608846Y-85621164D01*
X88550296Y-85826949D01*
X88550295Y-85826952D01*
X88530554Y-86039999D01*
X88530554Y-86040000D01*
X88550295Y-86253047D01*
X88550296Y-86253050D01*
X88608846Y-86458835D01*
X88608849Y-86458841D01*
X88678889Y-86599500D01*
X88704219Y-86650370D01*
X88833159Y-86821114D01*
X88991278Y-86965258D01*
X88991283Y-86965261D01*
X88991286Y-86965263D01*
X89173186Y-87077891D01*
X89173187Y-87077891D01*
X89173190Y-87077893D01*
X89372703Y-87155185D01*
X89583020Y-87194500D01*
X89583022Y-87194500D01*
X89796978Y-87194500D01*
X89796980Y-87194500D01*
X90007297Y-87155185D01*
X90206810Y-87077893D01*
X90388722Y-86965258D01*
X90546841Y-86821114D01*
X90675781Y-86650370D01*
X90771151Y-86458840D01*
X90771151Y-86458837D01*
X90771153Y-86458835D01*
X90829703Y-86253050D01*
X90829704Y-86253047D01*
X90849446Y-86040000D01*
X90849446Y-86039999D01*
X90829704Y-85826952D01*
X90829703Y-85826949D01*
X90771153Y-85621164D01*
X90771150Y-85621158D01*
X90711947Y-85502262D01*
X90675781Y-85429630D01*
X90546841Y-85258886D01*
X90388722Y-85114742D01*
X90388716Y-85114738D01*
X90388713Y-85114736D01*
X90206813Y-85002108D01*
X90206807Y-85002106D01*
X90201371Y-85000000D01*
X90007297Y-84924815D01*
X89831153Y-84891888D01*
X89768874Y-84860221D01*
X89733601Y-84799908D01*
X89736535Y-84730100D01*
X89776744Y-84672960D01*
X89831152Y-84648112D01*
X90007297Y-84615185D01*
X90206810Y-84537893D01*
X90388722Y-84425258D01*
X90546841Y-84281114D01*
X90675781Y-84110370D01*
X90771151Y-83918840D01*
X90771151Y-83918837D01*
X90771153Y-83918835D01*
X90829703Y-83713050D01*
X90829704Y-83713047D01*
X90849446Y-83500000D01*
X90849446Y-83499999D01*
X90829704Y-83286952D01*
X90829703Y-83286949D01*
X90771153Y-83081164D01*
X90771150Y-83081158D01*
X90713746Y-82965875D01*
X90701485Y-82897090D01*
X90728358Y-82832595D01*
X90785834Y-82792867D01*
X90838629Y-82787383D01*
X90885118Y-82792621D01*
X90999997Y-82805565D01*
X91000000Y-82805565D01*
X91000004Y-82805565D01*
X91179249Y-82785369D01*
X91179252Y-82785368D01*
X91179255Y-82785368D01*
X91349522Y-82725789D01*
X91502262Y-82629816D01*
X91502267Y-82629810D01*
X91505097Y-82627555D01*
X91507275Y-82626665D01*
X91508158Y-82626111D01*
X91508255Y-82626265D01*
X91569783Y-82601145D01*
X91582412Y-82600500D01*
X94413331Y-82600500D01*
X94413347Y-82600501D01*
X94420943Y-82600501D01*
X94579054Y-82600501D01*
X94579057Y-82600501D01*
X94731785Y-82559577D01*
X94781904Y-82530639D01*
X94868716Y-82480520D01*
X94980520Y-82368716D01*
X94980520Y-82368714D01*
X94990728Y-82358507D01*
X94990730Y-82358504D01*
X96022399Y-81326834D01*
X96083720Y-81293351D01*
X96153412Y-81298335D01*
X96209345Y-81340207D01*
X96225992Y-81373807D01*
X96226781Y-81373502D01*
X96228849Y-81378841D01*
X96296094Y-81513888D01*
X96324219Y-81570370D01*
X96453159Y-81741114D01*
X96611278Y-81885258D01*
X96611283Y-81885261D01*
X96611286Y-81885263D01*
X96793186Y-81997891D01*
X96793187Y-81997891D01*
X96793190Y-81997893D01*
X96992703Y-82075185D01*
X97168845Y-82108111D01*
X97231125Y-82139779D01*
X97266398Y-82200092D01*
X97263464Y-82269900D01*
X97223255Y-82327040D01*
X97168845Y-82351888D01*
X96992703Y-82384815D01*
X96920244Y-82412886D01*
X96793192Y-82462106D01*
X96793186Y-82462108D01*
X96611286Y-82574736D01*
X96611283Y-82574738D01*
X96611279Y-82574740D01*
X96611278Y-82574742D01*
X96502331Y-82674060D01*
X96453158Y-82718887D01*
X96324219Y-82889629D01*
X96228849Y-83081158D01*
X96228846Y-83081164D01*
X96170296Y-83286949D01*
X96170295Y-83286952D01*
X96150554Y-83499999D01*
X96150554Y-83500000D01*
X96170295Y-83713047D01*
X96170296Y-83713050D01*
X96228846Y-83918835D01*
X96228849Y-83918841D01*
X96281317Y-84024211D01*
X96324219Y-84110370D01*
X96453159Y-84281114D01*
X96611278Y-84425258D01*
X96611283Y-84425261D01*
X96611286Y-84425263D01*
X96793186Y-84537891D01*
X96793187Y-84537891D01*
X96793190Y-84537893D01*
X96992703Y-84615185D01*
X97123379Y-84639612D01*
X97185657Y-84671279D01*
X97220930Y-84731591D01*
X97217996Y-84801399D01*
X97177788Y-84858540D01*
X97113069Y-84884871D01*
X97100591Y-84885500D01*
X96608129Y-84885500D01*
X96608123Y-84885501D01*
X96548516Y-84891908D01*
X96413671Y-84942202D01*
X96413664Y-84942206D01*
X96298455Y-85028452D01*
X96298452Y-85028455D01*
X96212206Y-85143664D01*
X96212202Y-85143671D01*
X96161908Y-85278517D01*
X96155501Y-85338116D01*
X96155501Y-85338123D01*
X96155500Y-85338135D01*
X96155500Y-86741870D01*
X96155501Y-86741876D01*
X96161908Y-86801483D01*
X96212202Y-86936328D01*
X96212206Y-86936335D01*
X96298452Y-87051544D01*
X96298455Y-87051547D01*
X96413664Y-87137793D01*
X96413671Y-87137797D01*
X96548517Y-87188091D01*
X96548516Y-87188091D01*
X96555444Y-87188835D01*
X96608127Y-87194500D01*
X98011872Y-87194499D01*
X98071483Y-87188091D01*
X98206331Y-87137796D01*
X98321546Y-87051546D01*
X98407796Y-86936331D01*
X98458091Y-86801483D01*
X98464500Y-86741873D01*
X98464499Y-85338128D01*
X98458091Y-85278517D01*
X98456780Y-85275003D01*
X98407797Y-85143671D01*
X98407793Y-85143664D01*
X98321547Y-85028455D01*
X98321544Y-85028452D01*
X98206335Y-84942206D01*
X98206328Y-84942202D01*
X98071482Y-84891908D01*
X98071483Y-84891908D01*
X98011883Y-84885501D01*
X98011881Y-84885500D01*
X98011873Y-84885500D01*
X98011865Y-84885500D01*
X97519409Y-84885500D01*
X97452370Y-84865815D01*
X97406615Y-84813011D01*
X97396671Y-84743853D01*
X97425696Y-84680297D01*
X97484474Y-84642523D01*
X97496605Y-84639615D01*
X97627297Y-84615185D01*
X97826810Y-84537893D01*
X98008722Y-84425258D01*
X98166841Y-84281114D01*
X98295781Y-84110370D01*
X98391151Y-83918840D01*
X98391151Y-83918837D01*
X98391153Y-83918835D01*
X98449703Y-83713050D01*
X98449704Y-83713047D01*
X98469446Y-83500000D01*
X98469446Y-83499999D01*
X98453230Y-83325003D01*
X98449704Y-83286952D01*
X98449702Y-83286946D01*
X98449521Y-83285975D01*
X98449569Y-83285497D01*
X98449175Y-83281243D01*
X98450007Y-83281165D01*
X98456550Y-83216460D01*
X98483725Y-83175508D01*
X102022416Y-79636819D01*
X102083739Y-79603334D01*
X102110097Y-79600500D01*
X106417588Y-79600500D01*
X106484627Y-79620185D01*
X106494903Y-79627555D01*
X106497736Y-79629814D01*
X106497738Y-79629816D01*
X106650478Y-79725789D01*
X106654409Y-79728259D01*
X106700700Y-79780594D01*
X106711657Y-79847136D01*
X106694435Y-79999995D01*
X106694435Y-80000003D01*
X106714630Y-80179249D01*
X106714631Y-80179254D01*
X106774211Y-80349523D01*
X106819992Y-80422382D01*
X106870184Y-80502262D01*
X106997738Y-80629816D01*
X107150478Y-80725789D01*
X107280187Y-80771176D01*
X107320745Y-80785368D01*
X107320750Y-80785369D01*
X107499996Y-80805565D01*
X107500000Y-80805565D01*
X107500004Y-80805565D01*
X107679249Y-80785369D01*
X107679252Y-80785368D01*
X107679255Y-80785368D01*
X107849522Y-80725789D01*
X108002262Y-80629816D01*
X108129816Y-80502262D01*
X108225789Y-80349522D01*
X108285368Y-80179255D01*
X108285369Y-80179249D01*
X108305565Y-80000003D01*
X108305565Y-79999996D01*
X108285369Y-79820750D01*
X108285368Y-79820745D01*
X108273145Y-79785815D01*
X108225789Y-79650478D01*
X108217206Y-79636819D01*
X108186582Y-79588080D01*
X108129816Y-79497738D01*
X108002262Y-79370184D01*
X107939424Y-79330700D01*
X107845590Y-79271740D01*
X107799299Y-79219405D01*
X107788342Y-79152862D01*
X107805565Y-79000002D01*
X107805565Y-78999996D01*
X107785369Y-78820750D01*
X107785368Y-78820745D01*
X107752141Y-78725788D01*
X107725789Y-78650478D01*
X107629816Y-78497738D01*
X107502262Y-78370184D01*
X107469379Y-78349522D01*
X107349523Y-78274211D01*
X107179254Y-78214631D01*
X107179249Y-78214630D01*
X107000004Y-78194435D01*
X106999996Y-78194435D01*
X106820750Y-78214630D01*
X106820745Y-78214631D01*
X106650476Y-78274211D01*
X106497736Y-78370185D01*
X106494903Y-78372445D01*
X106492724Y-78373334D01*
X106491842Y-78373889D01*
X106491744Y-78373734D01*
X106430217Y-78398855D01*
X106417588Y-78399500D01*
X101896669Y-78399500D01*
X101896653Y-78399499D01*
X101889057Y-78399499D01*
X101730943Y-78399499D01*
X101623587Y-78428265D01*
X101578210Y-78440424D01*
X101578209Y-78440425D01*
X101543066Y-78460716D01*
X101543064Y-78460717D01*
X101441290Y-78519475D01*
X101441282Y-78519481D01*
X101329478Y-78631286D01*
X98652893Y-81307870D01*
X98591570Y-81341355D01*
X98521878Y-81336371D01*
X98465945Y-81294499D01*
X98441528Y-81229035D01*
X98445945Y-81186258D01*
X98449704Y-81173048D01*
X98469446Y-80960000D01*
X98466596Y-80929249D01*
X98449704Y-80746952D01*
X98449703Y-80746949D01*
X98391153Y-80541164D01*
X98391150Y-80541158D01*
X98320770Y-80399815D01*
X98295781Y-80349630D01*
X98166841Y-80178886D01*
X98008722Y-80034742D01*
X98008716Y-80034738D01*
X98008713Y-80034736D01*
X97826813Y-79922108D01*
X97826801Y-79922103D01*
X97716179Y-79879247D01*
X97660778Y-79836674D01*
X97637188Y-79770907D01*
X97652900Y-79702827D01*
X97673289Y-79675944D01*
X98018535Y-79330698D01*
X98079856Y-79297215D01*
X98092311Y-79295163D01*
X98179255Y-79285368D01*
X98349522Y-79225789D01*
X98502262Y-79129816D01*
X98629816Y-79002262D01*
X98725789Y-78849522D01*
X98785368Y-78679255D01*
X98785369Y-78679249D01*
X98805565Y-78500003D01*
X98805565Y-78499996D01*
X98785369Y-78320750D01*
X98785368Y-78320745D01*
X98741170Y-78194435D01*
X98725789Y-78150478D01*
X98629816Y-77997738D01*
X98502262Y-77870184D01*
X98472111Y-77851239D01*
X98349521Y-77774210D01*
X98179249Y-77714630D01*
X98092330Y-77704837D01*
X98027916Y-77677770D01*
X98018533Y-77669298D01*
X97636819Y-77287583D01*
X97603334Y-77226260D01*
X97600500Y-77199902D01*
X97600500Y-77000003D01*
X106694435Y-77000003D01*
X106714630Y-77179249D01*
X106714631Y-77179254D01*
X106774211Y-77349523D01*
X106827309Y-77434027D01*
X106870184Y-77502262D01*
X106997738Y-77629816D01*
X107030623Y-77650479D01*
X107132721Y-77714632D01*
X107150478Y-77725789D01*
X107288857Y-77774210D01*
X107320745Y-77785368D01*
X107320750Y-77785369D01*
X107499996Y-77805565D01*
X107500000Y-77805565D01*
X107500004Y-77805565D01*
X107679249Y-77785369D01*
X107679252Y-77785368D01*
X107679255Y-77785368D01*
X107849522Y-77725789D01*
X108002262Y-77629816D01*
X108129816Y-77502262D01*
X108225789Y-77349522D01*
X108285368Y-77179255D01*
X108294963Y-77094097D01*
X108305565Y-77000003D01*
X108305565Y-76999996D01*
X108285369Y-76820750D01*
X108285368Y-76820745D01*
X108261539Y-76752647D01*
X108225789Y-76650478D01*
X108206753Y-76620183D01*
X108153461Y-76535369D01*
X108129816Y-76497738D01*
X108002262Y-76370184D01*
X107969379Y-76349522D01*
X107849523Y-76274211D01*
X107679254Y-76214631D01*
X107679249Y-76214630D01*
X107500004Y-76194435D01*
X107499996Y-76194435D01*
X107320750Y-76214630D01*
X107320745Y-76214631D01*
X107150476Y-76274211D01*
X106997737Y-76370184D01*
X106870184Y-76497737D01*
X106774211Y-76650476D01*
X106714631Y-76820745D01*
X106714630Y-76820750D01*
X106694435Y-76999996D01*
X106694435Y-77000003D01*
X97600500Y-77000003D01*
X97600500Y-70895945D01*
X97600498Y-70895936D01*
X97594283Y-70872738D01*
X97559577Y-70743215D01*
X97530639Y-70693095D01*
X97480520Y-70606284D01*
X97368716Y-70494480D01*
X97368715Y-70494479D01*
X97364385Y-70490149D01*
X97364374Y-70490139D01*
X95534877Y-68660642D01*
X95501392Y-68599319D01*
X95506376Y-68529627D01*
X95548248Y-68473694D01*
X95603160Y-68450488D01*
X95816127Y-68416757D01*
X95816130Y-68416757D01*
X96018217Y-68351095D01*
X96207557Y-68254620D01*
X96379459Y-68129727D01*
X96379464Y-68129723D01*
X96529723Y-67979464D01*
X96529727Y-67979459D01*
X96654620Y-67807557D01*
X96751095Y-67618217D01*
X96816757Y-67416130D01*
X96816757Y-67416127D01*
X96847030Y-67225000D01*
X95904146Y-67225000D01*
X95942630Y-67158343D01*
X95975000Y-67037535D01*
X95975000Y-66981287D01*
X101399500Y-66981287D01*
X101432754Y-67191243D01*
X101443722Y-67225000D01*
X101498444Y-67393414D01*
X101594951Y-67582820D01*
X101719890Y-67754786D01*
X101870213Y-67905109D01*
X102042179Y-68030048D01*
X102042181Y-68030049D01*
X102042184Y-68030051D01*
X102231588Y-68126557D01*
X102433757Y-68192246D01*
X102643713Y-68225500D01*
X102643714Y-68225500D01*
X102856286Y-68225500D01*
X102856287Y-68225500D01*
X103066243Y-68192246D01*
X103202873Y-68147851D01*
X103272708Y-68145856D01*
X103328867Y-68178102D01*
X103765139Y-68614374D01*
X103765149Y-68614385D01*
X103769479Y-68618715D01*
X103769480Y-68618716D01*
X103881284Y-68730520D01*
X103881286Y-68730521D01*
X103881290Y-68730524D01*
X104013430Y-68806814D01*
X104018216Y-68809577D01*
X104130019Y-68839534D01*
X104170942Y-68850500D01*
X104170943Y-68850500D01*
X106449903Y-68850500D01*
X106516942Y-68870185D01*
X106537584Y-68886819D01*
X112671661Y-75020897D01*
X112705146Y-75082220D01*
X112700162Y-75151912D01*
X112671663Y-75196258D01*
X112620183Y-75247739D01*
X112524211Y-75400476D01*
X112464631Y-75570745D01*
X112464630Y-75570750D01*
X112444435Y-75749996D01*
X112444435Y-75750003D01*
X112464630Y-75929249D01*
X112464631Y-75929254D01*
X112524211Y-76099523D01*
X112622299Y-76255628D01*
X112641299Y-76322865D01*
X112620931Y-76389700D01*
X112567664Y-76434914D01*
X112506964Y-76444274D01*
X112506964Y-76444435D01*
X112505926Y-76444435D01*
X112503424Y-76444820D01*
X112500000Y-76444435D01*
X112499998Y-76444435D01*
X112499997Y-76444435D01*
X112499996Y-76444435D01*
X112320750Y-76464630D01*
X112320745Y-76464631D01*
X112150476Y-76524211D01*
X111997739Y-76620183D01*
X111898759Y-76719163D01*
X111837436Y-76752647D01*
X111767744Y-76747663D01*
X111723397Y-76719162D01*
X108080700Y-73076465D01*
X108047215Y-73015142D01*
X108045163Y-73002686D01*
X108035368Y-72915745D01*
X107975789Y-72745478D01*
X107879816Y-72592738D01*
X107752262Y-72465184D01*
X107599523Y-72369211D01*
X107429254Y-72309631D01*
X107429249Y-72309630D01*
X107250004Y-72289435D01*
X107249996Y-72289435D01*
X107070750Y-72309630D01*
X107070745Y-72309631D01*
X106900476Y-72369211D01*
X106747737Y-72465184D01*
X106620184Y-72592737D01*
X106524211Y-72745476D01*
X106464631Y-72915745D01*
X106464630Y-72915750D01*
X106444435Y-73094996D01*
X106444435Y-73095003D01*
X106464630Y-73274249D01*
X106464631Y-73274254D01*
X106524211Y-73444523D01*
X106559070Y-73500000D01*
X106620184Y-73597262D01*
X106747738Y-73724816D01*
X106858885Y-73794654D01*
X106905175Y-73846987D01*
X106915824Y-73916041D01*
X106887449Y-73979889D01*
X106880596Y-73987325D01*
X106870184Y-73997737D01*
X106774211Y-74150476D01*
X106714631Y-74320745D01*
X106714630Y-74320750D01*
X106694435Y-74499996D01*
X106694435Y-74500003D01*
X106714630Y-74679249D01*
X106714631Y-74679254D01*
X106774211Y-74849523D01*
X106868760Y-74999996D01*
X106870184Y-75002262D01*
X106997738Y-75129816D01*
X107150478Y-75225789D01*
X107320745Y-75285368D01*
X107407669Y-75295161D01*
X107472080Y-75322226D01*
X107481465Y-75330700D01*
X108863181Y-76712416D01*
X108896666Y-76773739D01*
X108899500Y-76800097D01*
X108899500Y-84417587D01*
X108879815Y-84484626D01*
X108872450Y-84494896D01*
X108870186Y-84497734D01*
X108774211Y-84650476D01*
X108714631Y-84820745D01*
X108714630Y-84820750D01*
X108694435Y-84999996D01*
X108694435Y-85000003D01*
X108714630Y-85179249D01*
X108714631Y-85179254D01*
X108774211Y-85349523D01*
X108840019Y-85454255D01*
X108870184Y-85502262D01*
X108997738Y-85629816D01*
X109033864Y-85652516D01*
X109080155Y-85704849D01*
X109090804Y-85773903D01*
X109062429Y-85837751D01*
X109055573Y-85845190D01*
X106942705Y-87958058D01*
X106881382Y-87991543D01*
X106822931Y-87990152D01*
X106726697Y-87964366D01*
X106726693Y-87964365D01*
X106726692Y-87964365D01*
X106726691Y-87964364D01*
X106726686Y-87964364D01*
X106500002Y-87944532D01*
X106499998Y-87944532D01*
X106273313Y-87964364D01*
X106273302Y-87964366D01*
X106053511Y-88023258D01*
X106053502Y-88023261D01*
X105847267Y-88119431D01*
X105847265Y-88119432D01*
X105660858Y-88249954D01*
X105499954Y-88410858D01*
X105369432Y-88597265D01*
X105369431Y-88597267D01*
X105273261Y-88803502D01*
X105273258Y-88803511D01*
X105214366Y-89023302D01*
X105214364Y-89023313D01*
X105194532Y-89249998D01*
X105194532Y-89250001D01*
X105214364Y-89476686D01*
X105214366Y-89476697D01*
X105273258Y-89696488D01*
X105273261Y-89696497D01*
X105369431Y-89902732D01*
X105369432Y-89902734D01*
X105499954Y-90089141D01*
X105660858Y-90250045D01*
X105660861Y-90250047D01*
X105847266Y-90380568D01*
X106053504Y-90476739D01*
X106273308Y-90535635D01*
X106435230Y-90549801D01*
X106499998Y-90555468D01*
X106500000Y-90555468D01*
X106500002Y-90555468D01*
X106556673Y-90550509D01*
X106726692Y-90535635D01*
X106946496Y-90476739D01*
X107152734Y-90380568D01*
X107339139Y-90250047D01*
X107500047Y-90089139D01*
X107630568Y-89902734D01*
X107726739Y-89696496D01*
X107727944Y-89691997D01*
X107760039Y-89636406D01*
X108100000Y-89296445D01*
X108100000Y-89302661D01*
X108127259Y-89404394D01*
X108179920Y-89495606D01*
X108254394Y-89570080D01*
X108345606Y-89622741D01*
X108447339Y-89650000D01*
X108453553Y-89650000D01*
X107774526Y-90329025D01*
X107847513Y-90380132D01*
X107847521Y-90380136D01*
X108053668Y-90476264D01*
X108053682Y-90476269D01*
X108273389Y-90535139D01*
X108273400Y-90535141D01*
X108499998Y-90554966D01*
X108500002Y-90554966D01*
X108726599Y-90535141D01*
X108726610Y-90535139D01*
X108946317Y-90476269D01*
X108946331Y-90476264D01*
X109152478Y-90380136D01*
X109225471Y-90329024D01*
X108546447Y-89650000D01*
X108552661Y-89650000D01*
X108654394Y-89622741D01*
X108745606Y-89570080D01*
X108820080Y-89495606D01*
X108872741Y-89404394D01*
X108900000Y-89302661D01*
X108900000Y-89296447D01*
X109579024Y-89975471D01*
X109630136Y-89902478D01*
X109726264Y-89696331D01*
X109726269Y-89696317D01*
X109785139Y-89476610D01*
X109785141Y-89476599D01*
X109804966Y-89250002D01*
X109804966Y-89249997D01*
X109785141Y-89023400D01*
X109785139Y-89023389D01*
X109726269Y-88803682D01*
X109726264Y-88803668D01*
X109630136Y-88597521D01*
X109630132Y-88597513D01*
X109579025Y-88524526D01*
X108900000Y-89203551D01*
X108900000Y-89197339D01*
X108872741Y-89095606D01*
X108820080Y-89004394D01*
X108745606Y-88929920D01*
X108654394Y-88877259D01*
X108552661Y-88850000D01*
X108546447Y-88850000D01*
X109225472Y-88170974D01*
X109152478Y-88119863D01*
X108946331Y-88023735D01*
X108946317Y-88023730D01*
X108861321Y-88000956D01*
X108801660Y-87964591D01*
X108771131Y-87901744D01*
X108779426Y-87832369D01*
X108805729Y-87793504D01*
X110112416Y-86486819D01*
X110173739Y-86453334D01*
X110200097Y-86450500D01*
X111063331Y-86450500D01*
X111063347Y-86450501D01*
X111070943Y-86450501D01*
X111229054Y-86450501D01*
X111229057Y-86450501D01*
X111381785Y-86409577D01*
X111431904Y-86380639D01*
X111518716Y-86330520D01*
X111630520Y-86218716D01*
X111630520Y-86218714D01*
X111640728Y-86208507D01*
X111640729Y-86208504D01*
X113237416Y-84611819D01*
X113298739Y-84578334D01*
X113325097Y-84575500D01*
X113942588Y-84575500D01*
X114009627Y-84595185D01*
X114019903Y-84602555D01*
X114022736Y-84604814D01*
X114022738Y-84604816D01*
X114095409Y-84650478D01*
X114162424Y-84692587D01*
X114175478Y-84700789D01*
X114188110Y-84705209D01*
X114345745Y-84760368D01*
X114345750Y-84760369D01*
X114524996Y-84780565D01*
X114525000Y-84780565D01*
X114525004Y-84780565D01*
X114704249Y-84760369D01*
X114704252Y-84760368D01*
X114704255Y-84760368D01*
X114874522Y-84700789D01*
X115027262Y-84604816D01*
X115154816Y-84477262D01*
X115250789Y-84324522D01*
X115310368Y-84154255D01*
X115310369Y-84154249D01*
X115330565Y-83975003D01*
X115330565Y-83974996D01*
X115310369Y-83795750D01*
X115310368Y-83795745D01*
X115281431Y-83713047D01*
X115250789Y-83625478D01*
X115154816Y-83472738D01*
X115027262Y-83345184D01*
X114995144Y-83325003D01*
X114874523Y-83249211D01*
X114704254Y-83189631D01*
X114704249Y-83189630D01*
X114525004Y-83169435D01*
X114524995Y-83169435D01*
X114437919Y-83179245D01*
X114369097Y-83167190D01*
X114317719Y-83119840D01*
X114300095Y-83052230D01*
X114300817Y-83042141D01*
X114305565Y-83000002D01*
X114305565Y-82999996D01*
X114285369Y-82820750D01*
X114285368Y-82820745D01*
X114241432Y-82695184D01*
X114225789Y-82650478D01*
X114129816Y-82497738D01*
X114002262Y-82370184D01*
X113933599Y-82327040D01*
X113849523Y-82274211D01*
X113679254Y-82214631D01*
X113679249Y-82214630D01*
X113500004Y-82194435D01*
X113499996Y-82194435D01*
X113320750Y-82214630D01*
X113320745Y-82214631D01*
X113150476Y-82274211D01*
X112997737Y-82370184D01*
X112870184Y-82497737D01*
X112774211Y-82650476D01*
X112714631Y-82820745D01*
X112714630Y-82820750D01*
X112694435Y-82999996D01*
X112694435Y-83000003D01*
X112714630Y-83179245D01*
X112714632Y-83179257D01*
X112762656Y-83316503D01*
X112766217Y-83386282D01*
X112731488Y-83446909D01*
X112707614Y-83464844D01*
X112656287Y-83494477D01*
X112656282Y-83494481D01*
X112544478Y-83606286D01*
X111845190Y-84305573D01*
X111783867Y-84339058D01*
X111714175Y-84334074D01*
X111658242Y-84292202D01*
X111652515Y-84283864D01*
X111651764Y-84282669D01*
X111629816Y-84247738D01*
X111502262Y-84120184D01*
X111391821Y-84050789D01*
X111349523Y-84024211D01*
X111179254Y-83964631D01*
X111179249Y-83964630D01*
X111000004Y-83944435D01*
X110999996Y-83944435D01*
X110820750Y-83964630D01*
X110820745Y-83964631D01*
X110650476Y-84024211D01*
X110497737Y-84120184D01*
X110370182Y-84247739D01*
X110329493Y-84312496D01*
X110277158Y-84358787D01*
X110208105Y-84369434D01*
X110144257Y-84341059D01*
X110105885Y-84282669D01*
X110100500Y-84246523D01*
X110100500Y-77094097D01*
X110120185Y-77027058D01*
X110172989Y-76981303D01*
X110242147Y-76971359D01*
X110305703Y-77000384D01*
X110312181Y-77006416D01*
X116113181Y-82807416D01*
X116146666Y-82868739D01*
X116149500Y-82895097D01*
X116149500Y-84692587D01*
X116129815Y-84759626D01*
X116122450Y-84769896D01*
X116120186Y-84772734D01*
X116024211Y-84925476D01*
X115964631Y-85095745D01*
X115964630Y-85095750D01*
X115944435Y-85274996D01*
X115944435Y-85275003D01*
X115964630Y-85454249D01*
X115964631Y-85454254D01*
X116024211Y-85624523D01*
X116027537Y-85629816D01*
X116120184Y-85777262D01*
X116247738Y-85904816D01*
X116400478Y-86000789D01*
X116512534Y-86039999D01*
X116570745Y-86060368D01*
X116570750Y-86060369D01*
X116749996Y-86080565D01*
X116750000Y-86080565D01*
X116750004Y-86080565D01*
X116929249Y-86060369D01*
X116929252Y-86060368D01*
X116929255Y-86060368D01*
X117099522Y-86000789D01*
X117252262Y-85904816D01*
X117379816Y-85777262D01*
X117475789Y-85624522D01*
X117535368Y-85454255D01*
X117538143Y-85429629D01*
X117555565Y-85275003D01*
X117555565Y-85274996D01*
X117535369Y-85095750D01*
X117535368Y-85095745D01*
X117502603Y-85002108D01*
X117475789Y-84925478D01*
X117475372Y-84924815D01*
X117379813Y-84772734D01*
X117377550Y-84769896D01*
X117376659Y-84767715D01*
X117376111Y-84766842D01*
X117376264Y-84766745D01*
X117351144Y-84705209D01*
X117350500Y-84692587D01*
X117350500Y-82684059D01*
X117350501Y-82684046D01*
X117350501Y-82515945D01*
X117350501Y-82515943D01*
X117309577Y-82363215D01*
X117255759Y-82270000D01*
X117230520Y-82226284D01*
X117118716Y-82114480D01*
X117118715Y-82114479D01*
X117114385Y-82110149D01*
X117114374Y-82110139D01*
X116761132Y-81756897D01*
X116727647Y-81695574D01*
X116732631Y-81625882D01*
X116774503Y-81569949D01*
X116834930Y-81545996D01*
X116929249Y-81535369D01*
X116929252Y-81535368D01*
X116929255Y-81535368D01*
X117099522Y-81475789D01*
X117252262Y-81379816D01*
X117379816Y-81252262D01*
X117475789Y-81099522D01*
X117535368Y-80929255D01*
X117545341Y-80840745D01*
X117555565Y-80750003D01*
X117555565Y-80749996D01*
X117535369Y-80570750D01*
X117535368Y-80570745D01*
X117516820Y-80517737D01*
X117475789Y-80400478D01*
X117475372Y-80399815D01*
X117395225Y-80272262D01*
X117379816Y-80247738D01*
X117379814Y-80247736D01*
X117379813Y-80247734D01*
X117377550Y-80244896D01*
X117376659Y-80242715D01*
X117376111Y-80241842D01*
X117376264Y-80241745D01*
X117351144Y-80180209D01*
X117350500Y-80167587D01*
X117350500Y-78339060D01*
X117350501Y-78339047D01*
X117350501Y-78170944D01*
X117345017Y-78150478D01*
X117309577Y-78018216D01*
X117238778Y-77895587D01*
X117230524Y-77881290D01*
X117230518Y-77881282D01*
X115719420Y-76370184D01*
X114194424Y-74845189D01*
X114160940Y-74783867D01*
X114165924Y-74714175D01*
X114207796Y-74658242D01*
X114216122Y-74652524D01*
X114252262Y-74629816D01*
X114379816Y-74502262D01*
X114475789Y-74349522D01*
X114535368Y-74179255D01*
X114535369Y-74179249D01*
X114555565Y-74000003D01*
X114555565Y-73999996D01*
X114535369Y-73820750D01*
X114535368Y-73820745D01*
X114501801Y-73724816D01*
X114475789Y-73650478D01*
X114381239Y-73500003D01*
X118194435Y-73500003D01*
X118214630Y-73679249D01*
X118214631Y-73679254D01*
X118274211Y-73849523D01*
X118356126Y-73979889D01*
X118370184Y-74002262D01*
X118497738Y-74129816D01*
X118544367Y-74159115D01*
X118643029Y-74221109D01*
X118650478Y-74225789D01*
X118788860Y-74274211D01*
X118820745Y-74285368D01*
X118820750Y-74285369D01*
X118999996Y-74305565D01*
X119000000Y-74305565D01*
X119000004Y-74305565D01*
X119179249Y-74285369D01*
X119179251Y-74285368D01*
X119179255Y-74285368D01*
X119179258Y-74285366D01*
X119179262Y-74285366D01*
X119286840Y-74247723D01*
X119356619Y-74244161D01*
X119417246Y-74278889D01*
X119449474Y-74340883D01*
X119443069Y-74410458D01*
X119415477Y-74452444D01*
X119370184Y-74497737D01*
X119274211Y-74650476D01*
X119214631Y-74820745D01*
X119214630Y-74820750D01*
X119194435Y-74999996D01*
X119194435Y-75000003D01*
X119214630Y-75179249D01*
X119214633Y-75179262D01*
X119274209Y-75349520D01*
X119327309Y-75434029D01*
X119346309Y-75501266D01*
X119327309Y-75565971D01*
X119274209Y-75650479D01*
X119214633Y-75820737D01*
X119214630Y-75820750D01*
X119194435Y-75999996D01*
X119194435Y-76000003D01*
X119214630Y-76179249D01*
X119214633Y-76179262D01*
X119274209Y-76349520D01*
X119327309Y-76434029D01*
X119346309Y-76501266D01*
X119327309Y-76565971D01*
X119274209Y-76650479D01*
X119214633Y-76820737D01*
X119214630Y-76820750D01*
X119194435Y-76999996D01*
X119194435Y-77000003D01*
X119214630Y-77179249D01*
X119214633Y-77179262D01*
X119274209Y-77349520D01*
X119327309Y-77434029D01*
X119346309Y-77501266D01*
X119327309Y-77565971D01*
X119274209Y-77650479D01*
X119214633Y-77820737D01*
X119214630Y-77820750D01*
X119194435Y-77999996D01*
X119194435Y-78000003D01*
X119214630Y-78179249D01*
X119214631Y-78179254D01*
X119274211Y-78349523D01*
X119345147Y-78462416D01*
X119370184Y-78502262D01*
X119497738Y-78629816D01*
X119650478Y-78725789D01*
X119760988Y-78764458D01*
X119780990Y-78771457D01*
X119837766Y-78812179D01*
X119863513Y-78877132D01*
X119850057Y-78945693D01*
X119801670Y-78996096D01*
X119780990Y-79005540D01*
X119670480Y-79044209D01*
X119517737Y-79140184D01*
X119390184Y-79267737D01*
X119294211Y-79420476D01*
X119234631Y-79590745D01*
X119234630Y-79590750D01*
X119214435Y-79769996D01*
X119214435Y-79770003D01*
X119234630Y-79949249D01*
X119234631Y-79949254D01*
X119294211Y-80119523D01*
X119342674Y-80196651D01*
X119361674Y-80263888D01*
X119341306Y-80330723D01*
X119303654Y-80367616D01*
X119267736Y-80390185D01*
X119140184Y-80517737D01*
X119044211Y-80670476D01*
X118984631Y-80840745D01*
X118984630Y-80840750D01*
X118964435Y-81019996D01*
X118964435Y-81020003D01*
X118984630Y-81199249D01*
X118984631Y-81199254D01*
X119044211Y-81369523D01*
X119092674Y-81446651D01*
X119111674Y-81513888D01*
X119091306Y-81580723D01*
X119053654Y-81617616D01*
X119017736Y-81640185D01*
X118890184Y-81767737D01*
X118794211Y-81920476D01*
X118734631Y-82090745D01*
X118734630Y-82090750D01*
X118714435Y-82269996D01*
X118714435Y-82270001D01*
X118734630Y-82449249D01*
X118734632Y-82449257D01*
X118776043Y-82567603D01*
X118779604Y-82637382D01*
X118746683Y-82696238D01*
X118620183Y-82822739D01*
X118524211Y-82975476D01*
X118464631Y-83145745D01*
X118464630Y-83145750D01*
X118444435Y-83324996D01*
X118444435Y-83325003D01*
X118464630Y-83504249D01*
X118464631Y-83504254D01*
X118524211Y-83674523D01*
X118600384Y-83795750D01*
X118620184Y-83827262D01*
X118747738Y-83954816D01*
X118900478Y-84050789D01*
X119070745Y-84110368D01*
X119070750Y-84110369D01*
X119249996Y-84130565D01*
X119250000Y-84130565D01*
X119250004Y-84130565D01*
X119429249Y-84110369D01*
X119429252Y-84110368D01*
X119429255Y-84110368D01*
X119599522Y-84050789D01*
X119752262Y-83954816D01*
X119879816Y-83827262D01*
X119975789Y-83674522D01*
X120035368Y-83504255D01*
X120035369Y-83504249D01*
X120055565Y-83325003D01*
X120055565Y-83324996D01*
X120035369Y-83145750D01*
X120035368Y-83145745D01*
X119993956Y-83027396D01*
X119990395Y-82957617D01*
X120023314Y-82898763D01*
X120149816Y-82772262D01*
X120245789Y-82619522D01*
X120305368Y-82449255D01*
X120312629Y-82384816D01*
X120325565Y-82270001D01*
X120325565Y-82269996D01*
X120305369Y-82090750D01*
X120305368Y-82090745D01*
X120292798Y-82054823D01*
X120245789Y-81920478D01*
X120197325Y-81843348D01*
X120178325Y-81776112D01*
X120198693Y-81709276D01*
X120236348Y-81672382D01*
X120238255Y-81671183D01*
X120272262Y-81649816D01*
X120399816Y-81522262D01*
X120495789Y-81369522D01*
X120555368Y-81199255D01*
X120555369Y-81199249D01*
X120575565Y-81020003D01*
X120575565Y-81019996D01*
X120555369Y-80840750D01*
X120555368Y-80840745D01*
X120523615Y-80750000D01*
X120495789Y-80670478D01*
X120447325Y-80593348D01*
X120428325Y-80526112D01*
X120448693Y-80459276D01*
X120486348Y-80422382D01*
X120488255Y-80421183D01*
X120522262Y-80399816D01*
X120649816Y-80272262D01*
X120745789Y-80119522D01*
X120805368Y-79949255D01*
X120805369Y-79949249D01*
X120825565Y-79770003D01*
X120825565Y-79769996D01*
X120805369Y-79590750D01*
X120805368Y-79590745D01*
X120745788Y-79420476D01*
X120689378Y-79330700D01*
X120649816Y-79267738D01*
X120522262Y-79140184D01*
X120369522Y-79044211D01*
X120369519Y-79044209D01*
X120239009Y-78998541D01*
X120182233Y-78957820D01*
X120156486Y-78892867D01*
X120169942Y-78824305D01*
X120218330Y-78773902D01*
X120239002Y-78764461D01*
X120349522Y-78725789D01*
X120502262Y-78629816D01*
X120629816Y-78502262D01*
X120725789Y-78349522D01*
X120785368Y-78179255D01*
X120785369Y-78179249D01*
X120805565Y-78000003D01*
X120805565Y-77999996D01*
X120785369Y-77820750D01*
X120785368Y-77820745D01*
X120725788Y-77650475D01*
X120672691Y-77565973D01*
X120653690Y-77498736D01*
X120672691Y-77434027D01*
X120725788Y-77349524D01*
X120725789Y-77349522D01*
X120785368Y-77179255D01*
X120794963Y-77094097D01*
X120805565Y-77000003D01*
X120805565Y-76999996D01*
X120785369Y-76820750D01*
X120785368Y-76820745D01*
X120725788Y-76650475D01*
X120672691Y-76565973D01*
X120653690Y-76498736D01*
X120672691Y-76434027D01*
X120725788Y-76349524D01*
X120725789Y-76349522D01*
X120785368Y-76179255D01*
X120805565Y-76000000D01*
X120797593Y-75929249D01*
X120785369Y-75820750D01*
X120785368Y-75820745D01*
X120725788Y-75650475D01*
X120672691Y-75565973D01*
X120653690Y-75498736D01*
X120672691Y-75434027D01*
X120725788Y-75349524D01*
X120725789Y-75349522D01*
X120785368Y-75179255D01*
X120788449Y-75151912D01*
X120805565Y-75000003D01*
X120805565Y-74999996D01*
X120785369Y-74820750D01*
X120785368Y-74820745D01*
X120752141Y-74725789D01*
X120725789Y-74650478D01*
X120712807Y-74629818D01*
X120686582Y-74588080D01*
X120629816Y-74497738D01*
X120502262Y-74370184D01*
X120455630Y-74340883D01*
X120349523Y-74274211D01*
X120179254Y-74214631D01*
X120179249Y-74214630D01*
X120000004Y-74194435D01*
X119999996Y-74194435D01*
X119820750Y-74214630D01*
X119820742Y-74214632D01*
X119713158Y-74252277D01*
X119643379Y-74255838D01*
X119582752Y-74221109D01*
X119550525Y-74159115D01*
X119556931Y-74089540D01*
X119584522Y-74047555D01*
X119629816Y-74002262D01*
X119725789Y-73849522D01*
X119785368Y-73679255D01*
X119785369Y-73679249D01*
X119805565Y-73500003D01*
X119805565Y-73499996D01*
X119785369Y-73320750D01*
X119785368Y-73320748D01*
X119785368Y-73320745D01*
X119778949Y-73302403D01*
X119775387Y-73232626D01*
X119802442Y-73184275D01*
X119800475Y-73182706D01*
X119804815Y-73177263D01*
X119818101Y-73156119D01*
X119900789Y-73024522D01*
X119960368Y-72854255D01*
X119960368Y-72854252D01*
X119962485Y-72848203D01*
X120003207Y-72791427D01*
X120038574Y-72772115D01*
X120099522Y-72750789D01*
X120252262Y-72654816D01*
X120379816Y-72527262D01*
X120475789Y-72374522D01*
X120519716Y-72248983D01*
X120560436Y-72192210D01*
X120622871Y-72166720D01*
X120679255Y-72160368D01*
X120849522Y-72100789D01*
X121002262Y-72004816D01*
X121129816Y-71877262D01*
X121225789Y-71724522D01*
X121285368Y-71554255D01*
X121288919Y-71522738D01*
X121305565Y-71375003D01*
X121305565Y-71374996D01*
X121285369Y-71195750D01*
X121285368Y-71195745D01*
X121251698Y-71099522D01*
X121225789Y-71025478D01*
X121129816Y-70872738D01*
X121002262Y-70745184D01*
X120953639Y-70714632D01*
X120849523Y-70649211D01*
X120679254Y-70589631D01*
X120679249Y-70589630D01*
X120500004Y-70569435D01*
X120499996Y-70569435D01*
X120320750Y-70589630D01*
X120320745Y-70589631D01*
X120150476Y-70649211D01*
X119997737Y-70745184D01*
X119870184Y-70872737D01*
X119774209Y-71025480D01*
X119730283Y-71151013D01*
X119689562Y-71207789D01*
X119627127Y-71233278D01*
X119570750Y-71239630D01*
X119400478Y-71299210D01*
X119247737Y-71395184D01*
X119120184Y-71522737D01*
X119024210Y-71675478D01*
X118962515Y-71851795D01*
X118921793Y-71908572D01*
X118886429Y-71927882D01*
X118825479Y-71949209D01*
X118672737Y-72045184D01*
X118545184Y-72172737D01*
X118449211Y-72325476D01*
X118389631Y-72495745D01*
X118389630Y-72495750D01*
X118369435Y-72674996D01*
X118369435Y-72675003D01*
X118389631Y-72854252D01*
X118396050Y-72872597D01*
X118399611Y-72942376D01*
X118372571Y-72990736D01*
X118374525Y-72992295D01*
X118370184Y-72997738D01*
X118274211Y-73150476D01*
X118214631Y-73320745D01*
X118214630Y-73320750D01*
X118194435Y-73499996D01*
X118194435Y-73500003D01*
X114381239Y-73500003D01*
X114379816Y-73497738D01*
X114252262Y-73370184D01*
X114173580Y-73320745D01*
X114100773Y-73274997D01*
X114054482Y-73222662D01*
X114043525Y-73156121D01*
X114054439Y-73059252D01*
X114081505Y-72994841D01*
X114111682Y-72968148D01*
X114252262Y-72879816D01*
X114379816Y-72752262D01*
X114475789Y-72599522D01*
X114535368Y-72429255D01*
X114548465Y-72313006D01*
X114575531Y-72248595D01*
X114605708Y-72221901D01*
X114752262Y-72129816D01*
X114879816Y-72002262D01*
X114975789Y-71849522D01*
X115035368Y-71679255D01*
X115048465Y-71563006D01*
X115075531Y-71498595D01*
X115105708Y-71471901D01*
X115252262Y-71379816D01*
X115379816Y-71252262D01*
X115475789Y-71099522D01*
X115535368Y-70929255D01*
X115539121Y-70895945D01*
X115555565Y-70750003D01*
X115555565Y-70749996D01*
X115535369Y-70570750D01*
X115535368Y-70570745D01*
X115475788Y-70400476D01*
X115379815Y-70247737D01*
X115252262Y-70120184D01*
X115099523Y-70024211D01*
X114929254Y-69964631D01*
X114929249Y-69964630D01*
X114750004Y-69944435D01*
X114749996Y-69944435D01*
X114570750Y-69964630D01*
X114570745Y-69964631D01*
X114400476Y-70024211D01*
X114247737Y-70120184D01*
X114120184Y-70247737D01*
X114024211Y-70400476D01*
X113964631Y-70570745D01*
X113964630Y-70570749D01*
X113951533Y-70686992D01*
X113924466Y-70751406D01*
X113894285Y-70778102D01*
X113747737Y-70870184D01*
X113620184Y-70997737D01*
X113524211Y-71150476D01*
X113464631Y-71320745D01*
X113464630Y-71320749D01*
X113451533Y-71436992D01*
X113424466Y-71501406D01*
X113394285Y-71528102D01*
X113247737Y-71620184D01*
X113120184Y-71747737D01*
X113024211Y-71900476D01*
X112964631Y-72070745D01*
X112964630Y-72070750D01*
X112945560Y-72240009D01*
X112918494Y-72304423D01*
X112888312Y-72331120D01*
X112747737Y-72419449D01*
X112620184Y-72547002D01*
X112524209Y-72699745D01*
X112466202Y-72865519D01*
X112425481Y-72922295D01*
X112360528Y-72948042D01*
X112291966Y-72934586D01*
X112261480Y-72912245D01*
X107786415Y-68437180D01*
X107752930Y-68375857D01*
X107757914Y-68306165D01*
X107799786Y-68250232D01*
X107865250Y-68225815D01*
X107874096Y-68225499D01*
X108400002Y-68225499D01*
X108400008Y-68225499D01*
X108502797Y-68214999D01*
X108669334Y-68159814D01*
X108818656Y-68067712D01*
X108942712Y-67943656D01*
X109034814Y-67794334D01*
X109089999Y-67627797D01*
X109100500Y-67525009D01*
X109100499Y-65974992D01*
X109100010Y-65970209D01*
X109089999Y-65872203D01*
X109089998Y-65872200D01*
X109059891Y-65781344D01*
X109034814Y-65705666D01*
X108942712Y-65556344D01*
X108818656Y-65432288D01*
X108669334Y-65340186D01*
X108502797Y-65285001D01*
X108502795Y-65285000D01*
X108400010Y-65274500D01*
X107099998Y-65274500D01*
X107099981Y-65274501D01*
X106997203Y-65285000D01*
X106997200Y-65285001D01*
X106830668Y-65340185D01*
X106830663Y-65340187D01*
X106681342Y-65432289D01*
X106557289Y-65556342D01*
X106461551Y-65711559D01*
X106409603Y-65758283D01*
X106340640Y-65769506D01*
X106276558Y-65741662D01*
X106268331Y-65734143D01*
X106129464Y-65595276D01*
X106129459Y-65595272D01*
X105957557Y-65470379D01*
X105768215Y-65373903D01*
X105566124Y-65308241D01*
X105500000Y-65297768D01*
X105500000Y-66345854D01*
X105433343Y-66307370D01*
X105312535Y-66275000D01*
X105187465Y-66275000D01*
X105066657Y-66307370D01*
X105000000Y-66345854D01*
X105000000Y-65297768D01*
X104999999Y-65297768D01*
X104933875Y-65308241D01*
X104731784Y-65373903D01*
X104542442Y-65470379D01*
X104370540Y-65595272D01*
X104370535Y-65595276D01*
X104220276Y-65745535D01*
X104220272Y-65745540D01*
X104100627Y-65910218D01*
X104045297Y-65952884D01*
X103975684Y-65958863D01*
X103913889Y-65926257D01*
X103899991Y-65910218D01*
X103780109Y-65745214D01*
X103780105Y-65745209D01*
X103629786Y-65594890D01*
X103457820Y-65469951D01*
X103268414Y-65373444D01*
X103268413Y-65373443D01*
X103268412Y-65373443D01*
X103066243Y-65307754D01*
X103066241Y-65307753D01*
X103066240Y-65307753D01*
X102904957Y-65282208D01*
X102856287Y-65274500D01*
X102643713Y-65274500D01*
X102595042Y-65282208D01*
X102433760Y-65307753D01*
X102231585Y-65373444D01*
X102042179Y-65469951D01*
X101870213Y-65594890D01*
X101719890Y-65745213D01*
X101594951Y-65917179D01*
X101498444Y-66106585D01*
X101432753Y-66308760D01*
X101429107Y-66331782D01*
X101399500Y-66518713D01*
X101399500Y-66981287D01*
X95975000Y-66981287D01*
X95975000Y-66912465D01*
X95942630Y-66791657D01*
X95904146Y-66725000D01*
X96847030Y-66725000D01*
X96816757Y-66533872D01*
X96816757Y-66533869D01*
X96751095Y-66331782D01*
X96654620Y-66142442D01*
X96529727Y-65970540D01*
X96529723Y-65970535D01*
X96379464Y-65820276D01*
X96379459Y-65820272D01*
X96207557Y-65695379D01*
X96018215Y-65598903D01*
X95816124Y-65533241D01*
X95750000Y-65522768D01*
X95750000Y-66570854D01*
X95683343Y-66532370D01*
X95562535Y-66500000D01*
X95437465Y-66500000D01*
X95316657Y-66532370D01*
X95250000Y-66570854D01*
X95250000Y-65522768D01*
X95249999Y-65522768D01*
X95183875Y-65533241D01*
X94981784Y-65598903D01*
X94792442Y-65695379D01*
X94620540Y-65820272D01*
X94620535Y-65820276D01*
X94470276Y-65970535D01*
X94470272Y-65970540D01*
X94350627Y-66135218D01*
X94295297Y-66177884D01*
X94225684Y-66183863D01*
X94163889Y-66151257D01*
X94149991Y-66135218D01*
X94030109Y-65970214D01*
X94030105Y-65970209D01*
X93879786Y-65819890D01*
X93707820Y-65694951D01*
X93518414Y-65598444D01*
X93518413Y-65598443D01*
X93518412Y-65598443D01*
X93316243Y-65532754D01*
X93316241Y-65532753D01*
X93316240Y-65532753D01*
X93154957Y-65507208D01*
X93106287Y-65499500D01*
X92893713Y-65499500D01*
X92845042Y-65507208D01*
X92683760Y-65532753D01*
X92683757Y-65532754D01*
X92492505Y-65594896D01*
X92481585Y-65598444D01*
X92292179Y-65694951D01*
X92120213Y-65819890D01*
X91969894Y-65970209D01*
X91969890Y-65970214D01*
X91850318Y-66134793D01*
X91794989Y-66177459D01*
X91725375Y-66183438D01*
X91663580Y-66150833D01*
X91649682Y-66134793D01*
X91530109Y-65970214D01*
X91530105Y-65970209D01*
X91379786Y-65819890D01*
X91207820Y-65694951D01*
X91018414Y-65598444D01*
X91018413Y-65598443D01*
X91018412Y-65598443D01*
X90816243Y-65532754D01*
X90816241Y-65532753D01*
X90816240Y-65532753D01*
X90654957Y-65507208D01*
X90606287Y-65499500D01*
X90393713Y-65499500D01*
X90345042Y-65507208D01*
X90183760Y-65532753D01*
X90183757Y-65532754D01*
X89992505Y-65594896D01*
X89981585Y-65598444D01*
X89792179Y-65694951D01*
X89620215Y-65819889D01*
X89481398Y-65958706D01*
X89420075Y-65992190D01*
X89350383Y-65987206D01*
X89294450Y-65945334D01*
X89288178Y-65936120D01*
X89282094Y-65926257D01*
X89192712Y-65781344D01*
X89068656Y-65657288D01*
X88968118Y-65595276D01*
X88919336Y-65565187D01*
X88919331Y-65565185D01*
X88917862Y-65564698D01*
X88752797Y-65510001D01*
X88752795Y-65510000D01*
X88650010Y-65499500D01*
X87349998Y-65499500D01*
X87349981Y-65499501D01*
X87247203Y-65510000D01*
X87247200Y-65510001D01*
X87080668Y-65565185D01*
X87080663Y-65565187D01*
X86931342Y-65657289D01*
X86807289Y-65781342D01*
X86715187Y-65930663D01*
X86715185Y-65930668D01*
X86705894Y-65958706D01*
X86660001Y-66097203D01*
X86660001Y-66097204D01*
X86660000Y-66097204D01*
X86649500Y-66199983D01*
X86649500Y-67750001D01*
X83500500Y-67750001D01*
X83500500Y-63124500D01*
X83520185Y-63057461D01*
X83572989Y-63011706D01*
X83624500Y-63000500D01*
X111375500Y-63000500D01*
X111442539Y-63020185D01*
G37*
G04 #@! TD.AperFunction*
M02*
