G04 #@! TF.GenerationSoftware,KiCad,Pcbnew,8.0.1*
G04 #@! TF.CreationDate,2025-10-01T17:28:23+01:00*
G04 #@! TF.ProjectId,Mux_bus_Tx_Rx,4d75785f-6275-4735-9f54-785f52782e6b,rev?*
G04 #@! TF.SameCoordinates,Original*
G04 #@! TF.FileFunction,Copper,L2,Inr*
G04 #@! TF.FilePolarity,Positive*
%FSLAX46Y46*%
G04 Gerber Fmt 4.6, Leading zero omitted, Abs format (unit mm)*
G04 Created by KiCad (PCBNEW 8.0.1) date 2025-10-01 17:28:23*
%MOMM*%
%LPD*%
G01*
G04 APERTURE LIST*
G04 Aperture macros list*
%AMRoundRect*
0 Rectangle with rounded corners*
0 $1 Rounding radius*
0 $2 $3 $4 $5 $6 $7 $8 $9 X,Y pos of 4 corners*
0 Add a 4 corners polygon primitive as box body*
4,1,4,$2,$3,$4,$5,$6,$7,$8,$9,$2,$3,0*
0 Add four circle primitives for the rounded corners*
1,1,$1+$1,$2,$3*
1,1,$1+$1,$4,$5*
1,1,$1+$1,$6,$7*
1,1,$1+$1,$8,$9*
0 Add four rect primitives between the rounded corners*
20,1,$1+$1,$2,$3,$4,$5,0*
20,1,$1+$1,$4,$5,$6,$7,0*
20,1,$1+$1,$6,$7,$8,$9,0*
20,1,$1+$1,$8,$9,$2,$3,0*%
G04 Aperture macros list end*
G04 #@! TA.AperFunction,ComponentPad*
%ADD10R,1.308000X1.308000*%
G04 #@! TD*
G04 #@! TA.AperFunction,ComponentPad*
%ADD11C,1.308000*%
G04 #@! TD*
G04 #@! TA.AperFunction,ComponentPad*
%ADD12RoundRect,0.250000X-0.600000X-0.725000X0.600000X-0.725000X0.600000X0.725000X-0.600000X0.725000X0*%
G04 #@! TD*
G04 #@! TA.AperFunction,ComponentPad*
%ADD13O,1.700000X1.950000*%
G04 #@! TD*
G04 #@! TA.AperFunction,ComponentPad*
%ADD14C,1.600000*%
G04 #@! TD*
G04 #@! TA.AperFunction,ComponentPad*
%ADD15R,1.500000X1.500000*%
G04 #@! TD*
G04 #@! TA.AperFunction,ComponentPad*
%ADD16RoundRect,0.250000X0.600000X0.725000X-0.600000X0.725000X-0.600000X-0.725000X0.600000X-0.725000X0*%
G04 #@! TD*
G04 #@! TA.AperFunction,ViaPad*
%ADD17C,0.600000*%
G04 #@! TD*
G04 #@! TA.AperFunction,Conductor*
%ADD18C,0.200000*%
G04 #@! TD*
G04 APERTURE END LIST*
D10*
X97310000Y-86040000D03*
D11*
X89690000Y-86040000D03*
X97310000Y-83500000D03*
X89690000Y-83500000D03*
X97310000Y-80960000D03*
X89690000Y-80960000D03*
D12*
X88000000Y-66975000D03*
D13*
X90500000Y-66975000D03*
X93000000Y-66975000D03*
X95500000Y-66975000D03*
D14*
X100500000Y-89500000D03*
X102500000Y-89500000D03*
D15*
X92210000Y-90500000D03*
D14*
X89670000Y-90500000D03*
X94750000Y-90500000D03*
X108500000Y-89250000D03*
X106500000Y-89250000D03*
D16*
X107750000Y-66750000D03*
D13*
X105250000Y-66750000D03*
X102750000Y-66750000D03*
D17*
X122250000Y-73500000D03*
X113500000Y-83000000D03*
X113750000Y-74000000D03*
X89000000Y-78000000D03*
X96500000Y-78000000D03*
X98000000Y-78500000D03*
X91000000Y-82000000D03*
X120000000Y-76000000D03*
X114250000Y-71500000D03*
X119175000Y-72675000D03*
X119520000Y-82270000D03*
X120500000Y-71375000D03*
X120020000Y-79770000D03*
X119000000Y-73500000D03*
X119250000Y-83325000D03*
X119750000Y-72025000D03*
X119770000Y-81020000D03*
X120000000Y-78000000D03*
X113250000Y-73049265D03*
X113750000Y-72250000D03*
X120000000Y-77000000D03*
X114750000Y-70750000D03*
X120000000Y-75000000D03*
X107500000Y-77000000D03*
X107000000Y-79000000D03*
X86250000Y-71500000D03*
X88750000Y-79750000D03*
X107500000Y-80000000D03*
X116750000Y-80750000D03*
X109500000Y-85000000D03*
X107500000Y-74500000D03*
X116750000Y-85275000D03*
X107250000Y-73095000D03*
X111000000Y-84750000D03*
X112500000Y-77250000D03*
X113250000Y-75750000D03*
X114525000Y-83975000D03*
D18*
X89000000Y-78000000D02*
X90500000Y-76500000D01*
X90500000Y-76500000D02*
X90500000Y-66975000D01*
X114250000Y-71500000D02*
X114750000Y-71500000D01*
X114750000Y-71500000D02*
X119250000Y-76000000D01*
X119250000Y-76000000D02*
X120000000Y-76000000D01*
X113799265Y-73049265D02*
X118750000Y-78000000D01*
X118750000Y-78000000D02*
X120000000Y-78000000D01*
X113250000Y-73049265D02*
X113799265Y-73049265D01*
X114000000Y-72250000D02*
X118750000Y-77000000D01*
X113750000Y-72250000D02*
X114000000Y-72250000D01*
X118750000Y-77000000D02*
X120000000Y-77000000D01*
X119000000Y-75000000D02*
X120000000Y-75000000D01*
X114750000Y-70750000D02*
X119000000Y-75000000D01*
X98460000Y-86040000D02*
X97310000Y-86040000D01*
X107500000Y-77000000D02*
X98460000Y-86040000D01*
X96100000Y-79750000D02*
X97310000Y-80960000D01*
X88750000Y-79750000D02*
X96100000Y-79750000D01*
G04 #@! TA.AperFunction,Conductor*
G36*
X111442539Y-63020185D02*
G01*
X111488294Y-63072989D01*
X111499500Y-63124500D01*
X111499500Y-69065891D01*
X111533608Y-69193187D01*
X111566554Y-69250250D01*
X111599500Y-69307314D01*
X111692686Y-69400500D01*
X111806814Y-69466392D01*
X111934108Y-69500500D01*
X126625500Y-69500500D01*
X126692539Y-69520185D01*
X126738294Y-69572989D01*
X126749500Y-69624500D01*
X126749500Y-86375500D01*
X126729815Y-86442539D01*
X126677011Y-86488294D01*
X126625500Y-86499500D01*
X111934108Y-86499500D01*
X111806812Y-86533608D01*
X111692686Y-86599500D01*
X111692683Y-86599502D01*
X111599502Y-86692683D01*
X111599500Y-86692686D01*
X111533608Y-86806812D01*
X111499500Y-86934108D01*
X111499500Y-92875500D01*
X111479815Y-92942539D01*
X111427011Y-92988294D01*
X111375500Y-92999500D01*
X83624500Y-92999500D01*
X83557461Y-92979815D01*
X83511706Y-92927011D01*
X83500500Y-92875500D01*
X83500500Y-90500001D01*
X88364532Y-90500001D01*
X88384364Y-90726686D01*
X88384366Y-90726697D01*
X88443258Y-90946488D01*
X88443261Y-90946497D01*
X88539431Y-91152732D01*
X88539432Y-91152734D01*
X88669954Y-91339141D01*
X88830858Y-91500045D01*
X88830861Y-91500047D01*
X89017266Y-91630568D01*
X89223504Y-91726739D01*
X89443308Y-91785635D01*
X89605230Y-91799801D01*
X89669998Y-91805468D01*
X89670000Y-91805468D01*
X89670002Y-91805468D01*
X89726673Y-91800509D01*
X89896692Y-91785635D01*
X90116496Y-91726739D01*
X90322734Y-91630568D01*
X90509139Y-91500047D01*
X90670047Y-91339139D01*
X90735278Y-91245977D01*
X90789854Y-91202353D01*
X90859352Y-91195159D01*
X90921707Y-91226681D01*
X90957122Y-91286911D01*
X90960143Y-91303847D01*
X90965909Y-91357483D01*
X91016202Y-91492328D01*
X91016206Y-91492335D01*
X91102452Y-91607544D01*
X91102455Y-91607547D01*
X91217664Y-91693793D01*
X91217671Y-91693797D01*
X91352517Y-91744091D01*
X91352516Y-91744091D01*
X91359444Y-91744835D01*
X91412127Y-91750500D01*
X93007872Y-91750499D01*
X93067483Y-91744091D01*
X93202331Y-91693796D01*
X93317546Y-91607546D01*
X93403796Y-91492331D01*
X93454091Y-91357483D01*
X93459939Y-91303086D01*
X93486676Y-91238539D01*
X93544069Y-91198691D01*
X93613894Y-91196197D01*
X93661897Y-91224678D01*
X93670974Y-91225472D01*
X94350000Y-90546446D01*
X94350000Y-90552661D01*
X94377259Y-90654394D01*
X94429920Y-90745606D01*
X94504394Y-90820080D01*
X94595606Y-90872741D01*
X94697339Y-90900000D01*
X94703553Y-90900000D01*
X94024526Y-91579025D01*
X94097513Y-91630132D01*
X94097521Y-91630136D01*
X94303668Y-91726264D01*
X94303682Y-91726269D01*
X94523389Y-91785139D01*
X94523400Y-91785141D01*
X94749998Y-91804966D01*
X94750002Y-91804966D01*
X94976599Y-91785141D01*
X94976610Y-91785139D01*
X95196317Y-91726269D01*
X95196331Y-91726264D01*
X95402478Y-91630136D01*
X95475471Y-91579024D01*
X94796447Y-90900000D01*
X94802661Y-90900000D01*
X94904394Y-90872741D01*
X94995606Y-90820080D01*
X95070080Y-90745606D01*
X95122741Y-90654394D01*
X95150000Y-90552661D01*
X95150000Y-90546447D01*
X95829024Y-91225471D01*
X95880136Y-91152478D01*
X95976264Y-90946331D01*
X95976269Y-90946317D01*
X96035139Y-90726610D01*
X96035141Y-90726599D01*
X96054966Y-90500002D01*
X96054966Y-90499997D01*
X96035141Y-90273400D01*
X96035139Y-90273389D01*
X95976269Y-90053682D01*
X95976264Y-90053668D01*
X95880136Y-89847521D01*
X95880132Y-89847513D01*
X95829025Y-89774526D01*
X95150000Y-90453551D01*
X95150000Y-90447339D01*
X95122741Y-90345606D01*
X95070080Y-90254394D01*
X94995606Y-90179920D01*
X94904394Y-90127259D01*
X94802661Y-90100000D01*
X94796448Y-90100000D01*
X95396445Y-89500001D01*
X99194532Y-89500001D01*
X99214364Y-89726686D01*
X99214366Y-89726697D01*
X99273258Y-89946488D01*
X99273261Y-89946497D01*
X99369431Y-90152732D01*
X99369432Y-90152734D01*
X99499954Y-90339141D01*
X99660858Y-90500045D01*
X99660861Y-90500047D01*
X99847266Y-90630568D01*
X100053504Y-90726739D01*
X100273308Y-90785635D01*
X100435230Y-90799801D01*
X100499998Y-90805468D01*
X100500000Y-90805468D01*
X100500002Y-90805468D01*
X100556673Y-90800509D01*
X100726692Y-90785635D01*
X100946496Y-90726739D01*
X101152734Y-90630568D01*
X101339139Y-90500047D01*
X101412320Y-90426865D01*
X101473641Y-90393382D01*
X101543333Y-90398366D01*
X101587679Y-90426865D01*
X101637552Y-90476738D01*
X101660862Y-90500048D01*
X101711686Y-90535635D01*
X101847266Y-90630568D01*
X102053504Y-90726739D01*
X102273308Y-90785635D01*
X102435230Y-90799801D01*
X102499998Y-90805468D01*
X102500000Y-90805468D01*
X102500002Y-90805468D01*
X102556673Y-90800509D01*
X102726692Y-90785635D01*
X102946496Y-90726739D01*
X103152734Y-90630568D01*
X103339139Y-90500047D01*
X103500047Y-90339139D01*
X103630568Y-90152734D01*
X103726739Y-89946496D01*
X103785635Y-89726692D01*
X103804797Y-89507669D01*
X103805468Y-89500001D01*
X103805468Y-89499998D01*
X103785672Y-89273734D01*
X103785635Y-89273308D01*
X103779390Y-89250001D01*
X105194532Y-89250001D01*
X105214364Y-89476686D01*
X105214366Y-89476697D01*
X105273258Y-89696488D01*
X105273261Y-89696497D01*
X105369431Y-89902732D01*
X105369432Y-89902734D01*
X105499954Y-90089141D01*
X105660858Y-90250045D01*
X105660861Y-90250047D01*
X105847266Y-90380568D01*
X106053504Y-90476739D01*
X106273308Y-90535635D01*
X106435230Y-90549801D01*
X106499998Y-90555468D01*
X106500000Y-90555468D01*
X106500002Y-90555468D01*
X106556673Y-90550509D01*
X106726692Y-90535635D01*
X106946496Y-90476739D01*
X107152734Y-90380568D01*
X107339139Y-90250047D01*
X107412320Y-90176865D01*
X107473641Y-90143382D01*
X107543333Y-90148366D01*
X107587679Y-90176865D01*
X107660859Y-90250045D01*
X107660862Y-90250048D01*
X107694197Y-90273389D01*
X107847266Y-90380568D01*
X108053504Y-90476739D01*
X108273308Y-90535635D01*
X108435230Y-90549801D01*
X108499998Y-90555468D01*
X108500000Y-90555468D01*
X108500002Y-90555468D01*
X108556673Y-90550509D01*
X108726692Y-90535635D01*
X108946496Y-90476739D01*
X109152734Y-90380568D01*
X109339139Y-90250047D01*
X109500047Y-90089139D01*
X109630568Y-89902734D01*
X109726739Y-89696496D01*
X109785635Y-89476692D01*
X109805468Y-89250000D01*
X109805424Y-89249501D01*
X109788277Y-89053511D01*
X109785635Y-89023308D01*
X109726739Y-88803504D01*
X109630568Y-88597266D01*
X109500047Y-88410861D01*
X109500045Y-88410858D01*
X109339141Y-88249954D01*
X109152734Y-88119432D01*
X109152732Y-88119431D01*
X108946497Y-88023261D01*
X108946488Y-88023258D01*
X108726697Y-87964366D01*
X108726693Y-87964365D01*
X108726692Y-87964365D01*
X108726691Y-87964364D01*
X108726686Y-87964364D01*
X108500002Y-87944532D01*
X108499998Y-87944532D01*
X108273313Y-87964364D01*
X108273302Y-87964366D01*
X108053511Y-88023258D01*
X108053502Y-88023261D01*
X107847267Y-88119431D01*
X107847265Y-88119432D01*
X107660858Y-88249954D01*
X107587681Y-88323132D01*
X107526358Y-88356617D01*
X107456666Y-88351633D01*
X107412319Y-88323132D01*
X107339141Y-88249954D01*
X107152734Y-88119432D01*
X107152732Y-88119431D01*
X106946497Y-88023261D01*
X106946488Y-88023258D01*
X106726697Y-87964366D01*
X106726693Y-87964365D01*
X106726692Y-87964365D01*
X106726691Y-87964364D01*
X106726686Y-87964364D01*
X106500002Y-87944532D01*
X106499998Y-87944532D01*
X106273313Y-87964364D01*
X106273302Y-87964366D01*
X106053511Y-88023258D01*
X106053502Y-88023261D01*
X105847267Y-88119431D01*
X105847265Y-88119432D01*
X105660858Y-88249954D01*
X105499954Y-88410858D01*
X105369432Y-88597265D01*
X105369431Y-88597267D01*
X105273261Y-88803502D01*
X105273258Y-88803511D01*
X105214366Y-89023302D01*
X105214364Y-89023313D01*
X105194532Y-89249998D01*
X105194532Y-89250001D01*
X103779390Y-89250001D01*
X103726739Y-89053504D01*
X103630568Y-88847266D01*
X103500047Y-88660861D01*
X103500045Y-88660858D01*
X103339141Y-88499954D01*
X103152734Y-88369432D01*
X103152732Y-88369431D01*
X102946497Y-88273261D01*
X102946488Y-88273258D01*
X102726697Y-88214366D01*
X102726693Y-88214365D01*
X102726692Y-88214365D01*
X102726691Y-88214364D01*
X102726686Y-88214364D01*
X102500002Y-88194532D01*
X102499998Y-88194532D01*
X102273313Y-88214364D01*
X102273302Y-88214366D01*
X102053511Y-88273258D01*
X102053502Y-88273261D01*
X101847267Y-88369431D01*
X101847265Y-88369432D01*
X101660858Y-88499954D01*
X101587681Y-88573132D01*
X101526358Y-88606617D01*
X101456666Y-88601633D01*
X101412319Y-88573132D01*
X101339141Y-88499954D01*
X101152734Y-88369432D01*
X101152732Y-88369431D01*
X100946497Y-88273261D01*
X100946488Y-88273258D01*
X100726697Y-88214366D01*
X100726693Y-88214365D01*
X100726692Y-88214365D01*
X100726691Y-88214364D01*
X100726686Y-88214364D01*
X100500002Y-88194532D01*
X100499998Y-88194532D01*
X100273313Y-88214364D01*
X100273302Y-88214366D01*
X100053511Y-88273258D01*
X100053502Y-88273261D01*
X99847267Y-88369431D01*
X99847265Y-88369432D01*
X99660858Y-88499954D01*
X99499954Y-88660858D01*
X99369432Y-88847265D01*
X99369431Y-88847267D01*
X99273261Y-89053502D01*
X99273258Y-89053511D01*
X99214366Y-89273302D01*
X99214364Y-89273313D01*
X99194532Y-89499998D01*
X99194532Y-89500001D01*
X95396445Y-89500001D01*
X95475472Y-89420974D01*
X95402478Y-89369863D01*
X95196331Y-89273735D01*
X95196317Y-89273730D01*
X94976610Y-89214860D01*
X94976599Y-89214858D01*
X94750002Y-89195034D01*
X94749998Y-89195034D01*
X94523400Y-89214858D01*
X94523389Y-89214860D01*
X94303682Y-89273730D01*
X94303673Y-89273734D01*
X94097516Y-89369866D01*
X94097512Y-89369868D01*
X94024526Y-89420973D01*
X94024526Y-89420974D01*
X94703553Y-90100000D01*
X94697339Y-90100000D01*
X94595606Y-90127259D01*
X94504394Y-90179920D01*
X94429920Y-90254394D01*
X94377259Y-90345606D01*
X94350000Y-90447339D01*
X94350000Y-90453552D01*
X93670974Y-89774526D01*
X93658756Y-89775595D01*
X93630223Y-89798402D01*
X93560724Y-89805594D01*
X93498370Y-89774070D01*
X93462958Y-89713840D01*
X93459938Y-89696912D01*
X93454091Y-89642517D01*
X93403796Y-89507669D01*
X93403795Y-89507668D01*
X93403793Y-89507664D01*
X93317547Y-89392455D01*
X93317544Y-89392452D01*
X93202335Y-89306206D01*
X93202328Y-89306202D01*
X93067482Y-89255908D01*
X93067483Y-89255908D01*
X93007883Y-89249501D01*
X93007881Y-89249500D01*
X93007873Y-89249500D01*
X93007864Y-89249500D01*
X91412129Y-89249500D01*
X91412123Y-89249501D01*
X91352516Y-89255908D01*
X91217671Y-89306202D01*
X91217664Y-89306206D01*
X91102455Y-89392452D01*
X91102452Y-89392455D01*
X91016206Y-89507664D01*
X91016202Y-89507671D01*
X90965908Y-89642516D01*
X90960142Y-89696154D01*
X90933404Y-89760705D01*
X90876012Y-89800553D01*
X90806186Y-89803046D01*
X90746098Y-89767393D01*
X90735278Y-89754021D01*
X90670045Y-89660858D01*
X90509141Y-89499954D01*
X90322734Y-89369432D01*
X90322732Y-89369431D01*
X90116497Y-89273261D01*
X90116488Y-89273258D01*
X89896697Y-89214366D01*
X89896693Y-89214365D01*
X89896692Y-89214365D01*
X89896691Y-89214364D01*
X89896686Y-89214364D01*
X89670002Y-89194532D01*
X89669998Y-89194532D01*
X89443313Y-89214364D01*
X89443302Y-89214366D01*
X89223511Y-89273258D01*
X89223502Y-89273261D01*
X89017267Y-89369431D01*
X89017265Y-89369432D01*
X88830858Y-89499954D01*
X88669954Y-89660858D01*
X88539432Y-89847265D01*
X88539431Y-89847267D01*
X88443261Y-90053502D01*
X88443258Y-90053511D01*
X88384366Y-90273302D01*
X88384364Y-90273313D01*
X88364532Y-90499998D01*
X88364532Y-90500001D01*
X83500500Y-90500001D01*
X83500500Y-71500003D01*
X85444435Y-71500003D01*
X85464630Y-71679249D01*
X85464631Y-71679254D01*
X85524211Y-71849523D01*
X85586850Y-71949211D01*
X85620184Y-72002262D01*
X85747738Y-72129816D01*
X85900478Y-72225789D01*
X86070745Y-72285368D01*
X86070750Y-72285369D01*
X86249996Y-72305565D01*
X86250000Y-72305565D01*
X86250004Y-72305565D01*
X86429249Y-72285369D01*
X86429252Y-72285368D01*
X86429255Y-72285368D01*
X86599522Y-72225789D01*
X86752262Y-72129816D01*
X86879816Y-72002262D01*
X86975789Y-71849522D01*
X87035368Y-71679255D01*
X87053003Y-71522738D01*
X87055565Y-71500003D01*
X87055565Y-71499996D01*
X87035369Y-71320750D01*
X87035368Y-71320745D01*
X87006985Y-71239632D01*
X86975789Y-71150478D01*
X86879816Y-70997738D01*
X86752262Y-70870184D01*
X86599523Y-70774211D01*
X86429254Y-70714631D01*
X86429249Y-70714630D01*
X86250004Y-70694435D01*
X86249996Y-70694435D01*
X86070750Y-70714630D01*
X86070745Y-70714631D01*
X85900476Y-70774211D01*
X85747737Y-70870184D01*
X85620184Y-70997737D01*
X85524211Y-71150476D01*
X85464631Y-71320745D01*
X85464630Y-71320750D01*
X85444435Y-71499996D01*
X85444435Y-71500003D01*
X83500500Y-71500003D01*
X83500500Y-67750001D01*
X86649500Y-67750001D01*
X86649501Y-67750018D01*
X86660000Y-67852796D01*
X86660001Y-67852799D01*
X86705894Y-67991294D01*
X86715186Y-68019334D01*
X86807288Y-68168656D01*
X86931344Y-68292712D01*
X87080666Y-68384814D01*
X87247203Y-68439999D01*
X87349991Y-68450500D01*
X88650008Y-68450499D01*
X88752797Y-68439999D01*
X88919334Y-68384814D01*
X89068656Y-68292712D01*
X89192712Y-68168656D01*
X89284814Y-68019334D01*
X89284814Y-68019331D01*
X89288178Y-68013879D01*
X89340126Y-67967154D01*
X89409088Y-67955931D01*
X89473170Y-67983774D01*
X89481398Y-67991294D01*
X89620213Y-68130109D01*
X89792184Y-68255051D01*
X89792184Y-68255052D01*
X89831793Y-68275233D01*
X89882590Y-68323206D01*
X89899500Y-68385718D01*
X89899500Y-76199902D01*
X89879815Y-76266941D01*
X89863181Y-76287583D01*
X88981465Y-77169298D01*
X88920142Y-77202783D01*
X88907668Y-77204837D01*
X88820750Y-77214630D01*
X88650478Y-77274210D01*
X88497737Y-77370184D01*
X88370184Y-77497737D01*
X88274211Y-77650476D01*
X88214631Y-77820745D01*
X88214630Y-77820750D01*
X88194435Y-77999996D01*
X88194435Y-78000003D01*
X88214630Y-78179249D01*
X88214631Y-78179254D01*
X88274211Y-78349523D01*
X88356525Y-78480524D01*
X88370184Y-78502262D01*
X88497738Y-78629816D01*
X88565959Y-78672682D01*
X88656374Y-78729494D01*
X88655558Y-78730791D01*
X88701354Y-78772138D01*
X88719667Y-78839565D01*
X88698619Y-78906189D01*
X88644893Y-78950858D01*
X88609577Y-78960256D01*
X88570749Y-78964630D01*
X88570745Y-78964631D01*
X88400476Y-79024211D01*
X88247737Y-79120184D01*
X88120184Y-79247737D01*
X88024211Y-79400476D01*
X87964631Y-79570745D01*
X87964630Y-79570750D01*
X87944435Y-79749996D01*
X87944435Y-79750003D01*
X87964630Y-79929249D01*
X87964631Y-79929254D01*
X88024211Y-80099523D01*
X88085241Y-80196651D01*
X88120184Y-80252262D01*
X88247738Y-80379816D01*
X88374198Y-80459276D01*
X88400478Y-80475789D01*
X88497081Y-80509592D01*
X88553858Y-80550314D01*
X88579605Y-80615267D01*
X88575394Y-80660567D01*
X88550788Y-80747047D01*
X88531056Y-80959999D01*
X88531056Y-80960000D01*
X88550788Y-81172954D01*
X88550789Y-81172956D01*
X88609315Y-81378654D01*
X88609321Y-81378669D01*
X88704642Y-81570099D01*
X88704647Y-81570107D01*
X88713980Y-81582465D01*
X89290000Y-81006445D01*
X89290000Y-81012661D01*
X89317259Y-81114394D01*
X89369920Y-81205606D01*
X89444394Y-81280080D01*
X89535606Y-81332741D01*
X89637339Y-81360000D01*
X89643551Y-81360000D01*
X89070086Y-81933465D01*
X89173413Y-81997443D01*
X89173414Y-81997444D01*
X89372837Y-82074700D01*
X89551564Y-82108111D01*
X89613845Y-82139779D01*
X89649118Y-82200092D01*
X89646184Y-82269900D01*
X89605975Y-82327040D01*
X89551564Y-82351889D01*
X89372837Y-82385299D01*
X89173416Y-82462554D01*
X89173410Y-82462557D01*
X89070087Y-82526532D01*
X89070086Y-82526533D01*
X89643553Y-83100000D01*
X89637339Y-83100000D01*
X89535606Y-83127259D01*
X89444394Y-83179920D01*
X89369920Y-83254394D01*
X89317259Y-83345606D01*
X89290000Y-83447339D01*
X89290000Y-83453553D01*
X88713980Y-82877533D01*
X88704646Y-82889893D01*
X88609321Y-83081330D01*
X88609315Y-83081345D01*
X88550789Y-83287043D01*
X88550788Y-83287045D01*
X88531056Y-83499999D01*
X88531056Y-83500000D01*
X88550788Y-83712954D01*
X88550789Y-83712956D01*
X88609315Y-83918654D01*
X88609321Y-83918669D01*
X88704642Y-84110099D01*
X88704647Y-84110107D01*
X88713980Y-84122465D01*
X89290000Y-83546445D01*
X89290000Y-83552661D01*
X89317259Y-83654394D01*
X89369920Y-83745606D01*
X89444394Y-83820080D01*
X89535606Y-83872741D01*
X89637339Y-83900000D01*
X89643553Y-83900000D01*
X89070086Y-84473465D01*
X89173413Y-84537443D01*
X89173414Y-84537444D01*
X89372837Y-84614700D01*
X89551564Y-84648111D01*
X89613845Y-84679779D01*
X89649118Y-84740092D01*
X89646184Y-84809900D01*
X89605975Y-84867040D01*
X89551564Y-84891889D01*
X89372837Y-84925299D01*
X89173416Y-85002554D01*
X89173410Y-85002557D01*
X89070087Y-85066532D01*
X89070086Y-85066533D01*
X89643554Y-85640000D01*
X89637339Y-85640000D01*
X89535606Y-85667259D01*
X89444394Y-85719920D01*
X89369920Y-85794394D01*
X89317259Y-85885606D01*
X89290000Y-85987339D01*
X89290000Y-85993553D01*
X88713980Y-85417533D01*
X88704646Y-85429893D01*
X88609321Y-85621330D01*
X88609315Y-85621345D01*
X88550789Y-85827043D01*
X88550788Y-85827045D01*
X88531056Y-86039999D01*
X88531056Y-86040000D01*
X88550788Y-86252954D01*
X88550789Y-86252956D01*
X88609315Y-86458654D01*
X88609321Y-86458669D01*
X88704642Y-86650099D01*
X88704647Y-86650107D01*
X88713980Y-86662465D01*
X89290000Y-86086445D01*
X89290000Y-86092661D01*
X89317259Y-86194394D01*
X89369920Y-86285606D01*
X89444394Y-86360080D01*
X89535606Y-86412741D01*
X89637339Y-86440000D01*
X89643553Y-86440000D01*
X89070086Y-87013465D01*
X89173413Y-87077443D01*
X89173414Y-87077444D01*
X89372837Y-87154700D01*
X89583068Y-87194000D01*
X89796932Y-87194000D01*
X90007162Y-87154700D01*
X90206585Y-87077444D01*
X90206589Y-87077442D01*
X90309911Y-87013466D01*
X90309911Y-87013465D01*
X89736448Y-86440000D01*
X89742661Y-86440000D01*
X89844394Y-86412741D01*
X89935606Y-86360080D01*
X90010080Y-86285606D01*
X90062741Y-86194394D01*
X90090000Y-86092661D01*
X90090000Y-86086446D01*
X90666018Y-86662464D01*
X90666019Y-86662464D01*
X90675352Y-86650107D01*
X90675355Y-86650102D01*
X90770678Y-86458669D01*
X90770684Y-86458654D01*
X90829210Y-86252956D01*
X90829211Y-86252954D01*
X90848944Y-86040000D01*
X90848944Y-86039999D01*
X90829211Y-85827045D01*
X90829210Y-85827043D01*
X90770684Y-85621345D01*
X90770678Y-85621330D01*
X90675357Y-85429901D01*
X90675355Y-85429898D01*
X90666018Y-85417534D01*
X90090000Y-85993552D01*
X90090000Y-85987339D01*
X90062741Y-85885606D01*
X90010080Y-85794394D01*
X89935606Y-85719920D01*
X89844394Y-85667259D01*
X89742661Y-85640000D01*
X89736447Y-85640000D01*
X90309912Y-85066533D01*
X90206586Y-85002556D01*
X90206585Y-85002555D01*
X90007162Y-84925299D01*
X89828435Y-84891889D01*
X89766154Y-84860221D01*
X89730881Y-84799908D01*
X89733815Y-84730100D01*
X89774024Y-84672960D01*
X89828435Y-84648111D01*
X90007162Y-84614700D01*
X90206585Y-84537444D01*
X90206589Y-84537442D01*
X90309911Y-84473466D01*
X90309911Y-84473465D01*
X89736448Y-83900000D01*
X89742661Y-83900000D01*
X89844394Y-83872741D01*
X89935606Y-83820080D01*
X90010080Y-83745606D01*
X90062741Y-83654394D01*
X90090000Y-83552661D01*
X90090000Y-83546446D01*
X90666018Y-84122464D01*
X90666019Y-84122464D01*
X90675352Y-84110107D01*
X90675355Y-84110102D01*
X90770678Y-83918669D01*
X90770684Y-83918654D01*
X90829210Y-83712956D01*
X90829211Y-83712954D01*
X90848944Y-83500000D01*
X90848944Y-83499999D01*
X90829211Y-83287045D01*
X90829210Y-83287043D01*
X90770684Y-83081345D01*
X90770678Y-83081330D01*
X90713155Y-82965809D01*
X90700894Y-82897024D01*
X90727767Y-82832529D01*
X90785243Y-82792801D01*
X90838038Y-82787317D01*
X90999996Y-82805565D01*
X91000000Y-82805565D01*
X91000004Y-82805565D01*
X91179249Y-82785369D01*
X91179252Y-82785368D01*
X91179255Y-82785368D01*
X91349522Y-82725789D01*
X91502262Y-82629816D01*
X91629816Y-82502262D01*
X91725789Y-82349522D01*
X91785368Y-82179255D01*
X91788900Y-82147912D01*
X91805565Y-82000000D01*
X91805565Y-81999996D01*
X91785369Y-81820750D01*
X91785368Y-81820745D01*
X91746363Y-81709276D01*
X91725789Y-81650478D01*
X91725372Y-81649815D01*
X91675454Y-81570370D01*
X91629816Y-81497738D01*
X91502262Y-81370184D01*
X91442672Y-81332741D01*
X91349523Y-81274211D01*
X91179254Y-81214631D01*
X91179249Y-81214630D01*
X91000004Y-81194435D01*
X91000003Y-81194435D01*
X91000001Y-81194435D01*
X91000000Y-81194435D01*
X90976809Y-81197048D01*
X90907987Y-81184992D01*
X90856608Y-81137642D01*
X90838985Y-81070031D01*
X90839456Y-81062385D01*
X90848944Y-80959999D01*
X90829211Y-80747045D01*
X90829210Y-80747043D01*
X90770684Y-80541345D01*
X90770679Y-80541334D01*
X90764922Y-80529771D01*
X90752662Y-80460985D01*
X90779535Y-80396491D01*
X90837012Y-80356763D01*
X90875923Y-80350500D01*
X95799903Y-80350500D01*
X95866942Y-80370185D01*
X95887584Y-80386819D01*
X96136271Y-80635506D01*
X96169756Y-80696829D01*
X96170410Y-80741205D01*
X96170825Y-80741244D01*
X96170468Y-80745094D01*
X96170481Y-80745959D01*
X96170296Y-80746945D01*
X96150554Y-80959999D01*
X96150554Y-80960000D01*
X96170295Y-81173047D01*
X96170296Y-81173050D01*
X96228846Y-81378835D01*
X96228849Y-81378841D01*
X96288052Y-81497737D01*
X96324219Y-81570370D01*
X96453159Y-81741114D01*
X96611278Y-81885258D01*
X96611283Y-81885261D01*
X96611286Y-81885263D01*
X96793186Y-81997891D01*
X96793187Y-81997891D01*
X96793190Y-81997893D01*
X96992703Y-82075185D01*
X97168845Y-82108111D01*
X97231125Y-82139779D01*
X97266398Y-82200092D01*
X97263464Y-82269900D01*
X97223255Y-82327040D01*
X97168845Y-82351888D01*
X96992703Y-82384815D01*
X96866533Y-82433693D01*
X96793192Y-82462106D01*
X96793186Y-82462108D01*
X96611286Y-82574736D01*
X96611283Y-82574738D01*
X96611279Y-82574740D01*
X96611278Y-82574742D01*
X96542565Y-82637382D01*
X96453158Y-82718887D01*
X96324219Y-82889629D01*
X96228849Y-83081158D01*
X96228846Y-83081164D01*
X96170296Y-83286949D01*
X96170295Y-83286952D01*
X96150554Y-83499999D01*
X96150554Y-83500000D01*
X96170295Y-83713047D01*
X96170296Y-83713050D01*
X96228846Y-83918835D01*
X96228849Y-83918841D01*
X96281317Y-84024211D01*
X96324219Y-84110370D01*
X96453159Y-84281114D01*
X96611278Y-84425258D01*
X96611283Y-84425261D01*
X96611286Y-84425263D01*
X96793186Y-84537891D01*
X96793187Y-84537891D01*
X96793190Y-84537893D01*
X96992703Y-84615185D01*
X97123379Y-84639612D01*
X97185657Y-84671279D01*
X97220930Y-84731591D01*
X97217996Y-84801399D01*
X97177788Y-84858540D01*
X97113069Y-84884871D01*
X97100591Y-84885500D01*
X96608129Y-84885500D01*
X96608123Y-84885501D01*
X96548516Y-84891908D01*
X96413671Y-84942202D01*
X96413664Y-84942206D01*
X96298455Y-85028452D01*
X96298452Y-85028455D01*
X96212206Y-85143664D01*
X96212202Y-85143671D01*
X96161908Y-85278517D01*
X96155501Y-85338116D01*
X96155500Y-85338135D01*
X96155500Y-86741870D01*
X96155501Y-86741876D01*
X96161908Y-86801483D01*
X96212202Y-86936328D01*
X96212206Y-86936335D01*
X96298452Y-87051544D01*
X96298455Y-87051547D01*
X96413664Y-87137793D01*
X96413671Y-87137797D01*
X96548517Y-87188091D01*
X96548516Y-87188091D01*
X96555444Y-87188835D01*
X96608127Y-87194500D01*
X98011872Y-87194499D01*
X98071483Y-87188091D01*
X98206331Y-87137796D01*
X98321546Y-87051546D01*
X98407796Y-86936331D01*
X98458091Y-86801483D01*
X98464424Y-86742577D01*
X98491160Y-86678032D01*
X98548552Y-86638183D01*
X98555583Y-86636072D01*
X98691785Y-86599577D01*
X98741904Y-86570639D01*
X98828716Y-86520520D01*
X98940520Y-86408716D01*
X98940520Y-86408714D01*
X98950728Y-86398507D01*
X98950729Y-86398504D01*
X100349233Y-85000000D01*
X108694435Y-85000000D01*
X108714630Y-85179249D01*
X108714631Y-85179254D01*
X108774211Y-85349523D01*
X108840019Y-85454255D01*
X108870184Y-85502262D01*
X108997738Y-85629816D01*
X109013946Y-85640000D01*
X109141137Y-85719920D01*
X109150478Y-85725789D01*
X109297579Y-85777262D01*
X109320745Y-85785368D01*
X109320750Y-85785369D01*
X109499996Y-85805565D01*
X109500000Y-85805565D01*
X109500004Y-85805565D01*
X109679249Y-85785369D01*
X109679252Y-85785368D01*
X109679255Y-85785368D01*
X109849522Y-85725789D01*
X110002262Y-85629816D01*
X110129816Y-85502262D01*
X110225789Y-85349522D01*
X110225791Y-85349514D01*
X110228508Y-85343875D01*
X110275328Y-85292013D01*
X110342754Y-85273697D01*
X110409379Y-85294741D01*
X110427912Y-85309990D01*
X110497738Y-85379816D01*
X110650478Y-85475789D01*
X110820745Y-85535368D01*
X110820750Y-85535369D01*
X110999996Y-85555565D01*
X111000000Y-85555565D01*
X111000004Y-85555565D01*
X111179249Y-85535369D01*
X111179252Y-85535368D01*
X111179255Y-85535368D01*
X111349522Y-85475789D01*
X111502262Y-85379816D01*
X111607075Y-85275003D01*
X115944435Y-85275003D01*
X115964630Y-85454249D01*
X115964631Y-85454254D01*
X116024211Y-85624523D01*
X116087841Y-85725789D01*
X116120184Y-85777262D01*
X116247738Y-85904816D01*
X116400478Y-86000789D01*
X116512534Y-86039999D01*
X116570745Y-86060368D01*
X116570750Y-86060369D01*
X116749996Y-86080565D01*
X116750000Y-86080565D01*
X116750004Y-86080565D01*
X116929249Y-86060369D01*
X116929252Y-86060368D01*
X116929255Y-86060368D01*
X117099522Y-86000789D01*
X117252262Y-85904816D01*
X117379816Y-85777262D01*
X117475789Y-85624522D01*
X117535368Y-85454255D01*
X117538112Y-85429901D01*
X117555565Y-85275003D01*
X117555565Y-85274996D01*
X117535369Y-85095750D01*
X117535368Y-85095745D01*
X117481642Y-84942206D01*
X117475789Y-84925478D01*
X117379816Y-84772738D01*
X117252262Y-84645184D01*
X117204519Y-84615185D01*
X117099523Y-84549211D01*
X116929254Y-84489631D01*
X116929249Y-84489630D01*
X116750004Y-84469435D01*
X116749996Y-84469435D01*
X116570750Y-84489630D01*
X116570745Y-84489631D01*
X116400476Y-84549211D01*
X116247737Y-84645184D01*
X116120184Y-84772737D01*
X116024211Y-84925476D01*
X115964631Y-85095745D01*
X115964630Y-85095750D01*
X115944435Y-85274996D01*
X115944435Y-85275003D01*
X111607075Y-85275003D01*
X111629816Y-85252262D01*
X111725789Y-85099522D01*
X111785368Y-84929255D01*
X111792516Y-84865815D01*
X111805565Y-84750003D01*
X111805565Y-84749996D01*
X111785369Y-84570750D01*
X111785368Y-84570745D01*
X111756985Y-84489631D01*
X111725789Y-84400478D01*
X111629816Y-84247738D01*
X111502262Y-84120184D01*
X111391821Y-84050789D01*
X111349523Y-84024211D01*
X111208895Y-83975003D01*
X113719435Y-83975003D01*
X113739630Y-84154249D01*
X113739631Y-84154254D01*
X113799211Y-84324523D01*
X113883076Y-84457993D01*
X113895184Y-84477262D01*
X114022738Y-84604816D01*
X114175478Y-84700789D01*
X114259244Y-84730100D01*
X114345745Y-84760368D01*
X114345750Y-84760369D01*
X114524996Y-84780565D01*
X114525000Y-84780565D01*
X114525004Y-84780565D01*
X114704249Y-84760369D01*
X114704252Y-84760368D01*
X114704255Y-84760368D01*
X114874522Y-84700789D01*
X115027262Y-84604816D01*
X115154816Y-84477262D01*
X115250789Y-84324522D01*
X115310368Y-84154255D01*
X115310369Y-84154249D01*
X115330565Y-83975003D01*
X115330565Y-83974996D01*
X115310369Y-83795750D01*
X115310368Y-83795745D01*
X115281398Y-83712954D01*
X115250789Y-83625478D01*
X115154816Y-83472738D01*
X115027262Y-83345184D01*
X114995144Y-83325003D01*
X114874523Y-83249211D01*
X114704254Y-83189631D01*
X114704249Y-83189630D01*
X114525004Y-83169435D01*
X114524996Y-83169435D01*
X114345750Y-83189630D01*
X114345745Y-83189631D01*
X114175476Y-83249211D01*
X114022737Y-83345184D01*
X113895184Y-83472737D01*
X113799211Y-83625476D01*
X113739631Y-83795745D01*
X113739630Y-83795750D01*
X113719435Y-83974996D01*
X113719435Y-83975003D01*
X111208895Y-83975003D01*
X111179254Y-83964631D01*
X111179249Y-83964630D01*
X111000004Y-83944435D01*
X110999996Y-83944435D01*
X110820750Y-83964630D01*
X110820745Y-83964631D01*
X110650476Y-84024211D01*
X110497737Y-84120184D01*
X110370184Y-84247737D01*
X110274205Y-84400485D01*
X110271485Y-84406135D01*
X110224660Y-84457993D01*
X110157232Y-84476302D01*
X110090609Y-84455251D01*
X110072087Y-84440009D01*
X110002262Y-84370184D01*
X109849523Y-84274211D01*
X109679254Y-84214631D01*
X109679249Y-84214630D01*
X109500004Y-84194435D01*
X109499996Y-84194435D01*
X109320750Y-84214630D01*
X109320745Y-84214631D01*
X109150476Y-84274211D01*
X108997737Y-84370184D01*
X108870184Y-84497737D01*
X108774211Y-84650476D01*
X108714631Y-84820745D01*
X108714630Y-84820750D01*
X108694435Y-84999996D01*
X108694435Y-85000000D01*
X100349233Y-85000000D01*
X106063515Y-79285719D01*
X106124836Y-79252236D01*
X106194528Y-79257220D01*
X106250461Y-79299092D01*
X106268235Y-79332446D01*
X106274209Y-79349520D01*
X106367341Y-79497737D01*
X106370184Y-79502262D01*
X106497738Y-79629816D01*
X106650478Y-79725789D01*
X106654409Y-79728259D01*
X106700700Y-79780594D01*
X106711657Y-79847136D01*
X106694435Y-79999995D01*
X106694435Y-80000003D01*
X106714630Y-80179249D01*
X106714631Y-80179254D01*
X106774211Y-80349523D01*
X106819992Y-80422382D01*
X106870184Y-80502262D01*
X106997738Y-80629816D01*
X107150478Y-80725789D01*
X107219678Y-80750003D01*
X107320745Y-80785368D01*
X107320750Y-80785369D01*
X107499996Y-80805565D01*
X107500000Y-80805565D01*
X107500004Y-80805565D01*
X107679249Y-80785369D01*
X107679252Y-80785368D01*
X107679255Y-80785368D01*
X107780322Y-80750003D01*
X115944435Y-80750003D01*
X115964630Y-80929249D01*
X115964631Y-80929254D01*
X116024211Y-81099523D01*
X116086877Y-81199254D01*
X116120184Y-81252262D01*
X116247738Y-81379816D01*
X116400478Y-81475789D01*
X116463202Y-81497737D01*
X116570745Y-81535368D01*
X116570750Y-81535369D01*
X116749996Y-81555565D01*
X116750000Y-81555565D01*
X116750004Y-81555565D01*
X116929249Y-81535369D01*
X116929252Y-81535368D01*
X116929255Y-81535368D01*
X117099522Y-81475789D01*
X117252262Y-81379816D01*
X117379816Y-81252262D01*
X117475789Y-81099522D01*
X117535368Y-80929255D01*
X117535369Y-80929249D01*
X117555565Y-80750003D01*
X117555565Y-80749996D01*
X117535369Y-80570750D01*
X117535368Y-80570745D01*
X117496363Y-80459276D01*
X117475789Y-80400478D01*
X117475372Y-80399815D01*
X117395225Y-80272262D01*
X117379816Y-80247738D01*
X117252262Y-80120184D01*
X117219379Y-80099522D01*
X117099523Y-80024211D01*
X116929254Y-79964631D01*
X116929249Y-79964630D01*
X116750004Y-79944435D01*
X116749996Y-79944435D01*
X116570750Y-79964630D01*
X116570745Y-79964631D01*
X116400476Y-80024211D01*
X116247737Y-80120184D01*
X116120184Y-80247737D01*
X116024211Y-80400476D01*
X115964631Y-80570745D01*
X115964630Y-80570750D01*
X115944435Y-80749996D01*
X115944435Y-80750003D01*
X107780322Y-80750003D01*
X107849522Y-80725789D01*
X108002262Y-80629816D01*
X108129816Y-80502262D01*
X108225789Y-80349522D01*
X108285368Y-80179255D01*
X108285369Y-80179249D01*
X108305565Y-80000003D01*
X108305565Y-79999996D01*
X108285369Y-79820750D01*
X108285368Y-79820745D01*
X108274788Y-79790510D01*
X108225789Y-79650478D01*
X108129816Y-79497738D01*
X108002262Y-79370184D01*
X107969379Y-79349522D01*
X107845590Y-79271740D01*
X107799299Y-79219405D01*
X107788342Y-79152862D01*
X107805565Y-79000002D01*
X107805565Y-78999996D01*
X107785369Y-78820750D01*
X107785368Y-78820745D01*
X107752141Y-78725788D01*
X107725789Y-78650478D01*
X107709622Y-78624749D01*
X107668671Y-78559576D01*
X107629816Y-78497738D01*
X107502262Y-78370184D01*
X107469377Y-78349521D01*
X107349520Y-78274209D01*
X107332446Y-78268235D01*
X107275671Y-78227513D01*
X107249924Y-78162560D01*
X107263381Y-78093999D01*
X107285718Y-78063516D01*
X107518536Y-77830698D01*
X107579857Y-77797215D01*
X107592310Y-77795163D01*
X107679255Y-77785368D01*
X107849522Y-77725789D01*
X108002262Y-77629816D01*
X108129816Y-77502262D01*
X108225789Y-77349522D01*
X108260612Y-77250003D01*
X111694435Y-77250003D01*
X111714630Y-77429249D01*
X111714631Y-77429254D01*
X111774211Y-77599523D01*
X111833849Y-77694435D01*
X111870184Y-77752262D01*
X111997738Y-77879816D01*
X112150478Y-77975789D01*
X112299454Y-78027918D01*
X112320745Y-78035368D01*
X112320750Y-78035369D01*
X112499996Y-78055565D01*
X112500000Y-78055565D01*
X112500004Y-78055565D01*
X112679249Y-78035369D01*
X112679252Y-78035368D01*
X112679255Y-78035368D01*
X112849522Y-77975789D01*
X113002262Y-77879816D01*
X113129816Y-77752262D01*
X113225789Y-77599522D01*
X113285368Y-77429255D01*
X113292024Y-77370184D01*
X113305565Y-77250003D01*
X113305565Y-77249996D01*
X113285369Y-77070750D01*
X113285368Y-77070745D01*
X113243391Y-76950783D01*
X113225789Y-76900478D01*
X113129816Y-76747738D01*
X113129815Y-76747737D01*
X113127700Y-76744371D01*
X113108700Y-76677135D01*
X113129068Y-76610299D01*
X113182335Y-76565085D01*
X113243036Y-76555727D01*
X113243036Y-76555565D01*
X113244089Y-76555565D01*
X113246584Y-76555180D01*
X113250000Y-76555565D01*
X113250000Y-76555564D01*
X113250001Y-76555565D01*
X113250004Y-76555565D01*
X113429249Y-76535369D01*
X113429252Y-76535368D01*
X113429255Y-76535368D01*
X113599522Y-76475789D01*
X113752262Y-76379816D01*
X113879816Y-76252262D01*
X113975789Y-76099522D01*
X114035368Y-75929255D01*
X114035369Y-75929249D01*
X114055565Y-75750003D01*
X114055565Y-75749996D01*
X114035369Y-75570750D01*
X114035368Y-75570745D01*
X113975788Y-75400476D01*
X113903461Y-75285369D01*
X113879816Y-75247738D01*
X113752262Y-75120184D01*
X113599523Y-75024211D01*
X113429254Y-74964631D01*
X113429249Y-74964630D01*
X113250004Y-74944435D01*
X113249996Y-74944435D01*
X113070750Y-74964630D01*
X113070745Y-74964631D01*
X112900476Y-75024211D01*
X112747737Y-75120184D01*
X112620184Y-75247737D01*
X112524211Y-75400476D01*
X112464631Y-75570745D01*
X112464630Y-75570750D01*
X112444435Y-75749996D01*
X112444435Y-75750003D01*
X112464630Y-75929249D01*
X112464631Y-75929254D01*
X112524211Y-76099523D01*
X112622299Y-76255628D01*
X112641299Y-76322865D01*
X112620931Y-76389700D01*
X112567664Y-76434914D01*
X112506964Y-76444274D01*
X112506964Y-76444435D01*
X112505926Y-76444435D01*
X112503424Y-76444820D01*
X112500000Y-76444435D01*
X112499998Y-76444435D01*
X112499997Y-76444435D01*
X112499996Y-76444435D01*
X112320750Y-76464630D01*
X112320745Y-76464631D01*
X112150476Y-76524211D01*
X111997737Y-76620184D01*
X111870184Y-76747737D01*
X111774211Y-76900476D01*
X111714631Y-77070745D01*
X111714630Y-77070750D01*
X111694435Y-77249996D01*
X111694435Y-77250003D01*
X108260612Y-77250003D01*
X108285368Y-77179255D01*
X108286490Y-77169298D01*
X108305565Y-77000003D01*
X108305565Y-76999996D01*
X108285369Y-76820750D01*
X108285368Y-76820745D01*
X108259821Y-76747737D01*
X108225789Y-76650478D01*
X108206626Y-76619981D01*
X108153461Y-76535369D01*
X108129816Y-76497738D01*
X108002262Y-76370184D01*
X107969379Y-76349522D01*
X107849523Y-76274211D01*
X107679254Y-76214631D01*
X107679249Y-76214630D01*
X107500004Y-76194435D01*
X107499996Y-76194435D01*
X107320750Y-76214630D01*
X107320745Y-76214631D01*
X107150476Y-76274211D01*
X106997737Y-76370184D01*
X106870184Y-76497737D01*
X106774210Y-76650478D01*
X106714630Y-76820750D01*
X106704837Y-76907667D01*
X106677770Y-76972081D01*
X106669298Y-76981464D01*
X98551496Y-85099267D01*
X98490173Y-85132752D01*
X98420481Y-85127768D01*
X98364549Y-85085898D01*
X98345596Y-85060581D01*
X98321546Y-85028454D01*
X98321544Y-85028453D01*
X98321544Y-85028452D01*
X98206335Y-84942206D01*
X98206328Y-84942202D01*
X98071482Y-84891908D01*
X98071483Y-84891908D01*
X98011883Y-84885501D01*
X98011881Y-84885500D01*
X98011873Y-84885500D01*
X98011865Y-84885500D01*
X97519409Y-84885500D01*
X97452370Y-84865815D01*
X97406615Y-84813011D01*
X97396671Y-84743853D01*
X97425696Y-84680297D01*
X97484474Y-84642523D01*
X97496605Y-84639615D01*
X97627297Y-84615185D01*
X97826810Y-84537893D01*
X98008722Y-84425258D01*
X98166841Y-84281114D01*
X98295781Y-84110370D01*
X98391151Y-83918840D01*
X98391151Y-83918837D01*
X98391153Y-83918835D01*
X98449703Y-83713050D01*
X98449704Y-83713047D01*
X98449713Y-83712956D01*
X98469446Y-83500000D01*
X98449704Y-83286952D01*
X98422014Y-83189631D01*
X98391153Y-83081164D01*
X98391150Y-83081158D01*
X98329634Y-82957617D01*
X98295781Y-82889630D01*
X98166841Y-82718886D01*
X98008722Y-82574742D01*
X98008716Y-82574738D01*
X98008713Y-82574736D01*
X97826813Y-82462108D01*
X97826807Y-82462106D01*
X97793635Y-82449255D01*
X97627297Y-82384815D01*
X97451153Y-82351888D01*
X97388874Y-82320221D01*
X97353601Y-82259908D01*
X97356535Y-82190100D01*
X97396744Y-82132960D01*
X97451152Y-82108112D01*
X97627297Y-82075185D01*
X97826810Y-81997893D01*
X98008722Y-81885258D01*
X98166841Y-81741114D01*
X98295781Y-81570370D01*
X98391151Y-81378840D01*
X98391151Y-81378837D01*
X98391153Y-81378835D01*
X98437872Y-81214632D01*
X98449704Y-81173048D01*
X98469446Y-80960000D01*
X98467003Y-80933641D01*
X98449704Y-80746952D01*
X98449703Y-80746949D01*
X98391153Y-80541164D01*
X98391150Y-80541158D01*
X98320770Y-80399815D01*
X98295781Y-80349630D01*
X98166841Y-80178886D01*
X98008722Y-80034742D01*
X98008716Y-80034738D01*
X98008713Y-80034736D01*
X97826813Y-79922108D01*
X97826807Y-79922106D01*
X97627297Y-79844815D01*
X97416980Y-79805500D01*
X97203020Y-79805500D01*
X97145540Y-79816244D01*
X97100210Y-79824718D01*
X97030695Y-79817686D01*
X96989745Y-79790510D01*
X96587590Y-79388355D01*
X96587588Y-79388352D01*
X96468717Y-79269481D01*
X96468709Y-79269475D01*
X96366936Y-79210717D01*
X96366934Y-79210716D01*
X96331790Y-79190425D01*
X96331789Y-79190424D01*
X96290106Y-79179255D01*
X96179057Y-79149499D01*
X96020943Y-79149499D01*
X96013347Y-79149499D01*
X96013331Y-79149500D01*
X89332412Y-79149500D01*
X89265373Y-79129815D01*
X89255097Y-79122445D01*
X89252263Y-79120185D01*
X89252262Y-79120184D01*
X89099522Y-79024211D01*
X89093626Y-79020506D01*
X89094440Y-79019210D01*
X89048640Y-78977852D01*
X89030332Y-78910424D01*
X89051385Y-78843802D01*
X89105115Y-78799138D01*
X89140418Y-78789743D01*
X89179255Y-78785368D01*
X89349522Y-78725789D01*
X89502262Y-78629816D01*
X89629816Y-78502262D01*
X89725789Y-78349522D01*
X89785368Y-78179255D01*
X89795161Y-78092329D01*
X89822226Y-78027918D01*
X89830690Y-78018543D01*
X89849230Y-78000003D01*
X95694435Y-78000003D01*
X95714630Y-78179249D01*
X95714631Y-78179254D01*
X95774211Y-78349523D01*
X95856525Y-78480524D01*
X95870184Y-78502262D01*
X95997738Y-78629816D01*
X96150478Y-78725789D01*
X96260988Y-78764458D01*
X96320745Y-78785368D01*
X96320750Y-78785369D01*
X96499996Y-78805565D01*
X96500000Y-78805565D01*
X96500004Y-78805565D01*
X96679249Y-78785369D01*
X96679252Y-78785368D01*
X96679255Y-78785368D01*
X96849522Y-78725789D01*
X97002262Y-78629816D01*
X97007331Y-78624746D01*
X97068649Y-78591261D01*
X97138341Y-78596242D01*
X97194276Y-78638111D01*
X97210573Y-78673297D01*
X97212332Y-78672682D01*
X97274211Y-78849523D01*
X97342259Y-78957820D01*
X97370184Y-79002262D01*
X97497738Y-79129816D01*
X97650478Y-79225789D01*
X97788860Y-79274211D01*
X97820745Y-79285368D01*
X97820750Y-79285369D01*
X97999996Y-79305565D01*
X98000000Y-79305565D01*
X98000004Y-79305565D01*
X98179249Y-79285369D01*
X98179252Y-79285368D01*
X98179255Y-79285368D01*
X98349522Y-79225789D01*
X98502262Y-79129816D01*
X98629816Y-79002262D01*
X98725789Y-78849522D01*
X98785368Y-78679255D01*
X98785369Y-78679249D01*
X98805565Y-78500003D01*
X98805565Y-78499996D01*
X98785369Y-78320750D01*
X98785368Y-78320745D01*
X98746655Y-78210110D01*
X98725789Y-78150478D01*
X98629816Y-77997738D01*
X98502262Y-77870184D01*
X98439424Y-77830700D01*
X98349523Y-77774211D01*
X98179254Y-77714631D01*
X98179249Y-77714630D01*
X98000004Y-77694435D01*
X97999996Y-77694435D01*
X97820750Y-77714630D01*
X97820745Y-77714631D01*
X97650476Y-77774211D01*
X97497738Y-77870183D01*
X97492663Y-77875259D01*
X97431338Y-77908741D01*
X97361647Y-77903753D01*
X97305715Y-77861878D01*
X97289435Y-77826699D01*
X97287668Y-77827318D01*
X97225788Y-77650476D01*
X97172691Y-77565973D01*
X97129816Y-77497738D01*
X97002262Y-77370184D01*
X96969379Y-77349522D01*
X96849523Y-77274211D01*
X96679254Y-77214631D01*
X96679249Y-77214630D01*
X96500004Y-77194435D01*
X96499996Y-77194435D01*
X96320750Y-77214630D01*
X96320745Y-77214631D01*
X96150476Y-77274211D01*
X95997737Y-77370184D01*
X95870184Y-77497737D01*
X95774211Y-77650476D01*
X95714631Y-77820745D01*
X95714630Y-77820750D01*
X95694435Y-77999996D01*
X95694435Y-78000003D01*
X89849230Y-78000003D01*
X90858506Y-76990728D01*
X90858511Y-76990724D01*
X90868714Y-76980520D01*
X90868716Y-76980520D01*
X90980520Y-76868716D01*
X91059577Y-76731784D01*
X91089534Y-76619981D01*
X91100500Y-76579058D01*
X91100500Y-76420943D01*
X91100500Y-73095003D01*
X106444435Y-73095003D01*
X106464630Y-73274249D01*
X106464631Y-73274254D01*
X106524211Y-73444523D01*
X106559070Y-73500000D01*
X106620184Y-73597262D01*
X106747738Y-73724816D01*
X106858885Y-73794654D01*
X106905175Y-73846987D01*
X106915824Y-73916041D01*
X106887449Y-73979889D01*
X106880596Y-73987325D01*
X106870184Y-73997737D01*
X106774211Y-74150476D01*
X106714631Y-74320745D01*
X106714630Y-74320750D01*
X106694435Y-74499996D01*
X106694435Y-74500003D01*
X106714630Y-74679249D01*
X106714631Y-74679254D01*
X106774211Y-74849523D01*
X106833849Y-74944435D01*
X106870184Y-75002262D01*
X106997738Y-75129816D01*
X107150478Y-75225789D01*
X107213202Y-75247737D01*
X107320745Y-75285368D01*
X107320750Y-75285369D01*
X107499996Y-75305565D01*
X107500000Y-75305565D01*
X107500004Y-75305565D01*
X107679249Y-75285369D01*
X107679252Y-75285368D01*
X107679255Y-75285368D01*
X107849522Y-75225789D01*
X108002262Y-75129816D01*
X108129816Y-75002262D01*
X108225789Y-74849522D01*
X108285368Y-74679255D01*
X108285369Y-74679249D01*
X108305565Y-74500003D01*
X108305565Y-74499996D01*
X108285369Y-74320750D01*
X108285368Y-74320745D01*
X108225788Y-74150476D01*
X108161117Y-74047553D01*
X108129816Y-73997738D01*
X108002262Y-73870184D01*
X107891114Y-73800345D01*
X107844824Y-73748011D01*
X107834176Y-73678958D01*
X107862551Y-73615109D01*
X107869397Y-73607680D01*
X107879816Y-73597262D01*
X107975789Y-73444522D01*
X108035368Y-73274255D01*
X108039609Y-73236616D01*
X108055565Y-73095003D01*
X108055565Y-73094996D01*
X108050413Y-73049268D01*
X112444435Y-73049268D01*
X112464630Y-73228514D01*
X112464631Y-73228519D01*
X112524211Y-73398788D01*
X112587805Y-73499996D01*
X112620184Y-73551527D01*
X112747738Y-73679081D01*
X112900478Y-73775054D01*
X113031181Y-73820789D01*
X113070745Y-73834633D01*
X113070750Y-73834634D01*
X113249996Y-73854830D01*
X113250000Y-73854830D01*
X113250004Y-73854830D01*
X113429249Y-73834634D01*
X113429252Y-73834633D01*
X113429255Y-73834633D01*
X113429256Y-73834632D01*
X113429259Y-73834632D01*
X113474460Y-73818814D01*
X113582501Y-73781009D01*
X113652277Y-73777447D01*
X113711134Y-73810369D01*
X118381284Y-78480520D01*
X118381286Y-78480521D01*
X118381290Y-78480524D01*
X118518209Y-78559573D01*
X118518216Y-78559577D01*
X118670943Y-78600501D01*
X118670945Y-78600501D01*
X118836654Y-78600501D01*
X118836670Y-78600500D01*
X119417588Y-78600500D01*
X119484627Y-78620185D01*
X119494903Y-78627555D01*
X119497736Y-78629814D01*
X119497738Y-78629816D01*
X119650478Y-78725789D01*
X119760988Y-78764458D01*
X119780990Y-78771457D01*
X119837766Y-78812179D01*
X119863513Y-78877132D01*
X119850057Y-78945693D01*
X119801670Y-78996096D01*
X119780990Y-79005540D01*
X119670480Y-79044209D01*
X119517737Y-79140184D01*
X119390184Y-79267737D01*
X119294211Y-79420476D01*
X119234631Y-79590745D01*
X119234630Y-79590750D01*
X119214435Y-79769996D01*
X119214435Y-79770003D01*
X119234630Y-79949249D01*
X119234631Y-79949254D01*
X119294211Y-80119523D01*
X119342674Y-80196651D01*
X119361674Y-80263888D01*
X119341306Y-80330723D01*
X119303654Y-80367616D01*
X119267736Y-80390185D01*
X119140184Y-80517737D01*
X119044211Y-80670476D01*
X118984631Y-80840745D01*
X118984630Y-80840750D01*
X118964435Y-81019996D01*
X118964435Y-81020003D01*
X118984630Y-81199249D01*
X118984631Y-81199254D01*
X119044211Y-81369523D01*
X119092674Y-81446651D01*
X119111674Y-81513888D01*
X119091306Y-81580723D01*
X119053654Y-81617616D01*
X119017736Y-81640185D01*
X118890184Y-81767737D01*
X118794211Y-81920476D01*
X118734631Y-82090745D01*
X118734630Y-82090750D01*
X118714435Y-82269996D01*
X118714435Y-82270003D01*
X118734630Y-82449249D01*
X118734632Y-82449257D01*
X118776043Y-82567603D01*
X118779604Y-82637382D01*
X118746683Y-82696238D01*
X118620183Y-82822739D01*
X118524211Y-82975476D01*
X118464631Y-83145745D01*
X118464630Y-83145750D01*
X118444435Y-83324996D01*
X118444435Y-83325003D01*
X118464630Y-83504249D01*
X118464631Y-83504254D01*
X118524211Y-83674523D01*
X118600384Y-83795750D01*
X118620184Y-83827262D01*
X118747738Y-83954816D01*
X118900478Y-84050789D01*
X119069976Y-84110099D01*
X119070745Y-84110368D01*
X119070750Y-84110369D01*
X119249996Y-84130565D01*
X119250000Y-84130565D01*
X119250004Y-84130565D01*
X119429249Y-84110369D01*
X119429252Y-84110368D01*
X119429255Y-84110368D01*
X119599522Y-84050789D01*
X119752262Y-83954816D01*
X119879816Y-83827262D01*
X119975789Y-83674522D01*
X120035368Y-83504255D01*
X120035369Y-83504249D01*
X120055565Y-83325003D01*
X120055565Y-83324996D01*
X120035369Y-83145750D01*
X120035368Y-83145745D01*
X119993956Y-83027396D01*
X119990395Y-82957617D01*
X120023314Y-82898763D01*
X120149816Y-82772262D01*
X120245789Y-82619522D01*
X120305368Y-82449255D01*
X120312629Y-82384815D01*
X120325565Y-82270003D01*
X120325565Y-82269996D01*
X120305369Y-82090750D01*
X120305368Y-82090745D01*
X120273615Y-82000000D01*
X120245789Y-81920478D01*
X120197325Y-81843348D01*
X120178325Y-81776112D01*
X120198693Y-81709276D01*
X120236348Y-81672382D01*
X120238255Y-81671183D01*
X120272262Y-81649816D01*
X120399816Y-81522262D01*
X120495789Y-81369522D01*
X120555368Y-81199255D01*
X120558331Y-81172956D01*
X120575565Y-81020003D01*
X120575565Y-81019996D01*
X120555369Y-80840750D01*
X120555368Y-80840745D01*
X120523615Y-80750000D01*
X120495789Y-80670478D01*
X120492740Y-80665626D01*
X120447325Y-80593348D01*
X120428325Y-80526112D01*
X120448693Y-80459276D01*
X120486348Y-80422382D01*
X120488255Y-80421183D01*
X120522262Y-80399816D01*
X120649816Y-80272262D01*
X120745789Y-80119522D01*
X120805368Y-79949255D01*
X120805911Y-79944435D01*
X120825565Y-79770003D01*
X120825565Y-79769996D01*
X120805369Y-79590750D01*
X120805368Y-79590745D01*
X120745788Y-79420476D01*
X120660894Y-79285369D01*
X120649816Y-79267738D01*
X120522262Y-79140184D01*
X120369522Y-79044211D01*
X120369519Y-79044209D01*
X120239009Y-78998541D01*
X120182233Y-78957820D01*
X120156486Y-78892867D01*
X120169942Y-78824305D01*
X120218330Y-78773902D01*
X120239002Y-78764461D01*
X120349522Y-78725789D01*
X120502262Y-78629816D01*
X120629816Y-78502262D01*
X120725789Y-78349522D01*
X120785368Y-78179255D01*
X120787249Y-78162560D01*
X120805565Y-78000003D01*
X120805565Y-77999996D01*
X120785369Y-77820750D01*
X120785368Y-77820745D01*
X120725788Y-77650475D01*
X120672691Y-77565973D01*
X120653690Y-77498736D01*
X120672691Y-77434027D01*
X120725788Y-77349524D01*
X120752141Y-77274211D01*
X120785368Y-77179255D01*
X120786490Y-77169298D01*
X120805565Y-77000003D01*
X120805565Y-76999996D01*
X120785369Y-76820750D01*
X120785368Y-76820745D01*
X120725788Y-76650475D01*
X120672691Y-76565973D01*
X120653690Y-76498736D01*
X120672691Y-76434027D01*
X120725788Y-76349524D01*
X120725789Y-76349522D01*
X120785368Y-76179255D01*
X120805565Y-76000000D01*
X120797593Y-75929249D01*
X120785369Y-75820750D01*
X120785368Y-75820745D01*
X120725788Y-75650475D01*
X120672691Y-75565973D01*
X120653690Y-75498736D01*
X120672691Y-75434027D01*
X120725788Y-75349524D01*
X120748237Y-75285368D01*
X120785368Y-75179255D01*
X120785369Y-75179249D01*
X120805565Y-75000003D01*
X120805565Y-74999996D01*
X120785369Y-74820750D01*
X120785368Y-74820745D01*
X120725789Y-74650478D01*
X120629816Y-74497738D01*
X120502262Y-74370184D01*
X120349523Y-74274211D01*
X120179254Y-74214631D01*
X120179249Y-74214630D01*
X120000004Y-74194435D01*
X119999996Y-74194435D01*
X119820750Y-74214630D01*
X119820742Y-74214632D01*
X119713158Y-74252277D01*
X119643379Y-74255838D01*
X119582752Y-74221109D01*
X119550525Y-74159115D01*
X119556931Y-74089540D01*
X119584522Y-74047555D01*
X119629816Y-74002262D01*
X119725789Y-73849522D01*
X119785368Y-73679255D01*
X119785388Y-73679080D01*
X119805565Y-73500003D01*
X121444435Y-73500003D01*
X121464630Y-73679249D01*
X121464631Y-73679254D01*
X121524211Y-73849523D01*
X121606126Y-73979889D01*
X121620184Y-74002262D01*
X121747738Y-74129816D01*
X121794367Y-74159115D01*
X121893029Y-74221109D01*
X121900478Y-74225789D01*
X122038860Y-74274211D01*
X122070745Y-74285368D01*
X122070750Y-74285369D01*
X122249996Y-74305565D01*
X122250000Y-74305565D01*
X122250004Y-74305565D01*
X122429249Y-74285369D01*
X122429252Y-74285368D01*
X122429255Y-74285368D01*
X122599522Y-74225789D01*
X122752262Y-74129816D01*
X122879816Y-74002262D01*
X122975789Y-73849522D01*
X123035368Y-73679255D01*
X123035388Y-73679080D01*
X123055565Y-73500003D01*
X123055565Y-73499996D01*
X123035369Y-73320750D01*
X123035368Y-73320745D01*
X123003095Y-73228514D01*
X122975789Y-73150478D01*
X122879816Y-72997738D01*
X122752262Y-72870184D01*
X122726911Y-72854255D01*
X122599523Y-72774211D01*
X122429254Y-72714631D01*
X122429249Y-72714630D01*
X122250004Y-72694435D01*
X122249996Y-72694435D01*
X122070750Y-72714630D01*
X122070745Y-72714631D01*
X121900476Y-72774211D01*
X121747737Y-72870184D01*
X121620184Y-72997737D01*
X121524211Y-73150476D01*
X121464631Y-73320745D01*
X121464630Y-73320750D01*
X121444435Y-73499996D01*
X121444435Y-73500003D01*
X119805565Y-73500003D01*
X119805565Y-73499996D01*
X119785369Y-73320750D01*
X119785368Y-73320748D01*
X119785368Y-73320745D01*
X119778949Y-73302403D01*
X119775387Y-73232626D01*
X119802442Y-73184275D01*
X119800475Y-73182706D01*
X119804815Y-73177263D01*
X119821644Y-73150480D01*
X119900789Y-73024522D01*
X119960368Y-72854255D01*
X119960368Y-72854252D01*
X119962485Y-72848203D01*
X120003207Y-72791427D01*
X120038574Y-72772115D01*
X120099522Y-72750789D01*
X120252262Y-72654816D01*
X120379816Y-72527262D01*
X120475789Y-72374522D01*
X120519716Y-72248983D01*
X120560436Y-72192210D01*
X120622871Y-72166720D01*
X120679255Y-72160368D01*
X120849522Y-72100789D01*
X121002262Y-72004816D01*
X121129816Y-71877262D01*
X121225789Y-71724522D01*
X121285368Y-71554255D01*
X121288919Y-71522738D01*
X121305565Y-71375003D01*
X121305565Y-71374996D01*
X121285369Y-71195750D01*
X121285368Y-71195745D01*
X121269528Y-71150476D01*
X121225789Y-71025478D01*
X121129816Y-70872738D01*
X121002262Y-70745184D01*
X120849523Y-70649211D01*
X120679254Y-70589631D01*
X120679249Y-70589630D01*
X120500004Y-70569435D01*
X120499996Y-70569435D01*
X120320750Y-70589630D01*
X120320745Y-70589631D01*
X120150476Y-70649211D01*
X119997737Y-70745184D01*
X119870184Y-70872737D01*
X119774209Y-71025480D01*
X119730283Y-71151013D01*
X119689562Y-71207789D01*
X119627127Y-71233278D01*
X119570750Y-71239630D01*
X119400478Y-71299210D01*
X119247737Y-71395184D01*
X119120184Y-71522737D01*
X119024210Y-71675478D01*
X118962515Y-71851795D01*
X118921793Y-71908572D01*
X118886429Y-71927882D01*
X118825479Y-71949209D01*
X118672737Y-72045184D01*
X118545184Y-72172737D01*
X118449211Y-72325476D01*
X118389631Y-72495745D01*
X118389630Y-72495750D01*
X118369435Y-72674996D01*
X118369435Y-72675003D01*
X118389631Y-72854252D01*
X118396050Y-72872597D01*
X118399611Y-72942376D01*
X118372571Y-72990736D01*
X118374525Y-72992295D01*
X118370184Y-72997738D01*
X118274209Y-73150480D01*
X118268234Y-73167555D01*
X118227511Y-73224329D01*
X118162557Y-73250074D01*
X118093996Y-73236616D01*
X118063513Y-73214277D01*
X115580700Y-70731465D01*
X115547215Y-70670142D01*
X115545163Y-70657686D01*
X115535368Y-70570745D01*
X115475789Y-70400478D01*
X115379816Y-70247738D01*
X115252262Y-70120184D01*
X115099523Y-70024211D01*
X114929254Y-69964631D01*
X114929249Y-69964630D01*
X114750004Y-69944435D01*
X114749996Y-69944435D01*
X114570750Y-69964630D01*
X114570745Y-69964631D01*
X114400476Y-70024211D01*
X114247737Y-70120184D01*
X114120184Y-70247737D01*
X114024211Y-70400476D01*
X113964631Y-70570745D01*
X113964630Y-70570749D01*
X113951533Y-70686992D01*
X113924466Y-70751406D01*
X113894285Y-70778102D01*
X113747737Y-70870184D01*
X113620184Y-70997737D01*
X113524211Y-71150476D01*
X113464631Y-71320745D01*
X113464630Y-71320749D01*
X113451533Y-71436992D01*
X113424466Y-71501406D01*
X113394285Y-71528102D01*
X113247737Y-71620184D01*
X113120184Y-71747737D01*
X113024211Y-71900476D01*
X112964631Y-72070745D01*
X112964630Y-72070750D01*
X112945560Y-72240009D01*
X112918494Y-72304423D01*
X112888312Y-72331120D01*
X112747737Y-72419449D01*
X112620184Y-72547002D01*
X112524211Y-72699741D01*
X112464631Y-72870010D01*
X112464630Y-72870015D01*
X112444435Y-73049261D01*
X112444435Y-73049268D01*
X108050413Y-73049268D01*
X108035369Y-72915750D01*
X108035368Y-72915745D01*
X108020270Y-72872597D01*
X107975789Y-72745478D01*
X107879816Y-72592738D01*
X107752262Y-72465184D01*
X107599523Y-72369211D01*
X107429254Y-72309631D01*
X107429249Y-72309630D01*
X107250004Y-72289435D01*
X107249996Y-72289435D01*
X107070750Y-72309630D01*
X107070745Y-72309631D01*
X106900476Y-72369211D01*
X106747737Y-72465184D01*
X106620184Y-72592737D01*
X106524211Y-72745476D01*
X106464631Y-72915745D01*
X106464630Y-72915750D01*
X106444435Y-73094996D01*
X106444435Y-73095003D01*
X91100500Y-73095003D01*
X91100500Y-68385718D01*
X91120185Y-68318679D01*
X91168207Y-68275233D01*
X91207815Y-68255052D01*
X91207815Y-68255051D01*
X91207816Y-68255051D01*
X91326728Y-68168657D01*
X91379786Y-68130109D01*
X91379788Y-68130106D01*
X91379792Y-68130104D01*
X91530104Y-67979792D01*
X91649683Y-67815204D01*
X91705011Y-67772540D01*
X91774624Y-67766561D01*
X91836420Y-67799166D01*
X91850313Y-67815199D01*
X91915636Y-67905109D01*
X91969896Y-67979792D01*
X92120213Y-68130109D01*
X92292179Y-68255048D01*
X92292181Y-68255049D01*
X92292184Y-68255051D01*
X92481588Y-68351557D01*
X92683757Y-68417246D01*
X92893713Y-68450500D01*
X92893714Y-68450500D01*
X93106286Y-68450500D01*
X93106287Y-68450500D01*
X93316243Y-68417246D01*
X93518412Y-68351557D01*
X93707816Y-68255051D01*
X93762945Y-68214998D01*
X93879786Y-68130109D01*
X93879788Y-68130106D01*
X93879792Y-68130104D01*
X94030104Y-67979792D01*
X94149683Y-67815204D01*
X94205011Y-67772540D01*
X94274624Y-67766561D01*
X94336420Y-67799166D01*
X94350313Y-67815199D01*
X94415636Y-67905109D01*
X94469896Y-67979792D01*
X94620213Y-68130109D01*
X94792179Y-68255048D01*
X94792181Y-68255049D01*
X94792184Y-68255051D01*
X94981588Y-68351557D01*
X95183757Y-68417246D01*
X95393713Y-68450500D01*
X95393714Y-68450500D01*
X95606286Y-68450500D01*
X95606287Y-68450500D01*
X95816243Y-68417246D01*
X96018412Y-68351557D01*
X96207816Y-68255051D01*
X96262945Y-68214998D01*
X96379786Y-68130109D01*
X96379788Y-68130106D01*
X96379792Y-68130104D01*
X96530104Y-67979792D01*
X96530106Y-67979788D01*
X96530109Y-67979786D01*
X96655048Y-67807820D01*
X96655047Y-67807820D01*
X96655051Y-67807816D01*
X96751557Y-67618412D01*
X96817246Y-67416243D01*
X96850500Y-67206287D01*
X96850500Y-66981286D01*
X101399500Y-66981286D01*
X101432753Y-67191239D01*
X101498444Y-67393414D01*
X101594951Y-67582820D01*
X101719890Y-67754786D01*
X101870213Y-67905109D01*
X102042179Y-68030048D01*
X102042181Y-68030049D01*
X102042184Y-68030051D01*
X102231588Y-68126557D01*
X102433757Y-68192246D01*
X102643713Y-68225500D01*
X102643714Y-68225500D01*
X102856286Y-68225500D01*
X102856287Y-68225500D01*
X103066243Y-68192246D01*
X103268412Y-68126557D01*
X103457816Y-68030051D01*
X103511161Y-67991294D01*
X103629786Y-67905109D01*
X103629788Y-67905106D01*
X103629792Y-67905104D01*
X103780104Y-67754792D01*
X103899683Y-67590204D01*
X103955011Y-67547540D01*
X104024624Y-67541561D01*
X104086420Y-67574166D01*
X104100313Y-67590199D01*
X104203925Y-67732809D01*
X104219896Y-67754792D01*
X104370213Y-67905109D01*
X104542179Y-68030048D01*
X104542181Y-68030049D01*
X104542184Y-68030051D01*
X104731588Y-68126557D01*
X104933757Y-68192246D01*
X105143713Y-68225500D01*
X105143714Y-68225500D01*
X105356286Y-68225500D01*
X105356287Y-68225500D01*
X105566243Y-68192246D01*
X105768412Y-68126557D01*
X105957816Y-68030051D01*
X106129792Y-67905104D01*
X106268604Y-67766291D01*
X106329923Y-67732809D01*
X106399615Y-67737793D01*
X106455549Y-67779664D01*
X106461821Y-67788878D01*
X106465185Y-67794333D01*
X106465186Y-67794334D01*
X106557288Y-67943656D01*
X106681344Y-68067712D01*
X106830666Y-68159814D01*
X106997203Y-68214999D01*
X107099991Y-68225500D01*
X108400008Y-68225499D01*
X108502797Y-68214999D01*
X108669334Y-68159814D01*
X108818656Y-68067712D01*
X108942712Y-67943656D01*
X109034814Y-67794334D01*
X109089999Y-67627797D01*
X109100500Y-67525009D01*
X109100499Y-65974992D01*
X109100010Y-65970209D01*
X109089999Y-65872203D01*
X109089998Y-65872200D01*
X109059891Y-65781344D01*
X109034814Y-65705666D01*
X108942712Y-65556344D01*
X108818656Y-65432288D01*
X108669334Y-65340186D01*
X108502797Y-65285001D01*
X108502795Y-65285000D01*
X108400010Y-65274500D01*
X107099998Y-65274500D01*
X107099981Y-65274501D01*
X106997203Y-65285000D01*
X106997200Y-65285001D01*
X106830668Y-65340185D01*
X106830663Y-65340187D01*
X106681342Y-65432289D01*
X106557289Y-65556342D01*
X106461821Y-65711121D01*
X106409873Y-65757845D01*
X106340910Y-65769068D01*
X106276828Y-65741224D01*
X106268601Y-65733705D01*
X106129786Y-65594890D01*
X105957820Y-65469951D01*
X105768414Y-65373444D01*
X105768413Y-65373443D01*
X105768412Y-65373443D01*
X105566243Y-65307754D01*
X105566241Y-65307753D01*
X105566240Y-65307753D01*
X105404957Y-65282208D01*
X105356287Y-65274500D01*
X105143713Y-65274500D01*
X105095042Y-65282208D01*
X104933760Y-65307753D01*
X104731585Y-65373444D01*
X104542179Y-65469951D01*
X104370213Y-65594890D01*
X104219894Y-65745209D01*
X104219890Y-65745214D01*
X104100318Y-65909793D01*
X104044989Y-65952459D01*
X103975375Y-65958438D01*
X103913580Y-65925833D01*
X103899682Y-65909793D01*
X103780109Y-65745214D01*
X103780105Y-65745209D01*
X103629786Y-65594890D01*
X103457820Y-65469951D01*
X103268414Y-65373444D01*
X103268413Y-65373443D01*
X103268412Y-65373443D01*
X103066243Y-65307754D01*
X103066241Y-65307753D01*
X103066240Y-65307753D01*
X102904957Y-65282208D01*
X102856287Y-65274500D01*
X102643713Y-65274500D01*
X102595042Y-65282208D01*
X102433760Y-65307753D01*
X102231585Y-65373444D01*
X102042179Y-65469951D01*
X101870213Y-65594890D01*
X101719890Y-65745213D01*
X101594951Y-65917179D01*
X101498444Y-66106585D01*
X101432753Y-66308760D01*
X101399500Y-66518713D01*
X101399500Y-66981286D01*
X96850500Y-66981286D01*
X96850500Y-66743713D01*
X96817246Y-66533757D01*
X96751557Y-66331588D01*
X96655051Y-66142184D01*
X96655049Y-66142181D01*
X96655048Y-66142179D01*
X96530109Y-65970213D01*
X96379786Y-65819890D01*
X96207820Y-65694951D01*
X96018414Y-65598444D01*
X96018413Y-65598443D01*
X96018412Y-65598443D01*
X95816243Y-65532754D01*
X95816241Y-65532753D01*
X95816240Y-65532753D01*
X95654957Y-65507208D01*
X95606287Y-65499500D01*
X95393713Y-65499500D01*
X95345042Y-65507208D01*
X95183760Y-65532753D01*
X95183757Y-65532754D01*
X94992505Y-65594896D01*
X94981585Y-65598444D01*
X94792179Y-65694951D01*
X94620213Y-65819890D01*
X94469894Y-65970209D01*
X94469890Y-65970214D01*
X94350318Y-66134793D01*
X94294989Y-66177459D01*
X94225375Y-66183438D01*
X94163580Y-66150833D01*
X94149682Y-66134793D01*
X94030109Y-65970214D01*
X94030105Y-65970209D01*
X93879786Y-65819890D01*
X93707820Y-65694951D01*
X93518414Y-65598444D01*
X93518413Y-65598443D01*
X93518412Y-65598443D01*
X93316243Y-65532754D01*
X93316241Y-65532753D01*
X93316240Y-65532753D01*
X93154957Y-65507208D01*
X93106287Y-65499500D01*
X92893713Y-65499500D01*
X92845042Y-65507208D01*
X92683760Y-65532753D01*
X92683757Y-65532754D01*
X92492505Y-65594896D01*
X92481585Y-65598444D01*
X92292179Y-65694951D01*
X92120213Y-65819890D01*
X91969894Y-65970209D01*
X91969890Y-65970214D01*
X91850318Y-66134793D01*
X91794989Y-66177459D01*
X91725375Y-66183438D01*
X91663580Y-66150833D01*
X91649682Y-66134793D01*
X91530109Y-65970214D01*
X91530105Y-65970209D01*
X91379786Y-65819890D01*
X91207820Y-65694951D01*
X91018414Y-65598444D01*
X91018413Y-65598443D01*
X91018412Y-65598443D01*
X90816243Y-65532754D01*
X90816241Y-65532753D01*
X90816240Y-65532753D01*
X90654957Y-65507208D01*
X90606287Y-65499500D01*
X90393713Y-65499500D01*
X90345042Y-65507208D01*
X90183760Y-65532753D01*
X90183757Y-65532754D01*
X89992505Y-65594896D01*
X89981585Y-65598444D01*
X89792179Y-65694951D01*
X89620215Y-65819889D01*
X89481398Y-65958706D01*
X89420075Y-65992190D01*
X89350383Y-65987206D01*
X89294450Y-65945334D01*
X89288178Y-65936120D01*
X89271939Y-65909793D01*
X89192712Y-65781344D01*
X89068656Y-65657288D01*
X88919334Y-65565186D01*
X88752797Y-65510001D01*
X88752795Y-65510000D01*
X88650010Y-65499500D01*
X87349998Y-65499500D01*
X87349981Y-65499501D01*
X87247203Y-65510000D01*
X87247200Y-65510001D01*
X87080668Y-65565185D01*
X87080663Y-65565187D01*
X86931342Y-65657289D01*
X86807289Y-65781342D01*
X86715187Y-65930663D01*
X86715185Y-65930668D01*
X86705983Y-65958438D01*
X86660001Y-66097203D01*
X86660001Y-66097204D01*
X86660000Y-66097204D01*
X86649500Y-66199983D01*
X86649500Y-67750001D01*
X83500500Y-67750001D01*
X83500500Y-63124500D01*
X83520185Y-63057461D01*
X83572989Y-63011706D01*
X83624500Y-63000500D01*
X111375500Y-63000500D01*
X111442539Y-63020185D01*
G37*
G04 #@! TD.AperFunction*
M02*
