G04 #@! TF.GenerationSoftware,KiCad,Pcbnew,8.0.1*
G04 #@! TF.CreationDate,2025-10-01T17:28:23+01:00*
G04 #@! TF.ProjectId,Mux_bus_Tx_Rx,4d75785f-6275-4735-9f54-785f52782e6b,rev?*
G04 #@! TF.SameCoordinates,Original*
G04 #@! TF.FileFunction,Legend,Top*
G04 #@! TF.FilePolarity,Positive*
%FSLAX46Y46*%
G04 Gerber Fmt 4.6, Leading zero omitted, Abs format (unit mm)*
G04 Created by KiCad (PCBNEW 8.0.1) date 2025-10-01 17:28:23*
%MOMM*%
%LPD*%
G01*
G04 APERTURE LIST*
G04 Aperture macros list*
%AMRoundRect*
0 Rectangle with rounded corners*
0 $1 Rounding radius*
0 $2 $3 $4 $5 $6 $7 $8 $9 X,Y pos of 4 corners*
0 Add a 4 corners polygon primitive as box body*
4,1,4,$2,$3,$4,$5,$6,$7,$8,$9,$2,$3,0*
0 Add four circle primitives for the rounded corners*
1,1,$1+$1,$2,$3*
1,1,$1+$1,$4,$5*
1,1,$1+$1,$6,$7*
1,1,$1+$1,$8,$9*
0 Add four rect primitives between the rounded corners*
20,1,$1+$1,$2,$3,$4,$5,0*
20,1,$1+$1,$4,$5,$6,$7,0*
20,1,$1+$1,$6,$7,$8,$9,0*
20,1,$1+$1,$8,$9,$2,$3,0*%
G04 Aperture macros list end*
%ADD10C,0.100000*%
%ADD11C,0.200000*%
%ADD12C,0.150000*%
%ADD13C,0.080119*%
%ADD14C,0.127000*%
%ADD15C,0.120000*%
%ADD16C,0.203200*%
%ADD17RoundRect,0.102000X0.654000X0.654000X-0.654000X0.654000X-0.654000X-0.654000X0.654000X-0.654000X0*%
%ADD18C,1.512000*%
%ADD19RoundRect,0.250000X0.475000X-0.337500X0.475000X0.337500X-0.475000X0.337500X-0.475000X-0.337500X0*%
%ADD20RoundRect,0.250000X0.350000X0.450000X-0.350000X0.450000X-0.350000X-0.450000X0.350000X-0.450000X0*%
%ADD21R,1.000000X0.400000*%
%ADD22R,1.300000X2.000000*%
%ADD23RoundRect,0.250000X-0.600000X-0.725000X0.600000X-0.725000X0.600000X0.725000X-0.600000X0.725000X0*%
%ADD24O,1.700000X1.950000*%
%ADD25RoundRect,0.150000X0.875000X0.150000X-0.875000X0.150000X-0.875000X-0.150000X0.875000X-0.150000X0*%
%ADD26RoundRect,0.250000X-0.337500X-0.475000X0.337500X-0.475000X0.337500X0.475000X-0.337500X0.475000X0*%
%ADD27RoundRect,0.102000X0.495300X-0.152400X0.495300X0.152400X-0.495300X0.152400X-0.495300X-0.152400X0*%
%ADD28C,1.600000*%
%ADD29R,1.500000X1.500000*%
%ADD30RoundRect,0.102000X-1.075000X-0.475000X1.075000X-0.475000X1.075000X0.475000X-1.075000X0.475000X0*%
%ADD31RoundRect,0.102000X-1.075000X-1.625000X1.075000X-1.625000X1.075000X1.625000X-1.075000X1.625000X0*%
%ADD32RoundRect,0.102000X-1.104900X0.304800X-1.104900X-0.304800X1.104900X-0.304800X1.104900X0.304800X0*%
%ADD33RoundRect,0.250000X-0.450000X0.350000X-0.450000X-0.350000X0.450000X-0.350000X0.450000X0.350000X0*%
%ADD34RoundRect,0.250000X0.600000X0.725000X-0.600000X0.725000X-0.600000X-0.725000X0.600000X-0.725000X0*%
G04 APERTURE END LIST*
D10*
X107303884Y-63872419D02*
X107303884Y-62872419D01*
X107303884Y-62872419D02*
X107637217Y-63586704D01*
X107637217Y-63586704D02*
X107970550Y-62872419D01*
X107970550Y-62872419D02*
X107970550Y-63872419D01*
X108399122Y-62967657D02*
X108446741Y-62920038D01*
X108446741Y-62920038D02*
X108541979Y-62872419D01*
X108541979Y-62872419D02*
X108780074Y-62872419D01*
X108780074Y-62872419D02*
X108875312Y-62920038D01*
X108875312Y-62920038D02*
X108922931Y-62967657D01*
X108922931Y-62967657D02*
X108970550Y-63062895D01*
X108970550Y-63062895D02*
X108970550Y-63158133D01*
X108970550Y-63158133D02*
X108922931Y-63300990D01*
X108922931Y-63300990D02*
X108351503Y-63872419D01*
X108351503Y-63872419D02*
X108970550Y-63872419D01*
X109256265Y-63491466D02*
X109303884Y-63443847D01*
X109303884Y-63443847D02*
X109399122Y-63396228D01*
X109399122Y-63396228D02*
X109589598Y-63491466D01*
X109589598Y-63491466D02*
X109684836Y-63443847D01*
X109684836Y-63443847D02*
X109732455Y-63396228D01*
X88756265Y-63824800D02*
X88899122Y-63872419D01*
X88899122Y-63872419D02*
X89137217Y-63872419D01*
X89137217Y-63872419D02*
X89232455Y-63824800D01*
X89232455Y-63824800D02*
X89280074Y-63777180D01*
X89280074Y-63777180D02*
X89327693Y-63681942D01*
X89327693Y-63681942D02*
X89327693Y-63586704D01*
X89327693Y-63586704D02*
X89280074Y-63491466D01*
X89280074Y-63491466D02*
X89232455Y-63443847D01*
X89232455Y-63443847D02*
X89137217Y-63396228D01*
X89137217Y-63396228D02*
X88946741Y-63348609D01*
X88946741Y-63348609D02*
X88851503Y-63300990D01*
X88851503Y-63300990D02*
X88803884Y-63253371D01*
X88803884Y-63253371D02*
X88756265Y-63158133D01*
X88756265Y-63158133D02*
X88756265Y-63062895D01*
X88756265Y-63062895D02*
X88803884Y-62967657D01*
X88803884Y-62967657D02*
X88851503Y-62920038D01*
X88851503Y-62920038D02*
X88946741Y-62872419D01*
X88946741Y-62872419D02*
X89184836Y-62872419D01*
X89184836Y-62872419D02*
X89327693Y-62920038D01*
X90327693Y-63777180D02*
X90280074Y-63824800D01*
X90280074Y-63824800D02*
X90137217Y-63872419D01*
X90137217Y-63872419D02*
X90041979Y-63872419D01*
X90041979Y-63872419D02*
X89899122Y-63824800D01*
X89899122Y-63824800D02*
X89803884Y-63729561D01*
X89803884Y-63729561D02*
X89756265Y-63634323D01*
X89756265Y-63634323D02*
X89708646Y-63443847D01*
X89708646Y-63443847D02*
X89708646Y-63300990D01*
X89708646Y-63300990D02*
X89756265Y-63110514D01*
X89756265Y-63110514D02*
X89803884Y-63015276D01*
X89803884Y-63015276D02*
X89899122Y-62920038D01*
X89899122Y-62920038D02*
X90041979Y-62872419D01*
X90041979Y-62872419D02*
X90137217Y-62872419D01*
X90137217Y-62872419D02*
X90280074Y-62920038D01*
X90280074Y-62920038D02*
X90327693Y-62967657D01*
X91232455Y-63872419D02*
X90756265Y-63872419D01*
X90756265Y-63872419D02*
X90756265Y-62872419D01*
D11*
X111351816Y-77471560D02*
X111828006Y-77471560D01*
X111220863Y-77757275D02*
X111679197Y-76757275D01*
X111679197Y-76757275D02*
X111887530Y-77757275D01*
X112220863Y-77757275D02*
X112304197Y-77090608D01*
X112280387Y-77281084D02*
X112339911Y-77185846D01*
X112339911Y-77185846D02*
X112393482Y-77138227D01*
X112393482Y-77138227D02*
X112494673Y-77090608D01*
X112494673Y-77090608D02*
X112589911Y-77090608D01*
X112839911Y-77757275D02*
X112923245Y-77090608D01*
X112899435Y-77281084D02*
X112958959Y-77185846D01*
X112958959Y-77185846D02*
X113012530Y-77138227D01*
X113012530Y-77138227D02*
X113113721Y-77090608D01*
X113113721Y-77090608D02*
X113208959Y-77090608D01*
X113887531Y-77757275D02*
X113953007Y-77233465D01*
X113953007Y-77233465D02*
X113917293Y-77138227D01*
X113917293Y-77138227D02*
X113828007Y-77090608D01*
X113828007Y-77090608D02*
X113637531Y-77090608D01*
X113637531Y-77090608D02*
X113536340Y-77138227D01*
X113893483Y-77709656D02*
X113792293Y-77757275D01*
X113792293Y-77757275D02*
X113554197Y-77757275D01*
X113554197Y-77757275D02*
X113464912Y-77709656D01*
X113464912Y-77709656D02*
X113429197Y-77614417D01*
X113429197Y-77614417D02*
X113441102Y-77519179D01*
X113441102Y-77519179D02*
X113500626Y-77423941D01*
X113500626Y-77423941D02*
X113601817Y-77376322D01*
X113601817Y-77376322D02*
X113839912Y-77376322D01*
X113839912Y-77376322D02*
X113941102Y-77328703D01*
X114351817Y-77090608D02*
X114506579Y-77757275D01*
X114828007Y-77090608D02*
X114506579Y-77757275D01*
X114506579Y-77757275D02*
X114381579Y-77995370D01*
X114381579Y-77995370D02*
X114328007Y-78042989D01*
X114328007Y-78042989D02*
X114226817Y-78090608D01*
X111578006Y-78795790D02*
X111488720Y-78748171D01*
X111488720Y-78748171D02*
X111447054Y-78700552D01*
X111447054Y-78700552D02*
X111411339Y-78605314D01*
X111411339Y-78605314D02*
X111417292Y-78557695D01*
X111417292Y-78557695D02*
X111476816Y-78462457D01*
X111476816Y-78462457D02*
X111530387Y-78414838D01*
X111530387Y-78414838D02*
X111631578Y-78367219D01*
X111631578Y-78367219D02*
X111822054Y-78367219D01*
X111822054Y-78367219D02*
X111911339Y-78414838D01*
X111911339Y-78414838D02*
X111953006Y-78462457D01*
X111953006Y-78462457D02*
X111988720Y-78557695D01*
X111988720Y-78557695D02*
X111982768Y-78605314D01*
X111982768Y-78605314D02*
X111923244Y-78700552D01*
X111923244Y-78700552D02*
X111869673Y-78748171D01*
X111869673Y-78748171D02*
X111768482Y-78795790D01*
X111768482Y-78795790D02*
X111578006Y-78795790D01*
X111578006Y-78795790D02*
X111476816Y-78843409D01*
X111476816Y-78843409D02*
X111423244Y-78891028D01*
X111423244Y-78891028D02*
X111363720Y-78986266D01*
X111363720Y-78986266D02*
X111339911Y-79176742D01*
X111339911Y-79176742D02*
X111375625Y-79271980D01*
X111375625Y-79271980D02*
X111417292Y-79319600D01*
X111417292Y-79319600D02*
X111506578Y-79367219D01*
X111506578Y-79367219D02*
X111697054Y-79367219D01*
X111697054Y-79367219D02*
X111798244Y-79319600D01*
X111798244Y-79319600D02*
X111851816Y-79271980D01*
X111851816Y-79271980D02*
X111911339Y-79176742D01*
X111911339Y-79176742D02*
X111935149Y-78986266D01*
X111935149Y-78986266D02*
X111899435Y-78891028D01*
X111899435Y-78891028D02*
X111857768Y-78843409D01*
X111857768Y-78843409D02*
X111768482Y-78795790D01*
X113661340Y-79271980D02*
X113607768Y-79319600D01*
X113607768Y-79319600D02*
X113458959Y-79367219D01*
X113458959Y-79367219D02*
X113363721Y-79367219D01*
X113363721Y-79367219D02*
X113226816Y-79319600D01*
X113226816Y-79319600D02*
X113143483Y-79224361D01*
X113143483Y-79224361D02*
X113107768Y-79129123D01*
X113107768Y-79129123D02*
X113083959Y-78938647D01*
X113083959Y-78938647D02*
X113101816Y-78795790D01*
X113101816Y-78795790D02*
X113173244Y-78605314D01*
X113173244Y-78605314D02*
X113232768Y-78510076D01*
X113232768Y-78510076D02*
X113339911Y-78414838D01*
X113339911Y-78414838D02*
X113488721Y-78367219D01*
X113488721Y-78367219D02*
X113583959Y-78367219D01*
X113583959Y-78367219D02*
X113720864Y-78414838D01*
X113720864Y-78414838D02*
X113762530Y-78462457D01*
X114078006Y-79367219D02*
X114203006Y-78367219D01*
X114143483Y-78843409D02*
X114714911Y-78843409D01*
X114649435Y-79367219D02*
X114774435Y-78367219D01*
D10*
X86661027Y-62872419D02*
X86994360Y-63872419D01*
X86994360Y-63872419D02*
X87327693Y-62872419D01*
X87661027Y-63491466D02*
X88422932Y-63491466D01*
X88041979Y-63872419D02*
X88041979Y-63110514D01*
X95327693Y-62920038D02*
X95232455Y-62872419D01*
X95232455Y-62872419D02*
X95089598Y-62872419D01*
X95089598Y-62872419D02*
X94946741Y-62920038D01*
X94946741Y-62920038D02*
X94851503Y-63015276D01*
X94851503Y-63015276D02*
X94803884Y-63110514D01*
X94803884Y-63110514D02*
X94756265Y-63300990D01*
X94756265Y-63300990D02*
X94756265Y-63443847D01*
X94756265Y-63443847D02*
X94803884Y-63634323D01*
X94803884Y-63634323D02*
X94851503Y-63729561D01*
X94851503Y-63729561D02*
X94946741Y-63824800D01*
X94946741Y-63824800D02*
X95089598Y-63872419D01*
X95089598Y-63872419D02*
X95184836Y-63872419D01*
X95184836Y-63872419D02*
X95327693Y-63824800D01*
X95327693Y-63824800D02*
X95375312Y-63777180D01*
X95375312Y-63777180D02*
X95375312Y-63443847D01*
X95375312Y-63443847D02*
X95184836Y-63443847D01*
X95803884Y-63872419D02*
X95803884Y-62872419D01*
X95803884Y-62872419D02*
X96375312Y-63872419D01*
X96375312Y-63872419D02*
X96375312Y-62872419D01*
X96851503Y-63872419D02*
X96851503Y-62872419D01*
X96851503Y-62872419D02*
X97089598Y-62872419D01*
X97089598Y-62872419D02*
X97232455Y-62920038D01*
X97232455Y-62920038D02*
X97327693Y-63015276D01*
X97327693Y-63015276D02*
X97375312Y-63110514D01*
X97375312Y-63110514D02*
X97422931Y-63300990D01*
X97422931Y-63300990D02*
X97422931Y-63443847D01*
X97422931Y-63443847D02*
X97375312Y-63634323D01*
X97375312Y-63634323D02*
X97327693Y-63729561D01*
X97327693Y-63729561D02*
X97232455Y-63824800D01*
X97232455Y-63824800D02*
X97089598Y-63872419D01*
X97089598Y-63872419D02*
X96851503Y-63872419D01*
X101803884Y-63872419D02*
X101803884Y-62872419D01*
X101803884Y-62872419D02*
X102137217Y-63586704D01*
X102137217Y-63586704D02*
X102470550Y-62872419D01*
X102470550Y-62872419D02*
X102470550Y-63872419D01*
X103470550Y-63872419D02*
X102899122Y-63872419D01*
X103184836Y-63872419D02*
X103184836Y-62872419D01*
X103184836Y-62872419D02*
X103089598Y-63015276D01*
X103089598Y-63015276D02*
X102994360Y-63110514D01*
X102994360Y-63110514D02*
X102899122Y-63158133D01*
X103756265Y-63491466D02*
X103803884Y-63443847D01*
X103803884Y-63443847D02*
X103899122Y-63396228D01*
X103899122Y-63396228D02*
X104089598Y-63491466D01*
X104089598Y-63491466D02*
X104184836Y-63443847D01*
X104184836Y-63443847D02*
X104232455Y-63396228D01*
X91756265Y-63824800D02*
X91899122Y-63872419D01*
X91899122Y-63872419D02*
X92137217Y-63872419D01*
X92137217Y-63872419D02*
X92232455Y-63824800D01*
X92232455Y-63824800D02*
X92280074Y-63777180D01*
X92280074Y-63777180D02*
X92327693Y-63681942D01*
X92327693Y-63681942D02*
X92327693Y-63586704D01*
X92327693Y-63586704D02*
X92280074Y-63491466D01*
X92280074Y-63491466D02*
X92232455Y-63443847D01*
X92232455Y-63443847D02*
X92137217Y-63396228D01*
X92137217Y-63396228D02*
X91946741Y-63348609D01*
X91946741Y-63348609D02*
X91851503Y-63300990D01*
X91851503Y-63300990D02*
X91803884Y-63253371D01*
X91803884Y-63253371D02*
X91756265Y-63158133D01*
X91756265Y-63158133D02*
X91756265Y-63062895D01*
X91756265Y-63062895D02*
X91803884Y-62967657D01*
X91803884Y-62967657D02*
X91851503Y-62920038D01*
X91851503Y-62920038D02*
X91946741Y-62872419D01*
X91946741Y-62872419D02*
X92184836Y-62872419D01*
X92184836Y-62872419D02*
X92327693Y-62920038D01*
X92756265Y-63872419D02*
X92756265Y-62872419D01*
X92756265Y-62872419D02*
X92994360Y-62872419D01*
X92994360Y-62872419D02*
X93137217Y-62920038D01*
X93137217Y-62920038D02*
X93232455Y-63015276D01*
X93232455Y-63015276D02*
X93280074Y-63110514D01*
X93280074Y-63110514D02*
X93327693Y-63300990D01*
X93327693Y-63300990D02*
X93327693Y-63443847D01*
X93327693Y-63443847D02*
X93280074Y-63634323D01*
X93280074Y-63634323D02*
X93232455Y-63729561D01*
X93232455Y-63729561D02*
X93137217Y-63824800D01*
X93137217Y-63824800D02*
X92994360Y-63872419D01*
X92994360Y-63872419D02*
X92756265Y-63872419D01*
X93708646Y-63586704D02*
X94184836Y-63586704D01*
X93613408Y-63872419D02*
X93946741Y-62872419D01*
X93946741Y-62872419D02*
X94280074Y-63872419D01*
X85006265Y-92586704D02*
X85482455Y-92586704D01*
X84911027Y-92872419D02*
X85244360Y-91872419D01*
X85244360Y-91872419D02*
X85577693Y-92872419D01*
X85911027Y-92872419D02*
X85911027Y-91872419D01*
X85911027Y-92253371D02*
X86006265Y-92205752D01*
X86006265Y-92205752D02*
X86196741Y-92205752D01*
X86196741Y-92205752D02*
X86291979Y-92253371D01*
X86291979Y-92253371D02*
X86339598Y-92300990D01*
X86339598Y-92300990D02*
X86387217Y-92396228D01*
X86387217Y-92396228D02*
X86387217Y-92681942D01*
X86387217Y-92681942D02*
X86339598Y-92777180D01*
X86339598Y-92777180D02*
X86291979Y-92824800D01*
X86291979Y-92824800D02*
X86196741Y-92872419D01*
X86196741Y-92872419D02*
X86006265Y-92872419D01*
X86006265Y-92872419D02*
X85911027Y-92824800D01*
X86768170Y-92824800D02*
X86863408Y-92872419D01*
X86863408Y-92872419D02*
X87053884Y-92872419D01*
X87053884Y-92872419D02*
X87149122Y-92824800D01*
X87149122Y-92824800D02*
X87196741Y-92729561D01*
X87196741Y-92729561D02*
X87196741Y-92681942D01*
X87196741Y-92681942D02*
X87149122Y-92586704D01*
X87149122Y-92586704D02*
X87053884Y-92539085D01*
X87053884Y-92539085D02*
X86911027Y-92539085D01*
X86911027Y-92539085D02*
X86815789Y-92491466D01*
X86815789Y-92491466D02*
X86768170Y-92396228D01*
X86768170Y-92396228D02*
X86768170Y-92348609D01*
X86768170Y-92348609D02*
X86815789Y-92253371D01*
X86815789Y-92253371D02*
X86911027Y-92205752D01*
X86911027Y-92205752D02*
X87053884Y-92205752D01*
X87053884Y-92205752D02*
X87149122Y-92253371D01*
X87768170Y-92872419D02*
X87672932Y-92824800D01*
X87672932Y-92824800D02*
X87625313Y-92777180D01*
X87625313Y-92777180D02*
X87577694Y-92681942D01*
X87577694Y-92681942D02*
X87577694Y-92396228D01*
X87577694Y-92396228D02*
X87625313Y-92300990D01*
X87625313Y-92300990D02*
X87672932Y-92253371D01*
X87672932Y-92253371D02*
X87768170Y-92205752D01*
X87768170Y-92205752D02*
X87911027Y-92205752D01*
X87911027Y-92205752D02*
X88006265Y-92253371D01*
X88006265Y-92253371D02*
X88053884Y-92300990D01*
X88053884Y-92300990D02*
X88101503Y-92396228D01*
X88101503Y-92396228D02*
X88101503Y-92681942D01*
X88101503Y-92681942D02*
X88053884Y-92777180D01*
X88053884Y-92777180D02*
X88006265Y-92824800D01*
X88006265Y-92824800D02*
X87911027Y-92872419D01*
X87911027Y-92872419D02*
X87768170Y-92872419D01*
X88672932Y-92872419D02*
X88577694Y-92824800D01*
X88577694Y-92824800D02*
X88530075Y-92729561D01*
X88530075Y-92729561D02*
X88530075Y-91872419D01*
X89482456Y-92205752D02*
X89482456Y-92872419D01*
X89053885Y-92205752D02*
X89053885Y-92729561D01*
X89053885Y-92729561D02*
X89101504Y-92824800D01*
X89101504Y-92824800D02*
X89196742Y-92872419D01*
X89196742Y-92872419D02*
X89339599Y-92872419D01*
X89339599Y-92872419D02*
X89434837Y-92824800D01*
X89434837Y-92824800D02*
X89482456Y-92777180D01*
X89815790Y-92205752D02*
X90196742Y-92205752D01*
X89958647Y-91872419D02*
X89958647Y-92729561D01*
X89958647Y-92729561D02*
X90006266Y-92824800D01*
X90006266Y-92824800D02*
X90101504Y-92872419D01*
X90101504Y-92872419D02*
X90196742Y-92872419D01*
X90911028Y-92824800D02*
X90815790Y-92872419D01*
X90815790Y-92872419D02*
X90625314Y-92872419D01*
X90625314Y-92872419D02*
X90530076Y-92824800D01*
X90530076Y-92824800D02*
X90482457Y-92729561D01*
X90482457Y-92729561D02*
X90482457Y-92348609D01*
X90482457Y-92348609D02*
X90530076Y-92253371D01*
X90530076Y-92253371D02*
X90625314Y-92205752D01*
X90625314Y-92205752D02*
X90815790Y-92205752D01*
X90815790Y-92205752D02*
X90911028Y-92253371D01*
X90911028Y-92253371D02*
X90958647Y-92348609D01*
X90958647Y-92348609D02*
X90958647Y-92443847D01*
X90958647Y-92443847D02*
X90482457Y-92539085D01*
X91387219Y-92491466D02*
X92149124Y-92491466D01*
X92625314Y-92491466D02*
X93387219Y-92491466D01*
X93863409Y-92491466D02*
X94625314Y-92491466D01*
X95434837Y-92348609D02*
X95577694Y-92396228D01*
X95577694Y-92396228D02*
X95625313Y-92443847D01*
X95625313Y-92443847D02*
X95672932Y-92539085D01*
X95672932Y-92539085D02*
X95672932Y-92681942D01*
X95672932Y-92681942D02*
X95625313Y-92777180D01*
X95625313Y-92777180D02*
X95577694Y-92824800D01*
X95577694Y-92824800D02*
X95482456Y-92872419D01*
X95482456Y-92872419D02*
X95101504Y-92872419D01*
X95101504Y-92872419D02*
X95101504Y-91872419D01*
X95101504Y-91872419D02*
X95434837Y-91872419D01*
X95434837Y-91872419D02*
X95530075Y-91920038D01*
X95530075Y-91920038D02*
X95577694Y-91967657D01*
X95577694Y-91967657D02*
X95625313Y-92062895D01*
X95625313Y-92062895D02*
X95625313Y-92158133D01*
X95625313Y-92158133D02*
X95577694Y-92253371D01*
X95577694Y-92253371D02*
X95530075Y-92300990D01*
X95530075Y-92300990D02*
X95434837Y-92348609D01*
X95434837Y-92348609D02*
X95101504Y-92348609D01*
X96101504Y-92872419D02*
X96101504Y-92205752D01*
X96101504Y-92396228D02*
X96149123Y-92300990D01*
X96149123Y-92300990D02*
X96196742Y-92253371D01*
X96196742Y-92253371D02*
X96291980Y-92205752D01*
X96291980Y-92205752D02*
X96387218Y-92205752D01*
X96720552Y-92872419D02*
X96720552Y-92205752D01*
X96720552Y-91872419D02*
X96672933Y-91920038D01*
X96672933Y-91920038D02*
X96720552Y-91967657D01*
X96720552Y-91967657D02*
X96768171Y-91920038D01*
X96768171Y-91920038D02*
X96720552Y-91872419D01*
X96720552Y-91872419D02*
X96720552Y-91967657D01*
X97625313Y-92872419D02*
X97625313Y-91872419D01*
X97625313Y-92824800D02*
X97530075Y-92872419D01*
X97530075Y-92872419D02*
X97339599Y-92872419D01*
X97339599Y-92872419D02*
X97244361Y-92824800D01*
X97244361Y-92824800D02*
X97196742Y-92777180D01*
X97196742Y-92777180D02*
X97149123Y-92681942D01*
X97149123Y-92681942D02*
X97149123Y-92396228D01*
X97149123Y-92396228D02*
X97196742Y-92300990D01*
X97196742Y-92300990D02*
X97244361Y-92253371D01*
X97244361Y-92253371D02*
X97339599Y-92205752D01*
X97339599Y-92205752D02*
X97530075Y-92205752D01*
X97530075Y-92205752D02*
X97625313Y-92253371D01*
X98530075Y-92205752D02*
X98530075Y-93015276D01*
X98530075Y-93015276D02*
X98482456Y-93110514D01*
X98482456Y-93110514D02*
X98434837Y-93158133D01*
X98434837Y-93158133D02*
X98339599Y-93205752D01*
X98339599Y-93205752D02*
X98196742Y-93205752D01*
X98196742Y-93205752D02*
X98101504Y-93158133D01*
X98530075Y-92824800D02*
X98434837Y-92872419D01*
X98434837Y-92872419D02*
X98244361Y-92872419D01*
X98244361Y-92872419D02*
X98149123Y-92824800D01*
X98149123Y-92824800D02*
X98101504Y-92777180D01*
X98101504Y-92777180D02*
X98053885Y-92681942D01*
X98053885Y-92681942D02*
X98053885Y-92396228D01*
X98053885Y-92396228D02*
X98101504Y-92300990D01*
X98101504Y-92300990D02*
X98149123Y-92253371D01*
X98149123Y-92253371D02*
X98244361Y-92205752D01*
X98244361Y-92205752D02*
X98434837Y-92205752D01*
X98434837Y-92205752D02*
X98530075Y-92253371D01*
X99387218Y-92824800D02*
X99291980Y-92872419D01*
X99291980Y-92872419D02*
X99101504Y-92872419D01*
X99101504Y-92872419D02*
X99006266Y-92824800D01*
X99006266Y-92824800D02*
X98958647Y-92729561D01*
X98958647Y-92729561D02*
X98958647Y-92348609D01*
X98958647Y-92348609D02*
X99006266Y-92253371D01*
X99006266Y-92253371D02*
X99101504Y-92205752D01*
X99101504Y-92205752D02*
X99291980Y-92205752D01*
X99291980Y-92205752D02*
X99387218Y-92253371D01*
X99387218Y-92253371D02*
X99434837Y-92348609D01*
X99434837Y-92348609D02*
X99434837Y-92443847D01*
X99434837Y-92443847D02*
X98958647Y-92539085D01*
D12*
X93548095Y-78697200D02*
X93690952Y-78744819D01*
X93690952Y-78744819D02*
X93929047Y-78744819D01*
X93929047Y-78744819D02*
X94024285Y-78697200D01*
X94024285Y-78697200D02*
X94071904Y-78649580D01*
X94071904Y-78649580D02*
X94119523Y-78554342D01*
X94119523Y-78554342D02*
X94119523Y-78459104D01*
X94119523Y-78459104D02*
X94071904Y-78363866D01*
X94071904Y-78363866D02*
X94024285Y-78316247D01*
X94024285Y-78316247D02*
X93929047Y-78268628D01*
X93929047Y-78268628D02*
X93738571Y-78221009D01*
X93738571Y-78221009D02*
X93643333Y-78173390D01*
X93643333Y-78173390D02*
X93595714Y-78125771D01*
X93595714Y-78125771D02*
X93548095Y-78030533D01*
X93548095Y-78030533D02*
X93548095Y-77935295D01*
X93548095Y-77935295D02*
X93595714Y-77840057D01*
X93595714Y-77840057D02*
X93643333Y-77792438D01*
X93643333Y-77792438D02*
X93738571Y-77744819D01*
X93738571Y-77744819D02*
X93976666Y-77744819D01*
X93976666Y-77744819D02*
X94119523Y-77792438D01*
X95071904Y-78744819D02*
X94500476Y-78744819D01*
X94786190Y-78744819D02*
X94786190Y-77744819D01*
X94786190Y-77744819D02*
X94690952Y-77887676D01*
X94690952Y-77887676D02*
X94595714Y-77982914D01*
X94595714Y-77982914D02*
X94500476Y-78030533D01*
X87833333Y-71859580D02*
X87785714Y-71907200D01*
X87785714Y-71907200D02*
X87642857Y-71954819D01*
X87642857Y-71954819D02*
X87547619Y-71954819D01*
X87547619Y-71954819D02*
X87404762Y-71907200D01*
X87404762Y-71907200D02*
X87309524Y-71811961D01*
X87309524Y-71811961D02*
X87261905Y-71716723D01*
X87261905Y-71716723D02*
X87214286Y-71526247D01*
X87214286Y-71526247D02*
X87214286Y-71383390D01*
X87214286Y-71383390D02*
X87261905Y-71192914D01*
X87261905Y-71192914D02*
X87309524Y-71097676D01*
X87309524Y-71097676D02*
X87404762Y-71002438D01*
X87404762Y-71002438D02*
X87547619Y-70954819D01*
X87547619Y-70954819D02*
X87642857Y-70954819D01*
X87642857Y-70954819D02*
X87785714Y-71002438D01*
X87785714Y-71002438D02*
X87833333Y-71050057D01*
X88785714Y-71954819D02*
X88214286Y-71954819D01*
X88500000Y-71954819D02*
X88500000Y-70954819D01*
X88500000Y-70954819D02*
X88404762Y-71097676D01*
X88404762Y-71097676D02*
X88309524Y-71192914D01*
X88309524Y-71192914D02*
X88214286Y-71240533D01*
X83833333Y-82954819D02*
X83500000Y-82478628D01*
X83261905Y-82954819D02*
X83261905Y-81954819D01*
X83261905Y-81954819D02*
X83642857Y-81954819D01*
X83642857Y-81954819D02*
X83738095Y-82002438D01*
X83738095Y-82002438D02*
X83785714Y-82050057D01*
X83785714Y-82050057D02*
X83833333Y-82145295D01*
X83833333Y-82145295D02*
X83833333Y-82288152D01*
X83833333Y-82288152D02*
X83785714Y-82383390D01*
X83785714Y-82383390D02*
X83738095Y-82431009D01*
X83738095Y-82431009D02*
X83642857Y-82478628D01*
X83642857Y-82478628D02*
X83261905Y-82478628D01*
X84738095Y-81954819D02*
X84261905Y-81954819D01*
X84261905Y-81954819D02*
X84214286Y-82431009D01*
X84214286Y-82431009D02*
X84261905Y-82383390D01*
X84261905Y-82383390D02*
X84357143Y-82335771D01*
X84357143Y-82335771D02*
X84595238Y-82335771D01*
X84595238Y-82335771D02*
X84690476Y-82383390D01*
X84690476Y-82383390D02*
X84738095Y-82431009D01*
X84738095Y-82431009D02*
X84785714Y-82526247D01*
X84785714Y-82526247D02*
X84785714Y-82764342D01*
X84785714Y-82764342D02*
X84738095Y-82859580D01*
X84738095Y-82859580D02*
X84690476Y-82907200D01*
X84690476Y-82907200D02*
X84595238Y-82954819D01*
X84595238Y-82954819D02*
X84357143Y-82954819D01*
X84357143Y-82954819D02*
X84261905Y-82907200D01*
X84261905Y-82907200D02*
X84214286Y-82859580D01*
X118844819Y-78333333D02*
X119559104Y-78333333D01*
X119559104Y-78333333D02*
X119701961Y-78380952D01*
X119701961Y-78380952D02*
X119797200Y-78476190D01*
X119797200Y-78476190D02*
X119844819Y-78619047D01*
X119844819Y-78619047D02*
X119844819Y-78714285D01*
X119178152Y-77428571D02*
X119844819Y-77428571D01*
X118797200Y-77666666D02*
X119511485Y-77904761D01*
X119511485Y-77904761D02*
X119511485Y-77285714D01*
X97166666Y-70954819D02*
X97166666Y-71669104D01*
X97166666Y-71669104D02*
X97119047Y-71811961D01*
X97119047Y-71811961D02*
X97023809Y-71907200D01*
X97023809Y-71907200D02*
X96880952Y-71954819D01*
X96880952Y-71954819D02*
X96785714Y-71954819D01*
X97547619Y-70954819D02*
X98166666Y-70954819D01*
X98166666Y-70954819D02*
X97833333Y-71335771D01*
X97833333Y-71335771D02*
X97976190Y-71335771D01*
X97976190Y-71335771D02*
X98071428Y-71383390D01*
X98071428Y-71383390D02*
X98119047Y-71431009D01*
X98119047Y-71431009D02*
X98166666Y-71526247D01*
X98166666Y-71526247D02*
X98166666Y-71764342D01*
X98166666Y-71764342D02*
X98119047Y-71859580D01*
X98119047Y-71859580D02*
X98071428Y-71907200D01*
X98071428Y-71907200D02*
X97976190Y-71954819D01*
X97976190Y-71954819D02*
X97690476Y-71954819D01*
X97690476Y-71954819D02*
X97595238Y-71907200D01*
X97595238Y-71907200D02*
X97547619Y-71859580D01*
X83833333Y-77954819D02*
X83500000Y-77478628D01*
X83261905Y-77954819D02*
X83261905Y-76954819D01*
X83261905Y-76954819D02*
X83642857Y-76954819D01*
X83642857Y-76954819D02*
X83738095Y-77002438D01*
X83738095Y-77002438D02*
X83785714Y-77050057D01*
X83785714Y-77050057D02*
X83833333Y-77145295D01*
X83833333Y-77145295D02*
X83833333Y-77288152D01*
X83833333Y-77288152D02*
X83785714Y-77383390D01*
X83785714Y-77383390D02*
X83738095Y-77431009D01*
X83738095Y-77431009D02*
X83642857Y-77478628D01*
X83642857Y-77478628D02*
X83261905Y-77478628D01*
X84166667Y-76954819D02*
X84785714Y-76954819D01*
X84785714Y-76954819D02*
X84452381Y-77335771D01*
X84452381Y-77335771D02*
X84595238Y-77335771D01*
X84595238Y-77335771D02*
X84690476Y-77383390D01*
X84690476Y-77383390D02*
X84738095Y-77431009D01*
X84738095Y-77431009D02*
X84785714Y-77526247D01*
X84785714Y-77526247D02*
X84785714Y-77764342D01*
X84785714Y-77764342D02*
X84738095Y-77859580D01*
X84738095Y-77859580D02*
X84690476Y-77907200D01*
X84690476Y-77907200D02*
X84595238Y-77954819D01*
X84595238Y-77954819D02*
X84309524Y-77954819D01*
X84309524Y-77954819D02*
X84214286Y-77907200D01*
X84214286Y-77907200D02*
X84166667Y-77859580D01*
X103988095Y-80554819D02*
X103988095Y-81364342D01*
X103988095Y-81364342D02*
X104035714Y-81459580D01*
X104035714Y-81459580D02*
X104083333Y-81507200D01*
X104083333Y-81507200D02*
X104178571Y-81554819D01*
X104178571Y-81554819D02*
X104369047Y-81554819D01*
X104369047Y-81554819D02*
X104464285Y-81507200D01*
X104464285Y-81507200D02*
X104511904Y-81459580D01*
X104511904Y-81459580D02*
X104559523Y-81364342D01*
X104559523Y-81364342D02*
X104559523Y-80554819D01*
X104988095Y-80650057D02*
X105035714Y-80602438D01*
X105035714Y-80602438D02*
X105130952Y-80554819D01*
X105130952Y-80554819D02*
X105369047Y-80554819D01*
X105369047Y-80554819D02*
X105464285Y-80602438D01*
X105464285Y-80602438D02*
X105511904Y-80650057D01*
X105511904Y-80650057D02*
X105559523Y-80745295D01*
X105559523Y-80745295D02*
X105559523Y-80840533D01*
X105559523Y-80840533D02*
X105511904Y-80983390D01*
X105511904Y-80983390D02*
X104940476Y-81554819D01*
X104940476Y-81554819D02*
X105559523Y-81554819D01*
X83833333Y-80454819D02*
X83500000Y-79978628D01*
X83261905Y-80454819D02*
X83261905Y-79454819D01*
X83261905Y-79454819D02*
X83642857Y-79454819D01*
X83642857Y-79454819D02*
X83738095Y-79502438D01*
X83738095Y-79502438D02*
X83785714Y-79550057D01*
X83785714Y-79550057D02*
X83833333Y-79645295D01*
X83833333Y-79645295D02*
X83833333Y-79788152D01*
X83833333Y-79788152D02*
X83785714Y-79883390D01*
X83785714Y-79883390D02*
X83738095Y-79931009D01*
X83738095Y-79931009D02*
X83642857Y-79978628D01*
X83642857Y-79978628D02*
X83261905Y-79978628D01*
X84690476Y-79788152D02*
X84690476Y-80454819D01*
X84452381Y-79407200D02*
X84214286Y-80121485D01*
X84214286Y-80121485D02*
X84833333Y-80121485D01*
X83833333Y-87859580D02*
X83785714Y-87907200D01*
X83785714Y-87907200D02*
X83642857Y-87954819D01*
X83642857Y-87954819D02*
X83547619Y-87954819D01*
X83547619Y-87954819D02*
X83404762Y-87907200D01*
X83404762Y-87907200D02*
X83309524Y-87811961D01*
X83309524Y-87811961D02*
X83261905Y-87716723D01*
X83261905Y-87716723D02*
X83214286Y-87526247D01*
X83214286Y-87526247D02*
X83214286Y-87383390D01*
X83214286Y-87383390D02*
X83261905Y-87192914D01*
X83261905Y-87192914D02*
X83309524Y-87097676D01*
X83309524Y-87097676D02*
X83404762Y-87002438D01*
X83404762Y-87002438D02*
X83547619Y-86954819D01*
X83547619Y-86954819D02*
X83642857Y-86954819D01*
X83642857Y-86954819D02*
X83785714Y-87002438D01*
X83785714Y-87002438D02*
X83833333Y-87050057D01*
X84214286Y-87050057D02*
X84261905Y-87002438D01*
X84261905Y-87002438D02*
X84357143Y-86954819D01*
X84357143Y-86954819D02*
X84595238Y-86954819D01*
X84595238Y-86954819D02*
X84690476Y-87002438D01*
X84690476Y-87002438D02*
X84738095Y-87050057D01*
X84738095Y-87050057D02*
X84785714Y-87145295D01*
X84785714Y-87145295D02*
X84785714Y-87240533D01*
X84785714Y-87240533D02*
X84738095Y-87383390D01*
X84738095Y-87383390D02*
X84166667Y-87954819D01*
X84166667Y-87954819D02*
X84785714Y-87954819D01*
X119166666Y-70862295D02*
X119166666Y-70062295D01*
X119166666Y-70062295D02*
X119433332Y-70633723D01*
X119433332Y-70633723D02*
X119699999Y-70062295D01*
X119699999Y-70062295D02*
X119699999Y-70862295D01*
X120423809Y-70328961D02*
X120423809Y-70862295D01*
X120080952Y-70328961D02*
X120080952Y-70748009D01*
X120080952Y-70748009D02*
X120119047Y-70824200D01*
X120119047Y-70824200D02*
X120195237Y-70862295D01*
X120195237Y-70862295D02*
X120309523Y-70862295D01*
X120309523Y-70862295D02*
X120385714Y-70824200D01*
X120385714Y-70824200D02*
X120423809Y-70786104D01*
X120728571Y-70862295D02*
X121147619Y-70328961D01*
X120728571Y-70328961D02*
X121147619Y-70862295D01*
X121414285Y-70138485D02*
X121452381Y-70100390D01*
X121452381Y-70100390D02*
X121528571Y-70062295D01*
X121528571Y-70062295D02*
X121719047Y-70062295D01*
X121719047Y-70062295D02*
X121795238Y-70100390D01*
X121795238Y-70100390D02*
X121833333Y-70138485D01*
X121833333Y-70138485D02*
X121871428Y-70214676D01*
X121871428Y-70214676D02*
X121871428Y-70290866D01*
X121871428Y-70290866D02*
X121833333Y-70405152D01*
X121833333Y-70405152D02*
X121376190Y-70862295D01*
X121376190Y-70862295D02*
X121871428Y-70862295D01*
X103833333Y-92859580D02*
X103785714Y-92907200D01*
X103785714Y-92907200D02*
X103642857Y-92954819D01*
X103642857Y-92954819D02*
X103547619Y-92954819D01*
X103547619Y-92954819D02*
X103404762Y-92907200D01*
X103404762Y-92907200D02*
X103309524Y-92811961D01*
X103309524Y-92811961D02*
X103261905Y-92716723D01*
X103261905Y-92716723D02*
X103214286Y-92526247D01*
X103214286Y-92526247D02*
X103214286Y-92383390D01*
X103214286Y-92383390D02*
X103261905Y-92192914D01*
X103261905Y-92192914D02*
X103309524Y-92097676D01*
X103309524Y-92097676D02*
X103404762Y-92002438D01*
X103404762Y-92002438D02*
X103547619Y-91954819D01*
X103547619Y-91954819D02*
X103642857Y-91954819D01*
X103642857Y-91954819D02*
X103785714Y-92002438D01*
X103785714Y-92002438D02*
X103833333Y-92050057D01*
X104166667Y-91954819D02*
X104785714Y-91954819D01*
X104785714Y-91954819D02*
X104452381Y-92335771D01*
X104452381Y-92335771D02*
X104595238Y-92335771D01*
X104595238Y-92335771D02*
X104690476Y-92383390D01*
X104690476Y-92383390D02*
X104738095Y-92431009D01*
X104738095Y-92431009D02*
X104785714Y-92526247D01*
X104785714Y-92526247D02*
X104785714Y-92764342D01*
X104785714Y-92764342D02*
X104738095Y-92859580D01*
X104738095Y-92859580D02*
X104690476Y-92907200D01*
X104690476Y-92907200D02*
X104595238Y-92954819D01*
X104595238Y-92954819D02*
X104309524Y-92954819D01*
X104309524Y-92954819D02*
X104214286Y-92907200D01*
X104214286Y-92907200D02*
X104166667Y-92859580D01*
X84166667Y-90907200D02*
X84309524Y-90954819D01*
X84309524Y-90954819D02*
X84547619Y-90954819D01*
X84547619Y-90954819D02*
X84642857Y-90907200D01*
X84642857Y-90907200D02*
X84690476Y-90859580D01*
X84690476Y-90859580D02*
X84738095Y-90764342D01*
X84738095Y-90764342D02*
X84738095Y-90669104D01*
X84738095Y-90669104D02*
X84690476Y-90573866D01*
X84690476Y-90573866D02*
X84642857Y-90526247D01*
X84642857Y-90526247D02*
X84547619Y-90478628D01*
X84547619Y-90478628D02*
X84357143Y-90431009D01*
X84357143Y-90431009D02*
X84261905Y-90383390D01*
X84261905Y-90383390D02*
X84214286Y-90335771D01*
X84214286Y-90335771D02*
X84166667Y-90240533D01*
X84166667Y-90240533D02*
X84166667Y-90145295D01*
X84166667Y-90145295D02*
X84214286Y-90050057D01*
X84214286Y-90050057D02*
X84261905Y-90002438D01*
X84261905Y-90002438D02*
X84357143Y-89954819D01*
X84357143Y-89954819D02*
X84595238Y-89954819D01*
X84595238Y-89954819D02*
X84738095Y-90002438D01*
X85071429Y-89954819D02*
X85309524Y-90954819D01*
X85309524Y-90954819D02*
X85500000Y-90240533D01*
X85500000Y-90240533D02*
X85690476Y-90954819D01*
X85690476Y-90954819D02*
X85928572Y-89954819D01*
X86833333Y-90954819D02*
X86261905Y-90954819D01*
X86547619Y-90954819D02*
X86547619Y-89954819D01*
X86547619Y-89954819D02*
X86452381Y-90097676D01*
X86452381Y-90097676D02*
X86357143Y-90192914D01*
X86357143Y-90192914D02*
X86261905Y-90240533D01*
X110862295Y-84333333D02*
X110062295Y-84333333D01*
X110062295Y-84333333D02*
X110633723Y-84066667D01*
X110633723Y-84066667D02*
X110062295Y-83800000D01*
X110062295Y-83800000D02*
X110862295Y-83800000D01*
X110328961Y-83076190D02*
X110862295Y-83076190D01*
X110328961Y-83419047D02*
X110748009Y-83419047D01*
X110748009Y-83419047D02*
X110824200Y-83380952D01*
X110824200Y-83380952D02*
X110862295Y-83304762D01*
X110862295Y-83304762D02*
X110862295Y-83190476D01*
X110862295Y-83190476D02*
X110824200Y-83114285D01*
X110824200Y-83114285D02*
X110786104Y-83076190D01*
X110862295Y-82771428D02*
X110328961Y-82352380D01*
X110328961Y-82771428D02*
X110862295Y-82352380D01*
X110862295Y-81628571D02*
X110862295Y-82085714D01*
X110862295Y-81857142D02*
X110062295Y-81857142D01*
X110062295Y-81857142D02*
X110176580Y-81933333D01*
X110176580Y-81933333D02*
X110252771Y-82009523D01*
X110252771Y-82009523D02*
X110290866Y-82085714D01*
X92998810Y-70700819D02*
X92998810Y-69700819D01*
X94046428Y-70605580D02*
X93998809Y-70653200D01*
X93998809Y-70653200D02*
X93855952Y-70700819D01*
X93855952Y-70700819D02*
X93760714Y-70700819D01*
X93760714Y-70700819D02*
X93617857Y-70653200D01*
X93617857Y-70653200D02*
X93522619Y-70557961D01*
X93522619Y-70557961D02*
X93475000Y-70462723D01*
X93475000Y-70462723D02*
X93427381Y-70272247D01*
X93427381Y-70272247D02*
X93427381Y-70129390D01*
X93427381Y-70129390D02*
X93475000Y-69938914D01*
X93475000Y-69938914D02*
X93522619Y-69843676D01*
X93522619Y-69843676D02*
X93617857Y-69748438D01*
X93617857Y-69748438D02*
X93760714Y-69700819D01*
X93760714Y-69700819D02*
X93855952Y-69700819D01*
X93855952Y-69700819D02*
X93998809Y-69748438D01*
X93998809Y-69748438D02*
X94046428Y-69796057D01*
X94998809Y-70700819D02*
X94427381Y-70700819D01*
X94713095Y-70700819D02*
X94713095Y-69700819D01*
X94713095Y-69700819D02*
X94617857Y-69843676D01*
X94617857Y-69843676D02*
X94522619Y-69938914D01*
X94522619Y-69938914D02*
X94427381Y-69986533D01*
X83833333Y-85454819D02*
X83500000Y-84978628D01*
X83261905Y-85454819D02*
X83261905Y-84454819D01*
X83261905Y-84454819D02*
X83642857Y-84454819D01*
X83642857Y-84454819D02*
X83738095Y-84502438D01*
X83738095Y-84502438D02*
X83785714Y-84550057D01*
X83785714Y-84550057D02*
X83833333Y-84645295D01*
X83833333Y-84645295D02*
X83833333Y-84788152D01*
X83833333Y-84788152D02*
X83785714Y-84883390D01*
X83785714Y-84883390D02*
X83738095Y-84931009D01*
X83738095Y-84931009D02*
X83642857Y-84978628D01*
X83642857Y-84978628D02*
X83261905Y-84978628D01*
X84785714Y-85454819D02*
X84214286Y-85454819D01*
X84500000Y-85454819D02*
X84500000Y-84454819D01*
X84500000Y-84454819D02*
X84404762Y-84597676D01*
X84404762Y-84597676D02*
X84309524Y-84692914D01*
X84309524Y-84692914D02*
X84214286Y-84740533D01*
D13*
X106877117Y-87489797D02*
X107136551Y-87489797D01*
X107136551Y-87489797D02*
X107167073Y-87474537D01*
X107167073Y-87474537D02*
X107182334Y-87459276D01*
X107182334Y-87459276D02*
X107197594Y-87428754D01*
X107197594Y-87428754D02*
X107197594Y-87367711D01*
X107197594Y-87367711D02*
X107182334Y-87337189D01*
X107182334Y-87337189D02*
X107167073Y-87321929D01*
X107167073Y-87321929D02*
X107136551Y-87306668D01*
X107136551Y-87306668D02*
X106877117Y-87306668D01*
X106877117Y-87184581D02*
X106877117Y-86986191D01*
X106877117Y-86986191D02*
X106999204Y-87093016D01*
X106999204Y-87093016D02*
X106999204Y-87047234D01*
X106999204Y-87047234D02*
X107014465Y-87016712D01*
X107014465Y-87016712D02*
X107029725Y-87001451D01*
X107029725Y-87001451D02*
X107060247Y-86986191D01*
X107060247Y-86986191D02*
X107136551Y-86986191D01*
X107136551Y-86986191D02*
X107167073Y-87001451D01*
X107167073Y-87001451D02*
X107182334Y-87016712D01*
X107182334Y-87016712D02*
X107197594Y-87047234D01*
X107197594Y-87047234D02*
X107197594Y-87138799D01*
X107197594Y-87138799D02*
X107182334Y-87169320D01*
X107182334Y-87169320D02*
X107167073Y-87184581D01*
D12*
X110333333Y-92859580D02*
X110285714Y-92907200D01*
X110285714Y-92907200D02*
X110142857Y-92954819D01*
X110142857Y-92954819D02*
X110047619Y-92954819D01*
X110047619Y-92954819D02*
X109904762Y-92907200D01*
X109904762Y-92907200D02*
X109809524Y-92811961D01*
X109809524Y-92811961D02*
X109761905Y-92716723D01*
X109761905Y-92716723D02*
X109714286Y-92526247D01*
X109714286Y-92526247D02*
X109714286Y-92383390D01*
X109714286Y-92383390D02*
X109761905Y-92192914D01*
X109761905Y-92192914D02*
X109809524Y-92097676D01*
X109809524Y-92097676D02*
X109904762Y-92002438D01*
X109904762Y-92002438D02*
X110047619Y-91954819D01*
X110047619Y-91954819D02*
X110142857Y-91954819D01*
X110142857Y-91954819D02*
X110285714Y-92002438D01*
X110285714Y-92002438D02*
X110333333Y-92050057D01*
X111238095Y-91954819D02*
X110761905Y-91954819D01*
X110761905Y-91954819D02*
X110714286Y-92431009D01*
X110714286Y-92431009D02*
X110761905Y-92383390D01*
X110761905Y-92383390D02*
X110857143Y-92335771D01*
X110857143Y-92335771D02*
X111095238Y-92335771D01*
X111095238Y-92335771D02*
X111190476Y-92383390D01*
X111190476Y-92383390D02*
X111238095Y-92431009D01*
X111238095Y-92431009D02*
X111285714Y-92526247D01*
X111285714Y-92526247D02*
X111285714Y-92764342D01*
X111285714Y-92764342D02*
X111238095Y-92859580D01*
X111238095Y-92859580D02*
X111190476Y-92907200D01*
X111190476Y-92907200D02*
X111095238Y-92954819D01*
X111095238Y-92954819D02*
X110857143Y-92954819D01*
X110857143Y-92954819D02*
X110761905Y-92907200D01*
X110761905Y-92907200D02*
X110714286Y-92859580D01*
X83833333Y-71954819D02*
X83500000Y-71478628D01*
X83261905Y-71954819D02*
X83261905Y-70954819D01*
X83261905Y-70954819D02*
X83642857Y-70954819D01*
X83642857Y-70954819D02*
X83738095Y-71002438D01*
X83738095Y-71002438D02*
X83785714Y-71050057D01*
X83785714Y-71050057D02*
X83833333Y-71145295D01*
X83833333Y-71145295D02*
X83833333Y-71288152D01*
X83833333Y-71288152D02*
X83785714Y-71383390D01*
X83785714Y-71383390D02*
X83738095Y-71431009D01*
X83738095Y-71431009D02*
X83642857Y-71478628D01*
X83642857Y-71478628D02*
X83261905Y-71478628D01*
X84214286Y-71050057D02*
X84261905Y-71002438D01*
X84261905Y-71002438D02*
X84357143Y-70954819D01*
X84357143Y-70954819D02*
X84595238Y-70954819D01*
X84595238Y-70954819D02*
X84690476Y-71002438D01*
X84690476Y-71002438D02*
X84738095Y-71050057D01*
X84738095Y-71050057D02*
X84785714Y-71145295D01*
X84785714Y-71145295D02*
X84785714Y-71240533D01*
X84785714Y-71240533D02*
X84738095Y-71383390D01*
X84738095Y-71383390D02*
X84166667Y-71954819D01*
X84166667Y-71954819D02*
X84785714Y-71954819D01*
X104916666Y-69004819D02*
X104916666Y-69719104D01*
X104916666Y-69719104D02*
X104869047Y-69861961D01*
X104869047Y-69861961D02*
X104773809Y-69957200D01*
X104773809Y-69957200D02*
X104630952Y-70004819D01*
X104630952Y-70004819D02*
X104535714Y-70004819D01*
X105869047Y-69004819D02*
X105392857Y-69004819D01*
X105392857Y-69004819D02*
X105345238Y-69481009D01*
X105345238Y-69481009D02*
X105392857Y-69433390D01*
X105392857Y-69433390D02*
X105488095Y-69385771D01*
X105488095Y-69385771D02*
X105726190Y-69385771D01*
X105726190Y-69385771D02*
X105821428Y-69433390D01*
X105821428Y-69433390D02*
X105869047Y-69481009D01*
X105869047Y-69481009D02*
X105916666Y-69576247D01*
X105916666Y-69576247D02*
X105916666Y-69814342D01*
X105916666Y-69814342D02*
X105869047Y-69909580D01*
X105869047Y-69909580D02*
X105821428Y-69957200D01*
X105821428Y-69957200D02*
X105726190Y-70004819D01*
X105726190Y-70004819D02*
X105488095Y-70004819D01*
X105488095Y-70004819D02*
X105392857Y-69957200D01*
X105392857Y-69957200D02*
X105345238Y-69909580D01*
D14*
X90400000Y-79190000D02*
X90400000Y-79980000D01*
X90400000Y-87020000D02*
X90400000Y-87810000D01*
X90400000Y-87810000D02*
X96600000Y-87810000D01*
X96600000Y-79190000D02*
X90400000Y-79190000D01*
X96600000Y-79980000D02*
X96600000Y-79190000D01*
X96600000Y-87810000D02*
X96600000Y-87020000D01*
D11*
X98850000Y-86350000D02*
G75*
G02*
X98650000Y-86350000I-100000J0D01*
G01*
X98650000Y-86350000D02*
G75*
G02*
X98850000Y-86350000I100000J0D01*
G01*
D15*
X87265000Y-74261252D02*
X87265000Y-73738748D01*
X88735000Y-74261252D02*
X88735000Y-73738748D01*
X86727064Y-81765000D02*
X86272936Y-81765000D01*
X86727064Y-83235000D02*
X86272936Y-83235000D01*
X120590000Y-82460000D02*
X121180000Y-82460000D01*
X120830000Y-70790000D02*
X120830000Y-71560000D01*
X120830000Y-71560000D02*
X121180000Y-71560000D01*
X120830000Y-84440000D02*
X120830000Y-85210000D01*
X120830000Y-85210000D02*
X122880000Y-85210000D01*
X121180000Y-71560000D02*
X121180000Y-73540000D01*
X121180000Y-82460000D02*
X121180000Y-84440000D01*
X121180000Y-84440000D02*
X120830000Y-84440000D01*
X122880000Y-70790000D02*
X120830000Y-70790000D01*
X124700000Y-85210000D02*
X125000000Y-85210000D01*
X125000000Y-70790000D02*
X124700000Y-70790000D01*
X125000000Y-71590000D02*
X125000000Y-70790000D01*
X125000000Y-84410000D02*
X126300000Y-84410000D01*
X125000000Y-85210000D02*
X125000000Y-84410000D01*
X126300000Y-71590000D02*
X125000000Y-71590000D01*
X126300000Y-84410000D02*
X126300000Y-71590000D01*
X85150000Y-64225000D02*
X85150000Y-65475000D01*
X85440000Y-64515000D02*
X85440000Y-70485000D01*
X85440000Y-70485000D02*
X98060000Y-70485000D01*
X85450000Y-64525000D02*
X85450000Y-65275000D01*
X85450000Y-65275000D02*
X87250000Y-65275000D01*
X85450000Y-66775000D02*
X86200000Y-66775000D01*
X86200000Y-66775000D02*
X86200000Y-69725000D01*
X86200000Y-69725000D02*
X91750000Y-69725000D01*
X86400000Y-64225000D02*
X85150000Y-64225000D01*
X87250000Y-64525000D02*
X85450000Y-64525000D01*
X87250000Y-65275000D02*
X87250000Y-64525000D01*
X88750000Y-64525000D02*
X88750000Y-65275000D01*
X88750000Y-65275000D02*
X94750000Y-65275000D01*
X94750000Y-64525000D02*
X88750000Y-64525000D01*
X94750000Y-65275000D02*
X94750000Y-64525000D01*
X96250000Y-64525000D02*
X96250000Y-65275000D01*
X96250000Y-65275000D02*
X98050000Y-65275000D01*
X97300000Y-66775000D02*
X97300000Y-69725000D01*
X97300000Y-69725000D02*
X91750000Y-69725000D01*
X98050000Y-64525000D02*
X96250000Y-64525000D01*
X98050000Y-65275000D02*
X98050000Y-64525000D01*
X98050000Y-66775000D02*
X97300000Y-66775000D01*
X98060000Y-64515000D02*
X85440000Y-64515000D01*
X98060000Y-70485000D02*
X98060000Y-64515000D01*
X86727064Y-76765000D02*
X86272936Y-76765000D01*
X86727064Y-78235000D02*
X86272936Y-78235000D01*
X100890000Y-69740000D02*
X100890000Y-69995000D01*
X100890000Y-80260000D02*
X100890000Y-80005000D01*
X104750000Y-69740000D02*
X100890000Y-69740000D01*
X104750000Y-69740000D02*
X108610000Y-69740000D01*
X104750000Y-80260000D02*
X100890000Y-80260000D01*
X104750000Y-80260000D02*
X108610000Y-80260000D01*
X108610000Y-69740000D02*
X108610000Y-69995000D01*
X108610000Y-80260000D02*
X108610000Y-80005000D01*
X109802500Y-80475000D02*
X109122500Y-80475000D01*
X109462500Y-80005000D01*
X109802500Y-80475000D01*
G36*
X109802500Y-80475000D02*
G01*
X109122500Y-80475000D01*
X109462500Y-80005000D01*
X109802500Y-80475000D01*
G37*
X86727064Y-79265000D02*
X86272936Y-79265000D01*
X86727064Y-80735000D02*
X86272936Y-80735000D01*
X86238748Y-86765000D02*
X86761252Y-86765000D01*
X86238748Y-88235000D02*
X86761252Y-88235000D01*
D14*
X112600000Y-70300000D02*
X117400000Y-70300000D01*
X112600000Y-75700000D02*
X115800000Y-75700000D01*
X115800000Y-75700000D02*
X116200000Y-76100000D01*
X116200000Y-76100000D02*
X116600000Y-75700000D01*
X116600000Y-75700000D02*
X117400000Y-75700000D01*
D15*
X104120000Y-89500000D02*
G75*
G02*
X98880000Y-89500000I-2620000J0D01*
G01*
X98880000Y-89500000D02*
G75*
G02*
X104120000Y-89500000I2620000J0D01*
G01*
X87100000Y-89140000D02*
X97320000Y-89140000D01*
X97320000Y-91860000D01*
X87100000Y-91860000D01*
X87100000Y-89140000D01*
D14*
X112600000Y-80300000D02*
X117400000Y-80300000D01*
X112600000Y-85700000D02*
X115800000Y-85700000D01*
X115800000Y-85700000D02*
X116200000Y-86100000D01*
X116200000Y-86100000D02*
X116600000Y-85700000D01*
X116600000Y-85700000D02*
X117400000Y-85700000D01*
X92250000Y-71750000D02*
X95750000Y-71750000D01*
X92250000Y-78250000D02*
X95750000Y-78250000D01*
X95750000Y-71750000D02*
X95750000Y-72990000D01*
X95750000Y-78250000D02*
X95750000Y-77010000D01*
D11*
X89500000Y-72700000D02*
G75*
G02*
X89300000Y-72700000I-100000J0D01*
G01*
X89300000Y-72700000D02*
G75*
G02*
X89500000Y-72700000I100000J0D01*
G01*
D15*
X86727064Y-84265000D02*
X86272936Y-84265000D01*
X86727064Y-85735000D02*
X86272936Y-85735000D01*
D16*
X102950500Y-80744100D02*
G75*
G02*
X102663300Y-80744100I-143600J0D01*
G01*
X102663300Y-80744100D02*
G75*
G02*
X102950500Y-80744100I143600J0D01*
G01*
D15*
X110120000Y-89250000D02*
G75*
G02*
X104880000Y-89250000I-2620000J0D01*
G01*
X104880000Y-89250000D02*
G75*
G02*
X110120000Y-89250000I2620000J0D01*
G01*
X84765000Y-73772936D02*
X84765000Y-74227064D01*
X86235000Y-73772936D02*
X86235000Y-74227064D01*
X100140000Y-64440000D02*
X100140000Y-68460000D01*
X100140000Y-65940000D02*
X101140000Y-65940000D01*
X100140000Y-68460000D02*
X110360000Y-68460000D01*
X100640000Y-66750000D02*
X100140000Y-66750000D01*
X100640000Y-67960000D02*
X100640000Y-66750000D01*
X101140000Y-65940000D02*
X101140000Y-64440000D01*
X109360000Y-65940000D02*
X109360000Y-64440000D01*
X109860000Y-66750000D02*
X109860000Y-67960000D01*
X109860000Y-67960000D02*
X100640000Y-67960000D01*
X110360000Y-64440000D02*
X100140000Y-64440000D01*
X110360000Y-65940000D02*
X109360000Y-65940000D01*
X110360000Y-66750000D02*
X109860000Y-66750000D01*
X110360000Y-68460000D02*
X110360000Y-64440000D01*
X110660000Y-64140000D02*
X108160000Y-64140000D01*
X110660000Y-66640000D02*
X110660000Y-64140000D01*
%LPC*%
D17*
X97310000Y-86040000D03*
D18*
X89690000Y-86040000D03*
X97310000Y-83500000D03*
X89690000Y-83500000D03*
X97310000Y-80960000D03*
X89690000Y-80960000D03*
D19*
X88000000Y-75037500D03*
X88000000Y-72962500D03*
D20*
X87500000Y-82500000D03*
X85500000Y-82500000D03*
D21*
X121090000Y-82000000D03*
X121090000Y-81000000D03*
X121090000Y-80000000D03*
X121090000Y-79000000D03*
X121090000Y-78000000D03*
X121090000Y-77000000D03*
X121090000Y-76000000D03*
X121090000Y-75000000D03*
X121090000Y-74000000D03*
D22*
X123790000Y-84800000D03*
X123790000Y-71200000D03*
D23*
X88000000Y-66975000D03*
D24*
X90500000Y-66975000D03*
X93000000Y-66975000D03*
X95500000Y-66975000D03*
D20*
X87500000Y-77500000D03*
X85500000Y-77500000D03*
D25*
X109400000Y-79445000D03*
X109400000Y-78175000D03*
X109400000Y-76905000D03*
X109400000Y-75635000D03*
X109400000Y-74365000D03*
X109400000Y-73095000D03*
X109400000Y-71825000D03*
X109400000Y-70555000D03*
X100100000Y-70555000D03*
X100100000Y-71825000D03*
X100100000Y-73095000D03*
X100100000Y-74365000D03*
X100100000Y-75635000D03*
X100100000Y-76905000D03*
X100100000Y-78175000D03*
X100100000Y-79445000D03*
D20*
X87500000Y-80000000D03*
X85500000Y-80000000D03*
D26*
X85462500Y-87500000D03*
X87537500Y-87500000D03*
D27*
X117917800Y-75275000D03*
X117917800Y-74625000D03*
X117917800Y-73975000D03*
X117917800Y-73325000D03*
X117917800Y-72675000D03*
X117917800Y-72025000D03*
X117917800Y-71375000D03*
X117917800Y-70725000D03*
X112082200Y-70725000D03*
X112082200Y-71375000D03*
X112082200Y-72025000D03*
X112082200Y-72675000D03*
X112082200Y-73325000D03*
X112082200Y-73975000D03*
X112082200Y-74625000D03*
X112082200Y-75275000D03*
D28*
X100500000Y-89500000D03*
X102500000Y-89500000D03*
D29*
X92210000Y-90500000D03*
D28*
X89670000Y-90500000D03*
X94750000Y-90500000D03*
D27*
X117917800Y-85275000D03*
X117917800Y-84625000D03*
X117917800Y-83975000D03*
X117917800Y-83325000D03*
X117917800Y-82675000D03*
X117917800Y-82025000D03*
X117917800Y-81375000D03*
X117917800Y-80725000D03*
X112082200Y-80725000D03*
X112082200Y-81375000D03*
X112082200Y-82025000D03*
X112082200Y-82675000D03*
X112082200Y-83325000D03*
X112082200Y-83975000D03*
X112082200Y-84625000D03*
X112082200Y-85275000D03*
D30*
X91100000Y-72700000D03*
X91100000Y-75000000D03*
X91100000Y-77300000D03*
D31*
X96900000Y-75000000D03*
D20*
X87500000Y-85000000D03*
X85500000Y-85000000D03*
D32*
X102133800Y-81595000D03*
X102133800Y-82865000D03*
X102133800Y-84135000D03*
X102133800Y-85405000D03*
X107366200Y-85405000D03*
X107366200Y-84135000D03*
X107366200Y-82865000D03*
X107366200Y-81595000D03*
D28*
X108500000Y-89250000D03*
X106500000Y-89250000D03*
D33*
X85500000Y-73000000D03*
X85500000Y-75000000D03*
D34*
X107750000Y-66750000D03*
D24*
X105250000Y-66750000D03*
X102750000Y-66750000D03*
%LPD*%
M02*
