  0
SECTION
  2
HEADER
  9
$ANGBASE
  50
0.0
  9
$ANGDIR
  70
1
  9
$MEASUREMENT
  70
0
  0
ENDSEC
  0
SECTION
  2
TABLES
  0
TABLE
  2
LTYPE
  70
4
  0
LTYPE
  5
40F
  2
CONTINUOUS
  70
0
  3
Solid line
  72
65
  73
0
  40
0.0
  0
LTYPE
  5
410
  2
DASHDOT
 70
0
  3
Dash Dot ____ _ ____ _
 72
65
 73
4
 40
2.0
 49
1.25
 49
-0.25
 49
0.25
 49
-0.25
  0
LTYPE
  5
411
  2
DASHED
 70
0
  3
Dashed __ __ __ __ __
 72
65
 73
2
 40
0.75
 49
0.5
 49
-0.25
  0
LTYPE
  5
43B
  2
DOTTED
 70
0
  3
Dotted .  .  .  .
 72
65
 73
2
 40
0.2
 49
0.0
 49
-0.2
  0
ENDTAB
  0
TABLE
  2
STYLE
  70
4
  0
STYLE
  2
KICAD
  70
0
  40
0
  41
1
  42
1
  50
0
  71
0
  3
isocp.shx
  0
STYLE
  2
KICADB
  70
0
  40
0
  41
1
  42
1
  50
0
  71
0
  3
isocp.shx
  0
STYLE
  2
KICADI
  70
0
  40
0
  41
1
  42
1
  50
15
  71
0
  3
isocp.shx
  0
STYLE
  2
KICADBI
  70
0
  40
0
  41
1
  42
1
  50
15
  71
0
  3
isocp.shx
  0
ENDTAB
  0
TABLE
  2
LAYER
  70
1
  0
LAYER
  2
BLACK
  70
0
  62
7
  6
CONTINUOUS
  0
ENDTAB
  0
ENDSEC
  0
SECTION
  2
ENTITIES
0
LINE
8
BLACK
6
CONTINUOUS
10
3.3817193307086613
20
-3.4170877952755903
11
3.3849124803149606
21
-3.419221377952756
0
LINE
8
BLACK
6
CONTINUOUS
10
3.3849124803149606
20
-3.419221377952756
11
3.387046062992126
21
-3.422414527559055
0
LINE
8
BLACK
6
CONTINUOUS
10
3.387046062992126
20
-3.422414527559055
11
3.3877952755905509
21
-3.4261811023622046
0
LINE
8
BLACK
6
CONTINUOUS
10
3.3877952755905509
20
-3.4261811023622046
11
3.3877952755905509
21
-3.4635826771653542
0
LINE
8
BLACK
6
CONTINUOUS
10
3.3877952755905509
20
-3.4635826771653542
11
3.387046062992126
21
-3.4673492519685039
0
LINE
8
BLACK
6
CONTINUOUS
10
3.387046062992126
20
-3.4673492519685039
11
3.3849124803149606
21
-3.4705424015748032
0
LINE
8
BLACK
6
CONTINUOUS
10
3.3849124803149606
20
-3.4705424015748032
11
3.3817193307086613
21
-3.4726759842519686
0
LINE
8
BLACK
6
CONTINUOUS
10
3.3817193307086613
20
-3.4726759842519686
11
3.3779527559055116
21
-3.4734251968503935
0
LINE
8
BLACK
6
CONTINUOUS
10
3.3779527559055116
20
-3.4734251968503935
11
3.3513779527559056
21
-3.4734251968503935
0
LINE
8
BLACK
6
CONTINUOUS
10
3.3513779527559056
20
-3.4734251968503935
11
3.3476113779527559
21
-3.4726759842519686
0
LINE
8
BLACK
6
CONTINUOUS
10
3.3476113779527559
20
-3.4726759842519686
11
3.3444182283464565
21
-3.4705424015748032
0
LINE
8
BLACK
6
CONTINUOUS
10
3.3444182283464565
20
-3.4705424015748032
11
3.3422846456692912
21
-3.4673492519685039
0
LINE
8
BLACK
6
CONTINUOUS
10
3.3422846456692912
20
-3.4673492519685039
11
3.3415354330708662
21
-3.4635826771653542
0
LINE
8
BLACK
6
CONTINUOUS
10
3.3415354330708662
20
-3.4635826771653542
11
3.3415354330708662
21
-3.4261811023622046
0
LINE
8
BLACK
6
CONTINUOUS
10
3.3415354330708662
20
-3.4261811023622046
11
3.3422846456692912
21
-3.422414527559055
0
LINE
8
BLACK
6
CONTINUOUS
10
3.3422846456692912
20
-3.422414527559055
11
3.3444182283464565
21
-3.419221377952756
0
LINE
8
BLACK
6
CONTINUOUS
10
3.3444182283464565
20
-3.419221377952756
11
3.3476113779527559
21
-3.4170877952755903
0
LINE
8
BLACK
6
CONTINUOUS
10
3.3476113779527559
20
-3.4170877952755903
11
3.3513779527559056
21
-3.4163385826771653
0
LINE
8
BLACK
6
CONTINUOUS
10
3.3513779527559056
20
-3.4163385826771653
11
3.3779527559055116
21
-3.4163385826771653
0
LINE
8
BLACK
6
CONTINUOUS
10
3.3779527559055116
20
-3.4163385826771653
11
3.3817193307086613
21
-3.4170877952755903
0
LINE
8
BLACK
6
CONTINUOUS
10
3.4634122440944881
20
-3.4170877952755903
11
3.4666053937007875
21
-3.419221377952756
0
LINE
8
BLACK
6
CONTINUOUS
10
3.4666053937007875
20
-3.419221377952756
11
3.4687389763779528
21
-3.422414527559055
0
LINE
8
BLACK
6
CONTINUOUS
10
3.4687389763779528
20
-3.422414527559055
11
3.4694881889763778
21
-3.4261811023622046
0
LINE
8
BLACK
6
CONTINUOUS
10
3.4694881889763778
20
-3.4261811023622046
11
3.4694881889763778
21
-3.4635826771653542
0
LINE
8
BLACK
6
CONTINUOUS
10
3.4694881889763778
20
-3.4635826771653542
11
3.4687389763779528
21
-3.4673492519685039
0
LINE
8
BLACK
6
CONTINUOUS
10
3.4687389763779528
20
-3.4673492519685039
11
3.4666053937007875
21
-3.4705424015748032
0
LINE
8
BLACK
6
CONTINUOUS
10
3.4666053937007875
20
-3.4705424015748032
11
3.4634122440944881
21
-3.4726759842519686
0
LINE
8
BLACK
6
CONTINUOUS
10
3.4634122440944881
20
-3.4726759842519686
11
3.4596456692913384
21
-3.4734251968503935
0
LINE
8
BLACK
6
CONTINUOUS
10
3.4596456692913384
20
-3.4734251968503935
11
3.4330708661417324
21
-3.4734251968503935
0
LINE
8
BLACK
6
CONTINUOUS
10
3.4330708661417324
20
-3.4734251968503935
11
3.4293042913385827
21
-3.4726759842519686
0
LINE
8
BLACK
6
CONTINUOUS
10
3.4293042913385827
20
-3.4726759842519686
11
3.4261111417322834
21
-3.4705424015748032
0
LINE
8
BLACK
6
CONTINUOUS
10
3.4261111417322834
20
-3.4705424015748032
11
3.423977559055118
21
-3.4673492519685039
0
LINE
8
BLACK
6
CONTINUOUS
10
3.423977559055118
20
-3.4673492519685039
11
3.423228346456693
21
-3.4635826771653542
0
LINE
8
BLACK
6
CONTINUOUS
10
3.423228346456693
20
-3.4635826771653542
11
3.423228346456693
21
-3.4261811023622046
0
LINE
8
BLACK
6
CONTINUOUS
10
3.423228346456693
20
-3.4261811023622046
11
3.423977559055118
21
-3.422414527559055
0
LINE
8
BLACK
6
CONTINUOUS
10
3.423977559055118
20
-3.422414527559055
11
3.4261111417322834
21
-3.419221377952756
0
LINE
8
BLACK
6
CONTINUOUS
10
3.4261111417322834
20
-3.419221377952756
11
3.4293042913385827
21
-3.4170877952755903
0
LINE
8
BLACK
6
CONTINUOUS
10
3.4293042913385827
20
-3.4170877952755903
11
3.4330708661417324
21
-3.4163385826771653
0
LINE
8
BLACK
6
CONTINUOUS
10
3.4330708661417324
20
-3.4163385826771653
11
3.4596456692913384
21
-3.4163385826771653
0
LINE
8
BLACK
6
CONTINUOUS
10
3.4596456692913384
20
-3.4163385826771653
11
3.4634122440944881
21
-3.4170877952755903
0
LINE
8
BLACK
6
CONTINUOUS
10
4.8992125984251969
20
-3.3779527559055116
11
4.8480314960629922
21
-3.3779527559055116
0
LINE
8
BLACK
6
CONTINUOUS
10
4.8480314960629922
20
-3.3779527559055116
11
4.8480314960629922
21
-3.2992125984251968
0
LINE
8
BLACK
6
CONTINUOUS
10
4.8480314960629922
20
-3.2992125984251968
11
4.8992125984251969
21
-3.2992125984251968
0
LINE
8
BLACK
6
CONTINUOUS
10
4.8992125984251969
20
-3.2992125984251968
11
4.8992125984251969
21
-3.3779527559055116
0
LINE
8
BLACK
6
CONTINUOUS
10
4.0645157480314964
20
-3.3744015748031497
11
3.9775157480314958
21
-3.3744015748031497
0
LINE
8
BLACK
6
CONTINUOUS
10
3.9775157480314958
20
-3.3744015748031497
11
3.9775157480314958
21
-3.3504015748031497
0
LINE
8
BLACK
6
CONTINUOUS
10
3.9775157480314958
20
-3.3504015748031497
11
4.0645157480314964
21
-3.3504015748031497
0
LINE
8
BLACK
6
CONTINUOUS
10
4.0645157480314964
20
-3.3504015748031497
11
4.0645157480314964
21
-3.3744015748031497
0
LINE
8
BLACK
6
CONTINUOUS
10
4.2705157480314959
20
-3.3744015748031497
11
4.1835157480314962
21
-3.3744015748031497
0
LINE
8
BLACK
6
CONTINUOUS
10
4.1835157480314962
20
-3.3744015748031497
11
4.1835157480314962
21
-3.3504015748031497
0
LINE
8
BLACK
6
CONTINUOUS
10
4.1835157480314962
20
-3.3504015748031497
11
4.2705157480314959
21
-3.3504015748031497
0
LINE
8
BLACK
6
CONTINUOUS
10
4.2705157480314959
20
-3.3504015748031497
11
4.2705157480314959
21
-3.3744015748031497
0
LINE
8
BLACK
6
CONTINUOUS
10
3.3836878346456691
20
-3.3196468503937009
11
3.3868809842519685
21
-3.3217804330708662
0
LINE
8
BLACK
6
CONTINUOUS
10
3.3868809842519685
20
-3.3217804330708662
11
3.3890145669291338
21
-3.3249735826771651
0
LINE
8
BLACK
6
CONTINUOUS
10
3.3890145669291338
20
-3.3249735826771651
11
3.3897637795275588
21
-3.3287401574803148
0
LINE
8
BLACK
6
CONTINUOUS
10
3.3897637795275588
20
-3.3287401574803148
11
3.3897637795275588
21
-3.3641732283464565
0
LINE
8
BLACK
6
CONTINUOUS
10
3.3897637795275588
20
-3.3641732283464565
11
3.3890145669291338
21
-3.3679398031496062
0
LINE
8
BLACK
6
CONTINUOUS
10
3.3890145669291338
20
-3.3679398031496062
11
3.3868809842519685
21
-3.3711329527559055
0
LINE
8
BLACK
6
CONTINUOUS
10
3.3868809842519685
20
-3.3711329527559055
11
3.3836878346456691
21
-3.3732665354330709
0
LINE
8
BLACK
6
CONTINUOUS
10
3.3836878346456691
20
-3.3732665354330709
11
3.3799212598425195
21
-3.3740157480314958
0
LINE
8
BLACK
6
CONTINUOUS
10
3.3799212598425195
20
-3.3740157480314958
11
3.3523622047244093
21
-3.3740157480314958
0
LINE
8
BLACK
6
CONTINUOUS
10
3.3523622047244093
20
-3.3740157480314958
11
3.3485956299212596
21
-3.3732665354330709
0
LINE
8
BLACK
6
CONTINUOUS
10
3.3485956299212596
20
-3.3732665354330709
11
3.3454024803149607
21
-3.3711329527559055
0
LINE
8
BLACK
6
CONTINUOUS
10
3.3454024803149607
20
-3.3711329527559055
11
3.3432688976377953
21
-3.3679398031496062
0
LINE
8
BLACK
6
CONTINUOUS
10
3.3432688976377953
20
-3.3679398031496062
11
3.3425196850393699
21
-3.3641732283464565
0
LINE
8
BLACK
6
CONTINUOUS
10
3.3425196850393699
20
-3.3641732283464565
11
3.3425196850393699
21
-3.3287401574803148
0
LINE
8
BLACK
6
CONTINUOUS
10
3.3425196850393699
20
-3.3287401574803148
11
3.3432688976377953
21
-3.3249735826771651
0
LINE
8
BLACK
6
CONTINUOUS
10
3.3432688976377953
20
-3.3249735826771651
11
3.3454024803149607
21
-3.3217804330708662
0
LINE
8
BLACK
6
CONTINUOUS
10
3.3454024803149607
20
-3.3217804330708662
11
3.3485956299212596
21
-3.3196468503937009
0
LINE
8
BLACK
6
CONTINUOUS
10
3.3485956299212596
20
-3.3196468503937009
11
3.3523622047244093
21
-3.3188976377952755
0
LINE
8
BLACK
6
CONTINUOUS
10
3.3523622047244093
20
-3.3188976377952755
11
3.3799212598425195
21
-3.3188976377952755
0
LINE
8
BLACK
6
CONTINUOUS
10
3.3799212598425195
20
-3.3188976377952755
11
3.3836878346456691
21
-3.3196468503937009
0
LINE
8
BLACK
6
CONTINUOUS
10
3.462427992125984
20
-3.3196468503937009
11
3.4656211417322833
21
-3.3217804330708662
0
LINE
8
BLACK
6
CONTINUOUS
10
3.4656211417322833
20
-3.3217804330708662
11
3.4677547244094487
21
-3.3249735826771651
0
LINE
8
BLACK
6
CONTINUOUS
10
3.4677547244094487
20
-3.3249735826771651
11
3.4685039370078741
21
-3.3287401574803148
0
LINE
8
BLACK
6
CONTINUOUS
10
3.4685039370078741
20
-3.3287401574803148
11
3.4685039370078741
21
-3.3641732283464565
0
LINE
8
BLACK
6
CONTINUOUS
10
3.4685039370078741
20
-3.3641732283464565
11
3.4677547244094487
21
-3.3679398031496062
0
LINE
8
BLACK
6
CONTINUOUS
10
3.4677547244094487
20
-3.3679398031496062
11
3.4656211417322833
21
-3.3711329527559055
0
LINE
8
BLACK
6
CONTINUOUS
10
3.4656211417322833
20
-3.3711329527559055
11
3.462427992125984
21
-3.3732665354330709
0
LINE
8
BLACK
6
CONTINUOUS
10
3.462427992125984
20
-3.3732665354330709
11
3.4586614173228347
21
-3.3740157480314958
0
LINE
8
BLACK
6
CONTINUOUS
10
3.4586614173228347
20
-3.3740157480314958
11
3.4311023622047245
21
-3.3740157480314958
0
LINE
8
BLACK
6
CONTINUOUS
10
3.4311023622047245
20
-3.3740157480314958
11
3.4273357874015749
21
-3.3732665354330709
0
LINE
8
BLACK
6
CONTINUOUS
10
3.4273357874015749
20
-3.3732665354330709
11
3.4241426377952755
21
-3.3711329527559055
0
LINE
8
BLACK
6
CONTINUOUS
10
3.4241426377952755
20
-3.3711329527559055
11
3.4220090551181102
21
-3.3679398031496062
0
LINE
8
BLACK
6
CONTINUOUS
10
3.4220090551181102
20
-3.3679398031496062
11
3.4212598425196852
21
-3.3641732283464565
0
LINE
8
BLACK
6
CONTINUOUS
10
3.4212598425196852
20
-3.3641732283464565
11
3.4212598425196852
21
-3.3287401574803148
0
LINE
8
BLACK
6
CONTINUOUS
10
3.4212598425196852
20
-3.3287401574803148
11
3.4220090551181102
21
-3.3249735826771651
0
LINE
8
BLACK
6
CONTINUOUS
10
3.4220090551181102
20
-3.3249735826771651
11
3.4241426377952755
21
-3.3217804330708662
0
LINE
8
BLACK
6
CONTINUOUS
10
3.4241426377952755
20
-3.3217804330708662
11
3.4273357874015749
21
-3.3196468503937009
0
LINE
8
BLACK
6
CONTINUOUS
10
3.4273357874015749
20
-3.3196468503937009
11
3.4311023622047245
21
-3.3188976377952755
0
LINE
8
BLACK
6
CONTINUOUS
10
3.4311023622047245
20
-3.3188976377952755
11
3.4586614173228347
21
-3.3188976377952755
0
LINE
8
BLACK
6
CONTINUOUS
10
3.4586614173228347
20
-3.3188976377952755
11
3.462427992125984
21
-3.3196468503937009
0
LINE
8
BLACK
6
CONTINUOUS
10
4.4321850393700783
20
-3.3632834645669289
11
4.3931850393700786
21
-3.3632834645669289
0
LINE
8
BLACK
6
CONTINUOUS
10
4.3931850393700786
20
-3.3632834645669289
11
4.3931850393700786
21
-3.3512834645669289
0
LINE
8
BLACK
6
CONTINUOUS
10
4.3931850393700786
20
-3.3512834645669289
11
4.4321850393700783
21
-3.3512834645669289
0
LINE
8
BLACK
6
CONTINUOUS
10
4.4321850393700783
20
-3.3512834645669289
11
4.4321850393700783
21
-3.3632834645669289
0
LINE
8
BLACK
6
CONTINUOUS
10
4.6619330708661417
20
-3.3632834645669289
11
4.622933070866142
21
-3.3632834645669289
0
LINE
8
BLACK
6
CONTINUOUS
10
4.622933070866142
20
-3.3632834645669289
11
4.622933070866142
21
-3.3512834645669289
0
LINE
8
BLACK
6
CONTINUOUS
10
4.622933070866142
20
-3.3512834645669289
11
4.6619330708661417
21
-3.3512834645669289
0
LINE
8
BLACK
6
CONTINUOUS
10
4.6619330708661417
20
-3.3512834645669289
11
4.6619330708661417
21
-3.3632834645669289
0
LINE
8
BLACK
6
CONTINUOUS
10
4.4321850393700783
20
-3.3376929133858266
11
4.3931850393700786
21
-3.3376929133858266
0
LINE
8
BLACK
6
CONTINUOUS
10
4.3931850393700786
20
-3.3376929133858266
11
4.3931850393700786
21
-3.3256929133858266
0
LINE
8
BLACK
6
CONTINUOUS
10
4.3931850393700786
20
-3.3256929133858266
11
4.4321850393700783
21
-3.3256929133858266
0
LINE
8
BLACK
6
CONTINUOUS
10
4.4321850393700783
20
-3.3256929133858266
11
4.4321850393700783
21
-3.3376929133858266
0
LINE
8
BLACK
6
CONTINUOUS
10
4.6619330708661417
20
-3.3376929133858266
11
4.622933070866142
21
-3.3376929133858266
0
LINE
8
BLACK
6
CONTINUOUS
10
4.622933070866142
20
-3.3376929133858266
11
4.622933070866142
21
-3.3256929133858266
0
LINE
8
BLACK
6
CONTINUOUS
10
4.622933070866142
20
-3.3256929133858266
11
4.6619330708661417
21
-3.3256929133858266
0
LINE
8
BLACK
6
CONTINUOUS
10
4.6619330708661417
20
-3.3256929133858266
11
4.6619330708661417
21
-3.3376929133858266
0
LINE
8
BLACK
6
CONTINUOUS
10
4.0645157480314964
20
-3.3244015748031495
11
3.9775157480314958
21
-3.3244015748031495
0
LINE
8
BLACK
6
CONTINUOUS
10
3.9775157480314958
20
-3.3244015748031495
11
3.9775157480314958
21
-3.3004015748031494
0
LINE
8
BLACK
6
CONTINUOUS
10
3.9775157480314958
20
-3.3004015748031494
11
4.0645157480314964
21
-3.3004015748031494
0
LINE
8
BLACK
6
CONTINUOUS
10
4.0645157480314964
20
-3.3004015748031494
11
4.0645157480314964
21
-3.3244015748031495
0
LINE
8
BLACK
6
CONTINUOUS
10
4.2705157480314959
20
-3.3244015748031495
11
4.1835157480314962
21
-3.3244015748031495
0
LINE
8
BLACK
6
CONTINUOUS
10
4.1835157480314962
20
-3.3244015748031495
11
4.1835157480314962
21
-3.3004015748031494
0
LINE
8
BLACK
6
CONTINUOUS
10
4.1835157480314962
20
-3.3004015748031494
11
4.2705157480314959
21
-3.3004015748031494
0
LINE
8
BLACK
6
CONTINUOUS
10
4.2705157480314959
20
-3.3004015748031494
11
4.2705157480314959
21
-3.3244015748031495
0
LINE
8
BLACK
6
CONTINUOUS
10
4.4321850393700783
20
-3.3121023622047243
11
4.3931850393700786
21
-3.3121023622047243
0
LINE
8
BLACK
6
CONTINUOUS
10
4.3931850393700786
20
-3.3121023622047243
11
4.3931850393700786
21
-3.3001023622047243
0
LINE
8
BLACK
6
CONTINUOUS
10
4.3931850393700786
20
-3.3001023622047243
11
4.4321850393700783
21
-3.3001023622047243
0
LINE
8
BLACK
6
CONTINUOUS
10
4.4321850393700783
20
-3.3001023622047243
11
4.4321850393700783
21
-3.3121023622047243
0
LINE
8
BLACK
6
CONTINUOUS
10
4.6619330708661417
20
-3.3121023622047243
11
4.622933070866142
21
-3.3121023622047243
0
LINE
8
BLACK
6
CONTINUOUS
10
4.622933070866142
20
-3.3121023622047243
11
4.622933070866142
21
-3.3001023622047243
0
LINE
8
BLACK
6
CONTINUOUS
10
4.622933070866142
20
-3.3001023622047243
11
4.6619330708661417
21
-3.3001023622047243
0
LINE
8
BLACK
6
CONTINUOUS
10
4.6619330708661417
20
-3.3001023622047243
11
4.6619330708661417
21
-3.3121023622047243
0
LINE
8
BLACK
6
CONTINUOUS
10
4.4321850393700783
20
-3.286511811023622
11
4.3931850393700786
21
-3.286511811023622
0
LINE
8
BLACK
6
CONTINUOUS
10
4.3931850393700786
20
-3.286511811023622
11
4.3931850393700786
21
-3.274511811023622
0
LINE
8
BLACK
6
CONTINUOUS
10
4.3931850393700786
20
-3.274511811023622
11
4.4321850393700783
21
-3.274511811023622
0
LINE
8
BLACK
6
CONTINUOUS
10
4.4321850393700783
20
-3.274511811023622
11
4.4321850393700783
21
-3.286511811023622
0
LINE
8
BLACK
6
CONTINUOUS
10
4.6619330708661417
20
-3.286511811023622
11
4.622933070866142
21
-3.286511811023622
0
LINE
8
BLACK
6
CONTINUOUS
10
4.622933070866142
20
-3.286511811023622
11
4.622933070866142
21
-3.274511811023622
0
LINE
8
BLACK
6
CONTINUOUS
10
4.622933070866142
20
-3.274511811023622
11
4.6619330708661417
21
-3.274511811023622
0
LINE
8
BLACK
6
CONTINUOUS
10
4.6619330708661417
20
-3.274511811023622
11
4.6619330708661417
21
-3.286511811023622
0
LINE
8
BLACK
6
CONTINUOUS
10
3.3836878346456691
20
-3.2212216535433069
11
3.3868809842519685
21
-3.2233552362204723
0
LINE
8
BLACK
6
CONTINUOUS
10
3.3868809842519685
20
-3.2233552362204723
11
3.3890145669291338
21
-3.2265483858267716
0
LINE
8
BLACK
6
CONTINUOUS
10
3.3890145669291338
20
-3.2265483858267716
11
3.3897637795275588
21
-3.2303149606299213
0
LINE
8
BLACK
6
CONTINUOUS
10
3.3897637795275588
20
-3.2303149606299213
11
3.3897637795275588
21
-3.265748031496063
0
LINE
8
BLACK
6
CONTINUOUS
10
3.3897637795275588
20
-3.265748031496063
11
3.3890145669291338
21
-3.2695146062992126
0
LINE
8
BLACK
6
CONTINUOUS
10
3.3890145669291338
20
-3.2695146062992126
11
3.3868809842519685
21
-3.2727077559055116
0
LINE
8
BLACK
6
CONTINUOUS
10
3.3868809842519685
20
-3.2727077559055116
11
3.3836878346456691
21
-3.2748413385826769
0
LINE
8
BLACK
6
CONTINUOUS
10
3.3836878346456691
20
-3.2748413385826769
11
3.3799212598425195
21
-3.2755905511811023
0
LINE
8
BLACK
6
CONTINUOUS
10
3.3799212598425195
20
-3.2755905511811023
11
3.3523622047244093
21
-3.2755905511811023
0
LINE
8
BLACK
6
CONTINUOUS
10
3.3523622047244093
20
-3.2755905511811023
11
3.3485956299212596
21
-3.2748413385826769
0
LINE
8
BLACK
6
CONTINUOUS
10
3.3485956299212596
20
-3.2748413385826769
11
3.3454024803149607
21
-3.2727077559055116
0
LINE
8
BLACK
6
CONTINUOUS
10
3.3454024803149607
20
-3.2727077559055116
11
3.3432688976377953
21
-3.2695146062992126
0
LINE
8
BLACK
6
CONTINUOUS
10
3.3432688976377953
20
-3.2695146062992126
11
3.3425196850393699
21
-3.265748031496063
0
LINE
8
BLACK
6
CONTINUOUS
10
3.3425196850393699
20
-3.265748031496063
11
3.3425196850393699
21
-3.2303149606299213
0
LINE
8
BLACK
6
CONTINUOUS
10
3.3425196850393699
20
-3.2303149606299213
11
3.3432688976377953
21
-3.2265483858267716
0
LINE
8
BLACK
6
CONTINUOUS
10
3.3432688976377953
20
-3.2265483858267716
11
3.3454024803149607
21
-3.2233552362204723
0
LINE
8
BLACK
6
CONTINUOUS
10
3.3454024803149607
20
-3.2233552362204723
11
3.3485956299212596
21
-3.2212216535433069
0
LINE
8
BLACK
6
CONTINUOUS
10
3.3485956299212596
20
-3.2212216535433069
11
3.3523622047244093
21
-3.2204724409448819
0
LINE
8
BLACK
6
CONTINUOUS
10
3.3523622047244093
20
-3.2204724409448819
11
3.3799212598425195
21
-3.2204724409448819
0
LINE
8
BLACK
6
CONTINUOUS
10
3.3799212598425195
20
-3.2204724409448819
11
3.3836878346456691
21
-3.2212216535433069
0
LINE
8
BLACK
6
CONTINUOUS
10
3.462427992125984
20
-3.2212216535433069
11
3.4656211417322833
21
-3.2233552362204723
0
LINE
8
BLACK
6
CONTINUOUS
10
3.4656211417322833
20
-3.2233552362204723
11
3.4677547244094487
21
-3.2265483858267716
0
LINE
8
BLACK
6
CONTINUOUS
10
3.4677547244094487
20
-3.2265483858267716
11
3.4685039370078741
21
-3.2303149606299213
0
LINE
8
BLACK
6
CONTINUOUS
10
3.4685039370078741
20
-3.2303149606299213
11
3.4685039370078741
21
-3.265748031496063
0
LINE
8
BLACK
6
CONTINUOUS
10
3.4685039370078741
20
-3.265748031496063
11
3.4677547244094487
21
-3.2695146062992126
0
LINE
8
BLACK
6
CONTINUOUS
10
3.4677547244094487
20
-3.2695146062992126
11
3.4656211417322833
21
-3.2727077559055116
0
LINE
8
BLACK
6
CONTINUOUS
10
3.4656211417322833
20
-3.2727077559055116
11
3.462427992125984
21
-3.2748413385826769
0
LINE
8
BLACK
6
CONTINUOUS
10
3.462427992125984
20
-3.2748413385826769
11
3.4586614173228347
21
-3.2755905511811023
0
LINE
8
BLACK
6
CONTINUOUS
10
3.4586614173228347
20
-3.2755905511811023
11
3.4311023622047245
21
-3.2755905511811023
0
LINE
8
BLACK
6
CONTINUOUS
10
3.4311023622047245
20
-3.2755905511811023
11
3.4273357874015749
21
-3.2748413385826769
0
LINE
8
BLACK
6
CONTINUOUS
10
3.4273357874015749
20
-3.2748413385826769
11
3.4241426377952755
21
-3.2727077559055116
0
LINE
8
BLACK
6
CONTINUOUS
10
3.4241426377952755
20
-3.2727077559055116
11
3.4220090551181102
21
-3.2695146062992126
0
LINE
8
BLACK
6
CONTINUOUS
10
3.4220090551181102
20
-3.2695146062992126
11
3.4212598425196852
21
-3.265748031496063
0
LINE
8
BLACK
6
CONTINUOUS
10
3.4212598425196852
20
-3.265748031496063
11
3.4212598425196852
21
-3.2303149606299213
0
LINE
8
BLACK
6
CONTINUOUS
10
3.4212598425196852
20
-3.2303149606299213
11
3.4220090551181102
21
-3.2265483858267716
0
LINE
8
BLACK
6
CONTINUOUS
10
3.4220090551181102
20
-3.2265483858267716
11
3.4241426377952755
21
-3.2233552362204723
0
LINE
8
BLACK
6
CONTINUOUS
10
3.4241426377952755
20
-3.2233552362204723
11
3.4273357874015749
21
-3.2212216535433069
0
LINE
8
BLACK
6
CONTINUOUS
10
3.4273357874015749
20
-3.2212216535433069
11
3.4311023622047245
21
-3.2204724409448819
0
LINE
8
BLACK
6
CONTINUOUS
10
3.4311023622047245
20
-3.2204724409448819
11
3.4586614173228347
21
-3.2204724409448819
0
LINE
8
BLACK
6
CONTINUOUS
10
3.4586614173228347
20
-3.2204724409448819
11
3.462427992125984
21
-3.2212216535433069
0
LINE
8
BLACK
6
CONTINUOUS
10
4.0645157480314964
20
-3.2744015748031496
11
3.9775157480314958
21
-3.2744015748031496
0
LINE
8
BLACK
6
CONTINUOUS
10
3.9775157480314958
20
-3.2744015748031496
11
3.9775157480314958
21
-3.2504015748031496
0
LINE
8
BLACK
6
CONTINUOUS
10
3.9775157480314958
20
-3.2504015748031496
11
4.0645157480314964
21
-3.2504015748031496
0
LINE
8
BLACK
6
CONTINUOUS
10
4.0645157480314964
20
-3.2504015748031496
11
4.0645157480314964
21
-3.2744015748031496
0
LINE
8
BLACK
6
CONTINUOUS
10
4.2705157480314959
20
-3.2744015748031496
11
4.1835157480314962
21
-3.2744015748031496
0
LINE
8
BLACK
6
CONTINUOUS
10
4.1835157480314962
20
-3.2744015748031496
11
4.1835157480314962
21
-3.2504015748031496
0
LINE
8
BLACK
6
CONTINUOUS
10
4.1835157480314962
20
-3.2504015748031496
11
4.2705157480314959
21
-3.2504015748031496
0
LINE
8
BLACK
6
CONTINUOUS
10
4.2705157480314959
20
-3.2504015748031496
11
4.2705157480314959
21
-3.2744015748031496
0
LINE
8
BLACK
6
CONTINUOUS
10
4.4321850393700783
20
-3.2609212598425197
11
4.3931850393700786
21
-3.2609212598425197
0
LINE
8
BLACK
6
CONTINUOUS
10
4.3931850393700786
20
-3.2609212598425197
11
4.3931850393700786
21
-3.2489212598425197
0
LINE
8
BLACK
6
CONTINUOUS
10
4.3931850393700786
20
-3.2489212598425197
11
4.4321850393700783
21
-3.2489212598425197
0
LINE
8
BLACK
6
CONTINUOUS
10
4.4321850393700783
20
-3.2489212598425197
11
4.4321850393700783
21
-3.2609212598425197
0
LINE
8
BLACK
6
CONTINUOUS
10
4.6619330708661417
20
-3.2609212598425197
11
4.622933070866142
21
-3.2609212598425197
0
LINE
8
BLACK
6
CONTINUOUS
10
4.622933070866142
20
-3.2609212598425197
11
4.622933070866142
21
-3.2489212598425197
0
LINE
8
BLACK
6
CONTINUOUS
10
4.622933070866142
20
-3.2489212598425197
11
4.6619330708661417
21
-3.2489212598425197
0
LINE
8
BLACK
6
CONTINUOUS
10
4.6619330708661417
20
-3.2489212598425197
11
4.6619330708661417
21
-3.2609212598425197
0
LINE
8
BLACK
6
CONTINUOUS
10
4.7870078740157478
20
-3.2362204724409449
11
4.7476377952755904
21
-3.2362204724409449
0
LINE
8
BLACK
6
CONTINUOUS
10
4.7476377952755904
20
-3.2362204724409449
11
4.7476377952755904
21
-3.2204724409448819
0
LINE
8
BLACK
6
CONTINUOUS
10
4.7476377952755904
20
-3.2204724409448819
11
4.7870078740157478
21
-3.2204724409448819
0
LINE
8
BLACK
6
CONTINUOUS
10
4.7870078740157478
20
-3.2204724409448819
11
4.7870078740157478
21
-3.2362204724409449
0
LINE
8
BLACK
6
CONTINUOUS
10
4.4321850393700783
20
-3.2353307086614174
11
4.3931850393700786
21
-3.2353307086614174
0
LINE
8
BLACK
6
CONTINUOUS
10
4.3931850393700786
20
-3.2353307086614174
11
4.3931850393700786
21
-3.2233307086614174
0
LINE
8
BLACK
6
CONTINUOUS
10
4.3931850393700786
20
-3.2233307086614174
11
4.4321850393700783
21
-3.2233307086614174
0
LINE
8
BLACK
6
CONTINUOUS
10
4.4321850393700783
20
-3.2233307086614174
11
4.4321850393700783
21
-3.2353307086614174
0
LINE
8
BLACK
6
CONTINUOUS
10
4.6619330708661417
20
-3.2353307086614174
11
4.622933070866142
21
-3.2353307086614174
0
LINE
8
BLACK
6
CONTINUOUS
10
4.622933070866142
20
-3.2353307086614174
11
4.622933070866142
21
-3.2233307086614174
0
LINE
8
BLACK
6
CONTINUOUS
10
4.622933070866142
20
-3.2233307086614174
11
4.6619330708661417
21
-3.2233307086614174
0
LINE
8
BLACK
6
CONTINUOUS
10
4.6619330708661417
20
-3.2233307086614174
11
4.6619330708661417
21
-3.2353307086614174
0
LINE
8
BLACK
6
CONTINUOUS
10
4.0645157480314964
20
-3.2244015748031494
11
3.9775157480314958
21
-3.2244015748031494
0
LINE
8
BLACK
6
CONTINUOUS
10
3.9775157480314958
20
-3.2244015748031494
11
3.9775157480314958
21
-3.2004015748031494
0
LINE
8
BLACK
6
CONTINUOUS
10
3.9775157480314958
20
-3.2004015748031494
11
4.0645157480314964
21
-3.2004015748031494
0
LINE
8
BLACK
6
CONTINUOUS
10
4.0645157480314964
20
-3.2004015748031494
11
4.0645157480314964
21
-3.2244015748031494
0
LINE
8
BLACK
6
CONTINUOUS
10
4.2705157480314959
20
-3.2244015748031494
11
4.1835157480314962
21
-3.2244015748031494
0
LINE
8
BLACK
6
CONTINUOUS
10
4.1835157480314962
20
-3.2244015748031494
11
4.1835157480314962
21
-3.2004015748031494
0
LINE
8
BLACK
6
CONTINUOUS
10
4.1835157480314962
20
-3.2004015748031494
11
4.2705157480314959
21
-3.2004015748031494
0
LINE
8
BLACK
6
CONTINUOUS
10
4.2705157480314959
20
-3.2004015748031494
11
4.2705157480314959
21
-3.2244015748031494
0
LINE
8
BLACK
6
CONTINUOUS
10
4.4321850393700783
20
-3.209740157480315
11
4.3931850393700786
21
-3.209740157480315
0
LINE
8
BLACK
6
CONTINUOUS
10
4.3931850393700786
20
-3.209740157480315
11
4.3931850393700786
21
-3.197740157480315
0
LINE
8
BLACK
6
CONTINUOUS
10
4.3931850393700786
20
-3.197740157480315
11
4.4321850393700783
21
-3.197740157480315
0
LINE
8
BLACK
6
CONTINUOUS
10
4.4321850393700783
20
-3.197740157480315
11
4.4321850393700783
21
-3.209740157480315
0
LINE
8
BLACK
6
CONTINUOUS
10
4.6619330708661417
20
-3.209740157480315
11
4.622933070866142
21
-3.209740157480315
0
LINE
8
BLACK
6
CONTINUOUS
10
4.622933070866142
20
-3.209740157480315
11
4.622933070866142
21
-3.197740157480315
0
LINE
8
BLACK
6
CONTINUOUS
10
4.622933070866142
20
-3.197740157480315
11
4.6619330708661417
21
-3.197740157480315
0
LINE
8
BLACK
6
CONTINUOUS
10
4.6619330708661417
20
-3.197740157480315
11
4.6619330708661417
21
-3.209740157480315
0
LINE
8
BLACK
6
CONTINUOUS
10
4.7870078740157478
20
-3.1968503937007875
11
4.7476377952755904
21
-3.1968503937007875
0
LINE
8
BLACK
6
CONTINUOUS
10
4.7476377952755904
20
-3.1968503937007875
11
4.7476377952755904
21
-3.1811023622047245
0
LINE
8
BLACK
6
CONTINUOUS
10
4.7476377952755904
20
-3.1811023622047245
11
4.7870078740157478
21
-3.1811023622047245
0
LINE
8
BLACK
6
CONTINUOUS
10
4.7870078740157478
20
-3.1811023622047245
11
4.7870078740157478
21
-3.1968503937007875
0
LINE
8
BLACK
6
CONTINUOUS
10
4.4321850393700783
20
-3.1841496062992127
11
4.3931850393700786
21
-3.1841496062992127
0
LINE
8
BLACK
6
CONTINUOUS
10
4.3931850393700786
20
-3.1841496062992127
11
4.3931850393700786
21
-3.1721496062992127
0
LINE
8
BLACK
6
CONTINUOUS
10
4.3931850393700786
20
-3.1721496062992127
11
4.4321850393700783
21
-3.1721496062992127
0
LINE
8
BLACK
6
CONTINUOUS
10
4.4321850393700783
20
-3.1721496062992127
11
4.4321850393700783
21
-3.1841496062992127
0
LINE
8
BLACK
6
CONTINUOUS
10
4.6619330708661417
20
-3.1841496062992127
11
4.622933070866142
21
-3.1841496062992127
0
LINE
8
BLACK
6
CONTINUOUS
10
4.622933070866142
20
-3.1841496062992127
11
4.622933070866142
21
-3.1721496062992127
0
LINE
8
BLACK
6
CONTINUOUS
10
4.622933070866142
20
-3.1721496062992127
11
4.6619330708661417
21
-3.1721496062992127
0
LINE
8
BLACK
6
CONTINUOUS
10
4.6619330708661417
20
-3.1721496062992127
11
4.6619330708661417
21
-3.1841496062992127
0
LINE
8
BLACK
6
CONTINUOUS
10
3.3836878346456691
20
-3.1227964566929134
11
3.3868809842519685
21
-3.1249300393700787
0
LINE
8
BLACK
6
CONTINUOUS
10
3.3868809842519685
20
-3.1249300393700787
11
3.3890145669291338
21
-3.1281231889763781
0
LINE
8
BLACK
6
CONTINUOUS
10
3.3890145669291338
20
-3.1281231889763781
11
3.3897637795275588
21
-3.1318897637795273
0
LINE
8
BLACK
6
CONTINUOUS
10
3.3897637795275588
20
-3.1318897637795273
11
3.3897637795275588
21
-3.1673228346456694
0
LINE
8
BLACK
6
CONTINUOUS
10
3.3897637795275588
20
-3.1673228346456694
11
3.3890145669291338
21
-3.1710894094488187
0
LINE
8
BLACK
6
CONTINUOUS
10
3.3890145669291338
20
-3.1710894094488187
11
3.3868809842519685
21
-3.174282559055118
0
LINE
8
BLACK
6
CONTINUOUS
10
3.3868809842519685
20
-3.174282559055118
11
3.3836878346456691
21
-3.1764161417322834
0
LINE
8
BLACK
6
CONTINUOUS
10
3.3836878346456691
20
-3.1764161417322834
11
3.3799212598425195
21
-3.1771653543307088
0
LINE
8
BLACK
6
CONTINUOUS
10
3.3799212598425195
20
-3.1771653543307088
11
3.3523622047244093
21
-3.1771653543307088
0
LINE
8
BLACK
6
CONTINUOUS
10
3.3523622047244093
20
-3.1771653543307088
11
3.3485956299212596
21
-3.1764161417322834
0
LINE
8
BLACK
6
CONTINUOUS
10
3.3485956299212596
20
-3.1764161417322834
11
3.3454024803149607
21
-3.174282559055118
0
LINE
8
BLACK
6
CONTINUOUS
10
3.3454024803149607
20
-3.174282559055118
11
3.3432688976377953
21
-3.1710894094488187
0
LINE
8
BLACK
6
CONTINUOUS
10
3.3432688976377953
20
-3.1710894094488187
11
3.3425196850393699
21
-3.1673228346456694
0
LINE
8
BLACK
6
CONTINUOUS
10
3.3425196850393699
20
-3.1673228346456694
11
3.3425196850393699
21
-3.1318897637795273
0
LINE
8
BLACK
6
CONTINUOUS
10
3.3425196850393699
20
-3.1318897637795273
11
3.3432688976377953
21
-3.1281231889763781
0
LINE
8
BLACK
6
CONTINUOUS
10
3.3432688976377953
20
-3.1281231889763781
11
3.3454024803149607
21
-3.1249300393700787
0
LINE
8
BLACK
6
CONTINUOUS
10
3.3454024803149607
20
-3.1249300393700787
11
3.3485956299212596
21
-3.1227964566929134
0
LINE
8
BLACK
6
CONTINUOUS
10
3.3485956299212596
20
-3.1227964566929134
11
3.3523622047244093
21
-3.122047244094488
0
LINE
8
BLACK
6
CONTINUOUS
10
3.3523622047244093
20
-3.122047244094488
11
3.3799212598425195
21
-3.122047244094488
0
LINE
8
BLACK
6
CONTINUOUS
10
3.3799212598425195
20
-3.122047244094488
11
3.3836878346456691
21
-3.1227964566929134
0
LINE
8
BLACK
6
CONTINUOUS
10
3.462427992125984
20
-3.1227964566929134
11
3.4656211417322833
21
-3.1249300393700787
0
LINE
8
BLACK
6
CONTINUOUS
10
3.4656211417322833
20
-3.1249300393700787
11
3.4677547244094487
21
-3.1281231889763781
0
LINE
8
BLACK
6
CONTINUOUS
10
3.4677547244094487
20
-3.1281231889763781
11
3.4685039370078741
21
-3.1318897637795273
0
LINE
8
BLACK
6
CONTINUOUS
10
3.4685039370078741
20
-3.1318897637795273
11
3.4685039370078741
21
-3.1673228346456694
0
LINE
8
BLACK
6
CONTINUOUS
10
3.4685039370078741
20
-3.1673228346456694
11
3.4677547244094487
21
-3.1710894094488187
0
LINE
8
BLACK
6
CONTINUOUS
10
3.4677547244094487
20
-3.1710894094488187
11
3.4656211417322833
21
-3.174282559055118
0
LINE
8
BLACK
6
CONTINUOUS
10
3.4656211417322833
20
-3.174282559055118
11
3.462427992125984
21
-3.1764161417322834
0
LINE
8
BLACK
6
CONTINUOUS
10
3.462427992125984
20
-3.1764161417322834
11
3.4586614173228347
21
-3.1771653543307088
0
LINE
8
BLACK
6
CONTINUOUS
10
3.4586614173228347
20
-3.1771653543307088
11
3.4311023622047245
21
-3.1771653543307088
0
LINE
8
BLACK
6
CONTINUOUS
10
3.4311023622047245
20
-3.1771653543307088
11
3.4273357874015749
21
-3.1764161417322834
0
LINE
8
BLACK
6
CONTINUOUS
10
3.4273357874015749
20
-3.1764161417322834
11
3.4241426377952755
21
-3.174282559055118
0
LINE
8
BLACK
6
CONTINUOUS
10
3.4241426377952755
20
-3.174282559055118
11
3.4220090551181102
21
-3.1710894094488187
0
LINE
8
BLACK
6
CONTINUOUS
10
3.4220090551181102
20
-3.1710894094488187
11
3.4212598425196852
21
-3.1673228346456694
0
LINE
8
BLACK
6
CONTINUOUS
10
3.4212598425196852
20
-3.1673228346456694
11
3.4212598425196852
21
-3.1318897637795273
0
LINE
8
BLACK
6
CONTINUOUS
10
3.4212598425196852
20
-3.1318897637795273
11
3.4220090551181102
21
-3.1281231889763781
0
LINE
8
BLACK
6
CONTINUOUS
10
3.4220090551181102
20
-3.1281231889763781
11
3.4241426377952755
21
-3.1249300393700787
0
LINE
8
BLACK
6
CONTINUOUS
10
3.4241426377952755
20
-3.1249300393700787
11
3.4273357874015749
21
-3.1227964566929134
0
LINE
8
BLACK
6
CONTINUOUS
10
3.4273357874015749
20
-3.1227964566929134
11
3.4311023622047245
21
-3.122047244094488
0
LINE
8
BLACK
6
CONTINUOUS
10
3.4311023622047245
20
-3.122047244094488
11
3.4586614173228347
21
-3.122047244094488
0
LINE
8
BLACK
6
CONTINUOUS
10
3.4586614173228347
20
-3.122047244094488
11
3.462427992125984
21
-3.1227964566929134
0
LINE
8
BLACK
6
CONTINUOUS
10
4.7870078740157478
20
-3.1574803149606296
11
4.7476377952755904
21
-3.1574803149606296
0
LINE
8
BLACK
6
CONTINUOUS
10
4.7476377952755904
20
-3.1574803149606296
11
4.7476377952755904
21
-3.1417322834645667
0
LINE
8
BLACK
6
CONTINUOUS
10
4.7476377952755904
20
-3.1417322834645667
11
4.7870078740157478
21
-3.1417322834645667
0
LINE
8
BLACK
6
CONTINUOUS
10
4.7870078740157478
20
-3.1417322834645667
11
4.7870078740157478
21
-3.1574803149606296
0
LINE
8
BLACK
6
CONTINUOUS
10
3.9776536614173228
20
-3.116394409448819
11
3.9795695275590552
21
-3.1176745669291339
0
LINE
8
BLACK
6
CONTINUOUS
10
3.9795695275590552
20
-3.1176745669291339
11
3.9808496850393702
21
-3.1195904330708659
0
LINE
8
BLACK
6
CONTINUOUS
10
3.9808496850393702
20
-3.1195904330708659
11
3.981299212598425
21
-3.1218503937007873
0
LINE
8
BLACK
6
CONTINUOUS
10
3.981299212598425
20
-3.1218503937007873
11
3.981299212598425
21
-3.1336614173228345
0
LINE
8
BLACK
6
CONTINUOUS
10
3.981299212598425
20
-3.1336614173228345
11
3.9808496850393702
21
-3.1359213779527559
0
LINE
8
BLACK
6
CONTINUOUS
10
3.9808496850393702
20
-3.1359213779527559
11
3.9795695275590552
21
-3.1378372440944879
0
LINE
8
BLACK
6
CONTINUOUS
10
3.9795695275590552
20
-3.1378372440944879
11
3.9776536614173228
21
-3.1391174015748029
0
LINE
8
BLACK
6
CONTINUOUS
10
3.9776536614173228
20
-3.1391174015748029
11
3.9753937007874014
21
-3.1395669291338582
0
LINE
8
BLACK
6
CONTINUOUS
10
3.9753937007874014
20
-3.1395669291338582
11
3.9064960629921259
21
-3.1395669291338582
0
LINE
8
BLACK
6
CONTINUOUS
10
3.9064960629921259
20
-3.1395669291338582
11
3.9042361023622045
21
-3.1391174015748029
0
LINE
8
BLACK
6
CONTINUOUS
10
3.9042361023622045
20
-3.1391174015748029
11
3.9023202362204725
21
-3.1378372440944879
0
LINE
8
BLACK
6
CONTINUOUS
10
3.9023202362204725
20
-3.1378372440944879
11
3.9010400787401576
21
-3.1359213779527559
0
LINE
8
BLACK
6
CONTINUOUS
10
3.9010400787401576
20
-3.1359213779527559
11
3.9005905511811023
21
-3.1336614173228345
0
LINE
8
BLACK
6
CONTINUOUS
10
3.9005905511811023
20
-3.1336614173228345
11
3.9005905511811023
21
-3.1218503937007873
0
LINE
8
BLACK
6
CONTINUOUS
10
3.9005905511811023
20
-3.1218503937007873
11
3.9010400787401576
21
-3.1195904330708659
0
LINE
8
BLACK
6
CONTINUOUS
10
3.9010400787401576
20
-3.1195904330708659
11
3.9023202362204725
21
-3.1176745669291339
0
LINE
8
BLACK
6
CONTINUOUS
10
3.9023202362204725
20
-3.1176745669291339
11
3.9042361023622045
21
-3.116394409448819
0
LINE
8
BLACK
6
CONTINUOUS
10
3.9042361023622045
20
-3.116394409448819
11
3.9064960629921259
21
-3.1159448818897637
0
LINE
8
BLACK
6
CONTINUOUS
10
3.9064960629921259
20
-3.1159448818897637
11
3.9753937007874014
21
-3.1159448818897637
0
LINE
8
BLACK
6
CONTINUOUS
10
3.9753937007874014
20
-3.1159448818897637
11
3.9776536614173228
21
-3.116394409448819
0
LINE
8
BLACK
6
CONTINUOUS
10
4.3437953937007876
20
-3.116394409448819
11
4.3457112598425196
21
-3.1176745669291339
0
LINE
8
BLACK
6
CONTINUOUS
10
4.3457112598425196
20
-3.1176745669291339
11
4.3469914173228341
21
-3.1195904330708659
0
LINE
8
BLACK
6
CONTINUOUS
10
4.3469914173228341
20
-3.1195904330708659
11
4.3474409448818898
21
-3.1218503937007873
0
LINE
8
BLACK
6
CONTINUOUS
10
4.3474409448818898
20
-3.1218503937007873
11
4.3474409448818898
21
-3.1336614173228345
0
LINE
8
BLACK
6
CONTINUOUS
10
4.3474409448818898
20
-3.1336614173228345
11
4.3469914173228341
21
-3.1359213779527559
0
LINE
8
BLACK
6
CONTINUOUS
10
4.3469914173228341
20
-3.1359213779527559
11
4.3457112598425196
21
-3.1378372440944879
0
LINE
8
BLACK
6
CONTINUOUS
10
4.3457112598425196
20
-3.1378372440944879
11
4.3437953937007876
21
-3.1391174015748029
0
LINE
8
BLACK
6
CONTINUOUS
10
4.3437953937007876
20
-3.1391174015748029
11
4.3415354330708658
21
-3.1395669291338582
0
LINE
8
BLACK
6
CONTINUOUS
10
4.3415354330708658
20
-3.1395669291338582
11
4.2726377952755907
21
-3.1395669291338582
0
LINE
8
BLACK
6
CONTINUOUS
10
4.2726377952755907
20
-3.1395669291338582
11
4.2703778346456689
21
-3.1391174015748029
0
LINE
8
BLACK
6
CONTINUOUS
10
4.2703778346456689
20
-3.1391174015748029
11
4.2684619685039369
21
-3.1378372440944879
0
LINE
8
BLACK
6
CONTINUOUS
10
4.2684619685039369
20
-3.1378372440944879
11
4.2671818110236224
21
-3.1359213779527559
0
LINE
8
BLACK
6
CONTINUOUS
10
4.2671818110236224
20
-3.1359213779527559
11
4.2667322834645667
21
-3.1336614173228345
0
LINE
8
BLACK
6
CONTINUOUS
10
4.2667322834645667
20
-3.1336614173228345
11
4.2667322834645667
21
-3.1218503937007873
0
LINE
8
BLACK
6
CONTINUOUS
10
4.2667322834645667
20
-3.1218503937007873
11
4.2671818110236224
21
-3.1195904330708659
0
LINE
8
BLACK
6
CONTINUOUS
10
4.2671818110236224
20
-3.1195904330708659
11
4.2684619685039369
21
-3.1176745669291339
0
LINE
8
BLACK
6
CONTINUOUS
10
4.2684619685039369
20
-3.1176745669291339
11
4.2703778346456689
21
-3.116394409448819
0
LINE
8
BLACK
6
CONTINUOUS
10
4.2703778346456689
20
-3.116394409448819
11
4.2726377952755907
21
-3.1159448818897637
0
LINE
8
BLACK
6
CONTINUOUS
10
4.2726377952755907
20
-3.1159448818897637
11
4.3415354330708658
21
-3.1159448818897637
0
LINE
8
BLACK
6
CONTINUOUS
10
4.3415354330708658
20
-3.1159448818897637
11
4.3437953937007876
21
-3.116394409448819
0
LINE
8
BLACK
6
CONTINUOUS
10
4.7870078740157478
20
-3.1181102362204722
11
4.7476377952755904
21
-3.1181102362204722
0
LINE
8
BLACK
6
CONTINUOUS
10
4.7476377952755904
20
-3.1181102362204722
11
4.7476377952755904
21
-3.1023622047244093
0
LINE
8
BLACK
6
CONTINUOUS
10
4.7476377952755904
20
-3.1023622047244093
11
4.7870078740157478
21
-3.1023622047244093
0
LINE
8
BLACK
6
CONTINUOUS
10
4.7870078740157478
20
-3.1023622047244093
11
4.7870078740157478
21
-3.1181102362204722
0
LINE
8
BLACK
6
CONTINUOUS
10
3.9776536614173228
20
-3.0663944094488187
11
3.9795695275590552
21
-3.0676745669291337
0
LINE
8
BLACK
6
CONTINUOUS
10
3.9795695275590552
20
-3.0676745669291337
11
3.9808496850393702
21
-3.0695904330708661
0
LINE
8
BLACK
6
CONTINUOUS
10
3.9808496850393702
20
-3.0695904330708661
11
3.981299212598425
21
-3.0718503937007875
0
LINE
8
BLACK
6
CONTINUOUS
10
3.981299212598425
20
-3.0718503937007875
11
3.981299212598425
21
-3.0836614173228347
0
LINE
8
BLACK
6
CONTINUOUS
10
3.981299212598425
20
-3.0836614173228347
11
3.9808496850393702
21
-3.0859213779527557
0
LINE
8
BLACK
6
CONTINUOUS
10
3.9808496850393702
20
-3.0859213779527557
11
3.9795695275590552
21
-3.0878372440944881
0
LINE
8
BLACK
6
CONTINUOUS
10
3.9795695275590552
20
-3.0878372440944881
11
3.9776536614173228
21
-3.0891174015748031
0
LINE
8
BLACK
6
CONTINUOUS
10
3.9776536614173228
20
-3.0891174015748031
11
3.9753937007874014
21
-3.0895669291338583
0
LINE
8
BLACK
6
CONTINUOUS
10
3.9753937007874014
20
-3.0895669291338583
11
3.9064960629921259
21
-3.0895669291338583
0
LINE
8
BLACK
6
CONTINUOUS
10
3.9064960629921259
20
-3.0895669291338583
11
3.9042361023622045
21
-3.0891174015748031
0
LINE
8
BLACK
6
CONTINUOUS
10
3.9042361023622045
20
-3.0891174015748031
11
3.9023202362204725
21
-3.0878372440944881
0
LINE
8
BLACK
6
CONTINUOUS
10
3.9023202362204725
20
-3.0878372440944881
11
3.9010400787401576
21
-3.0859213779527557
0
LINE
8
BLACK
6
CONTINUOUS
10
3.9010400787401576
20
-3.0859213779527557
11
3.9005905511811023
21
-3.0836614173228347
0
LINE
8
BLACK
6
CONTINUOUS
10
3.9005905511811023
20
-3.0836614173228347
11
3.9005905511811023
21
-3.0718503937007875
0
LINE
8
BLACK
6
CONTINUOUS
10
3.9005905511811023
20
-3.0718503937007875
11
3.9010400787401576
21
-3.0695904330708661
0
LINE
8
BLACK
6
CONTINUOUS
10
3.9010400787401576
20
-3.0695904330708661
11
3.9023202362204725
21
-3.0676745669291337
0
LINE
8
BLACK
6
CONTINUOUS
10
3.9023202362204725
20
-3.0676745669291337
11
3.9042361023622045
21
-3.0663944094488187
0
LINE
8
BLACK
6
CONTINUOUS
10
3.9042361023622045
20
-3.0663944094488187
11
3.9064960629921259
21
-3.0659448818897639
0
LINE
8
BLACK
6
CONTINUOUS
10
3.9064960629921259
20
-3.0659448818897639
11
3.9753937007874014
21
-3.0659448818897639
0
LINE
8
BLACK
6
CONTINUOUS
10
3.9753937007874014
20
-3.0659448818897639
11
3.9776536614173228
21
-3.0663944094488187
0
LINE
8
BLACK
6
CONTINUOUS
10
4.3437953937007876
20
-3.0663944094488187
11
4.3457112598425196
21
-3.0676745669291337
0
LINE
8
BLACK
6
CONTINUOUS
10
4.3457112598425196
20
-3.0676745669291337
11
4.3469914173228341
21
-3.0695904330708661
0
LINE
8
BLACK
6
CONTINUOUS
10
4.3469914173228341
20
-3.0695904330708661
11
4.3474409448818898
21
-3.0718503937007875
0
LINE
8
BLACK
6
CONTINUOUS
10
4.3474409448818898
20
-3.0718503937007875
11
4.3474409448818898
21
-3.0836614173228347
0
LINE
8
BLACK
6
CONTINUOUS
10
4.3474409448818898
20
-3.0836614173228347
11
4.3469914173228341
21
-3.0859213779527557
0
LINE
8
BLACK
6
CONTINUOUS
10
4.3469914173228341
20
-3.0859213779527557
11
4.3457112598425196
21
-3.0878372440944881
0
LINE
8
BLACK
6
CONTINUOUS
10
4.3457112598425196
20
-3.0878372440944881
11
4.3437953937007876
21
-3.0891174015748031
0
LINE
8
BLACK
6
CONTINUOUS
10
4.3437953937007876
20
-3.0891174015748031
11
4.3415354330708658
21
-3.0895669291338583
0
LINE
8
BLACK
6
CONTINUOUS
10
4.3415354330708658
20
-3.0895669291338583
11
4.2726377952755907
21
-3.0895669291338583
0
LINE
8
BLACK
6
CONTINUOUS
10
4.2726377952755907
20
-3.0895669291338583
11
4.2703778346456689
21
-3.0891174015748031
0
LINE
8
BLACK
6
CONTINUOUS
10
4.2703778346456689
20
-3.0891174015748031
11
4.2684619685039369
21
-3.0878372440944881
0
LINE
8
BLACK
6
CONTINUOUS
10
4.2684619685039369
20
-3.0878372440944881
11
4.2671818110236224
21
-3.0859213779527557
0
LINE
8
BLACK
6
CONTINUOUS
10
4.2671818110236224
20
-3.0859213779527557
11
4.2667322834645667
21
-3.0836614173228347
0
LINE
8
BLACK
6
CONTINUOUS
10
4.2667322834645667
20
-3.0836614173228347
11
4.2667322834645667
21
-3.0718503937007875
0
LINE
8
BLACK
6
CONTINUOUS
10
4.2667322834645667
20
-3.0718503937007875
11
4.2671818110236224
21
-3.0695904330708661
0
LINE
8
BLACK
6
CONTINUOUS
10
4.2671818110236224
20
-3.0695904330708661
11
4.2684619685039369
21
-3.0676745669291337
0
LINE
8
BLACK
6
CONTINUOUS
10
4.2684619685039369
20
-3.0676745669291337
11
4.2703778346456689
21
-3.0663944094488187
0
LINE
8
BLACK
6
CONTINUOUS
10
4.2703778346456689
20
-3.0663944094488187
11
4.2726377952755907
21
-3.0659448818897639
0
LINE
8
BLACK
6
CONTINUOUS
10
4.2726377952755907
20
-3.0659448818897639
11
4.3415354330708658
21
-3.0659448818897639
0
LINE
8
BLACK
6
CONTINUOUS
10
4.3415354330708658
20
-3.0659448818897639
11
4.3437953937007876
21
-3.0663944094488187
0
LINE
8
BLACK
6
CONTINUOUS
10
3.3836878346456691
20
-3.0243712598425194
11
3.3868809842519685
21
-3.0265048425196848
0
LINE
8
BLACK
6
CONTINUOUS
10
3.3868809842519685
20
-3.0265048425196848
11
3.3890145669291338
21
-3.0296979921259841
0
LINE
8
BLACK
6
CONTINUOUS
10
3.3890145669291338
20
-3.0296979921259841
11
3.3897637795275588
21
-3.0334645669291338
0
LINE
8
BLACK
6
CONTINUOUS
10
3.3897637795275588
20
-3.0334645669291338
11
3.3897637795275588
21
-3.0688976377952755
0
LINE
8
BLACK
6
CONTINUOUS
10
3.3897637795275588
20
-3.0688976377952755
11
3.3890145669291338
21
-3.0726642125984251
0
LINE
8
BLACK
6
CONTINUOUS
10
3.3890145669291338
20
-3.0726642125984251
11
3.3868809842519685
21
-3.0758573622047245
0
LINE
8
BLACK
6
CONTINUOUS
10
3.3868809842519685
20
-3.0758573622047245
11
3.3836878346456691
21
-3.0779909448818898
0
LINE
8
BLACK
6
CONTINUOUS
10
3.3836878346456691
20
-3.0779909448818898
11
3.3799212598425195
21
-3.0787401574803148
0
LINE
8
BLACK
6
CONTINUOUS
10
3.3799212598425195
20
-3.0787401574803148
11
3.3523622047244093
21
-3.0787401574803148
0
LINE
8
BLACK
6
CONTINUOUS
10
3.3523622047244093
20
-3.0787401574803148
11
3.3485956299212596
21
-3.0779909448818898
0
LINE
8
BLACK
6
CONTINUOUS
10
3.3485956299212596
20
-3.0779909448818898
11
3.3454024803149607
21
-3.0758573622047245
0
LINE
8
BLACK
6
CONTINUOUS
10
3.3454024803149607
20
-3.0758573622047245
11
3.3432688976377953
21
-3.0726642125984251
0
LINE
8
BLACK
6
CONTINUOUS
10
3.3432688976377953
20
-3.0726642125984251
11
3.3425196850393699
21
-3.0688976377952755
0
LINE
8
BLACK
6
CONTINUOUS
10
3.3425196850393699
20
-3.0688976377952755
11
3.3425196850393699
21
-3.0334645669291338
0
LINE
8
BLACK
6
CONTINUOUS
10
3.3425196850393699
20
-3.0334645669291338
11
3.3432688976377953
21
-3.0296979921259841
0
LINE
8
BLACK
6
CONTINUOUS
10
3.3432688976377953
20
-3.0296979921259841
11
3.3454024803149607
21
-3.0265048425196848
0
LINE
8
BLACK
6
CONTINUOUS
10
3.3454024803149607
20
-3.0265048425196848
11
3.3485956299212596
21
-3.0243712598425194
0
LINE
8
BLACK
6
CONTINUOUS
10
3.3485956299212596
20
-3.0243712598425194
11
3.3523622047244093
21
-3.0236220472440944
0
LINE
8
BLACK
6
CONTINUOUS
10
3.3523622047244093
20
-3.0236220472440944
11
3.3799212598425195
21
-3.0236220472440944
0
LINE
8
BLACK
6
CONTINUOUS
10
3.3799212598425195
20
-3.0236220472440944
11
3.3836878346456691
21
-3.0243712598425194
0
LINE
8
BLACK
6
CONTINUOUS
10
3.462427992125984
20
-3.0243712598425194
11
3.4656211417322833
21
-3.0265048425196848
0
LINE
8
BLACK
6
CONTINUOUS
10
3.4656211417322833
20
-3.0265048425196848
11
3.4677547244094487
21
-3.0296979921259841
0
LINE
8
BLACK
6
CONTINUOUS
10
3.4677547244094487
20
-3.0296979921259841
11
3.4685039370078741
21
-3.0334645669291338
0
LINE
8
BLACK
6
CONTINUOUS
10
3.4685039370078741
20
-3.0334645669291338
11
3.4685039370078741
21
-3.0688976377952755
0
LINE
8
BLACK
6
CONTINUOUS
10
3.4685039370078741
20
-3.0688976377952755
11
3.4677547244094487
21
-3.0726642125984251
0
LINE
8
BLACK
6
CONTINUOUS
10
3.4677547244094487
20
-3.0726642125984251
11
3.4656211417322833
21
-3.0758573622047245
0
LINE
8
BLACK
6
CONTINUOUS
10
3.4656211417322833
20
-3.0758573622047245
11
3.462427992125984
21
-3.0779909448818898
0
LINE
8
BLACK
6
CONTINUOUS
10
3.462427992125984
20
-3.0779909448818898
11
3.4586614173228347
21
-3.0787401574803148
0
LINE
8
BLACK
6
CONTINUOUS
10
3.4586614173228347
20
-3.0787401574803148
11
3.4311023622047245
21
-3.0787401574803148
0
LINE
8
BLACK
6
CONTINUOUS
10
3.4311023622047245
20
-3.0787401574803148
11
3.4273357874015749
21
-3.0779909448818898
0
LINE
8
BLACK
6
CONTINUOUS
10
3.4273357874015749
20
-3.0779909448818898
11
3.4241426377952755
21
-3.0758573622047245
0
LINE
8
BLACK
6
CONTINUOUS
10
3.4241426377952755
20
-3.0758573622047245
11
3.4220090551181102
21
-3.0726642125984251
0
LINE
8
BLACK
6
CONTINUOUS
10
3.4220090551181102
20
-3.0726642125984251
11
3.4212598425196852
21
-3.0688976377952755
0
LINE
8
BLACK
6
CONTINUOUS
10
3.4212598425196852
20
-3.0688976377952755
11
3.4212598425196852
21
-3.0334645669291338
0
LINE
8
BLACK
6
CONTINUOUS
10
3.4212598425196852
20
-3.0334645669291338
11
3.4220090551181102
21
-3.0296979921259841
0
LINE
8
BLACK
6
CONTINUOUS
10
3.4220090551181102
20
-3.0296979921259841
11
3.4241426377952755
21
-3.0265048425196848
0
LINE
8
BLACK
6
CONTINUOUS
10
3.4241426377952755
20
-3.0265048425196848
11
3.4273357874015749
21
-3.0243712598425194
0
LINE
8
BLACK
6
CONTINUOUS
10
3.4273357874015749
20
-3.0243712598425194
11
3.4311023622047245
21
-3.0236220472440944
0
LINE
8
BLACK
6
CONTINUOUS
10
3.4311023622047245
20
-3.0236220472440944
11
3.4586614173228347
21
-3.0236220472440944
0
LINE
8
BLACK
6
CONTINUOUS
10
3.4586614173228347
20
-3.0236220472440944
11
3.462427992125984
21
-3.0243712598425194
0
LINE
8
BLACK
6
CONTINUOUS
10
4.7870078740157478
20
-3.0787401574803148
11
4.7476377952755904
21
-3.0787401574803148
0
LINE
8
BLACK
6
CONTINUOUS
10
4.7476377952755904
20
-3.0787401574803148
11
4.7476377952755904
21
-3.0629921259842519
0
LINE
8
BLACK
6
CONTINUOUS
10
4.7476377952755904
20
-3.0629921259842519
11
4.7870078740157478
21
-3.0629921259842519
0
LINE
8
BLACK
6
CONTINUOUS
10
4.7870078740157478
20
-3.0629921259842519
11
4.7870078740157478
21
-3.0787401574803148
0
LINE
8
BLACK
6
CONTINUOUS
10
3.6289370078740157
20
-3.0620078740157481
11
3.5442913385826769
21
-3.0620078740157481
0
LINE
8
BLACK
6
CONTINUOUS
10
3.5442913385826769
20
-3.0620078740157481
11
3.5442913385826769
21
-3.0246062992125982
0
LINE
8
BLACK
6
CONTINUOUS
10
3.5442913385826769
20
-3.0246062992125982
11
3.6289370078740157
21
-3.0246062992125982
0
LINE
8
BLACK
6
CONTINUOUS
10
3.6289370078740157
20
-3.0246062992125982
11
3.6289370078740157
21
-3.0620078740157481
0
LINE
8
BLACK
6
CONTINUOUS
10
3.9776536614173228
20
-3.0163944094488189
11
3.9795695275590552
21
-3.0176745669291338
0
LINE
8
BLACK
6
CONTINUOUS
10
3.9795695275590552
20
-3.0176745669291338
11
3.9808496850393702
21
-3.0195904330708663
0
LINE
8
BLACK
6
CONTINUOUS
10
3.9808496850393702
20
-3.0195904330708663
11
3.981299212598425
21
-3.0218503937007872
0
LINE
8
BLACK
6
CONTINUOUS
10
3.981299212598425
20
-3.0218503937007872
11
3.981299212598425
21
-3.0336614173228345
0
LINE
8
BLACK
6
CONTINUOUS
10
3.981299212598425
20
-3.0336614173228345
11
3.9808496850393702
21
-3.0359213779527559
0
LINE
8
BLACK
6
CONTINUOUS
10
3.9808496850393702
20
-3.0359213779527559
11
3.9795695275590552
21
-3.0378372440944883
0
LINE
8
BLACK
6
CONTINUOUS
10
3.9795695275590552
20
-3.0378372440944883
11
3.9776536614173228
21
-3.0391174015748033
0
LINE
8
BLACK
6
CONTINUOUS
10
3.9776536614173228
20
-3.0391174015748033
11
3.9753937007874014
21
-3.0395669291338581
0
LINE
8
BLACK
6
CONTINUOUS
10
3.9753937007874014
20
-3.0395669291338581
11
3.9064960629921259
21
-3.0395669291338581
0
LINE
8
BLACK
6
CONTINUOUS
10
3.9064960629921259
20
-3.0395669291338581
11
3.9042361023622045
21
-3.0391174015748033
0
LINE
8
BLACK
6
CONTINUOUS
10
3.9042361023622045
20
-3.0391174015748033
11
3.9023202362204725
21
-3.0378372440944883
0
LINE
8
BLACK
6
CONTINUOUS
10
3.9023202362204725
20
-3.0378372440944883
11
3.9010400787401576
21
-3.0359213779527559
0
LINE
8
BLACK
6
CONTINUOUS
10
3.9010400787401576
20
-3.0359213779527559
11
3.9005905511811023
21
-3.0336614173228345
0
LINE
8
BLACK
6
CONTINUOUS
10
3.9005905511811023
20
-3.0336614173228345
11
3.9005905511811023
21
-3.0218503937007872
0
LINE
8
BLACK
6
CONTINUOUS
10
3.9005905511811023
20
-3.0218503937007872
11
3.9010400787401576
21
-3.0195904330708663
0
LINE
8
BLACK
6
CONTINUOUS
10
3.9010400787401576
20
-3.0195904330708663
11
3.9023202362204725
21
-3.0176745669291338
0
LINE
8
BLACK
6
CONTINUOUS
10
3.9023202362204725
20
-3.0176745669291338
11
3.9042361023622045
21
-3.0163944094488189
0
LINE
8
BLACK
6
CONTINUOUS
10
3.9042361023622045
20
-3.0163944094488189
11
3.9064960629921259
21
-3.0159448818897636
0
LINE
8
BLACK
6
CONTINUOUS
10
3.9064960629921259
20
-3.0159448818897636
11
3.9753937007874014
21
-3.0159448818897636
0
LINE
8
BLACK
6
CONTINUOUS
10
3.9753937007874014
20
-3.0159448818897636
11
3.9776536614173228
21
-3.0163944094488189
0
LINE
8
BLACK
6
CONTINUOUS
10
4.3437953937007876
20
-3.0163944094488189
11
4.3457112598425196
21
-3.0176745669291338
0
LINE
8
BLACK
6
CONTINUOUS
10
4.3457112598425196
20
-3.0176745669291338
11
4.3469914173228341
21
-3.0195904330708663
0
LINE
8
BLACK
6
CONTINUOUS
10
4.3469914173228341
20
-3.0195904330708663
11
4.3474409448818898
21
-3.0218503937007872
0
LINE
8
BLACK
6
CONTINUOUS
10
4.3474409448818898
20
-3.0218503937007872
11
4.3474409448818898
21
-3.0336614173228345
0
LINE
8
BLACK
6
CONTINUOUS
10
4.3474409448818898
20
-3.0336614173228345
11
4.3469914173228341
21
-3.0359213779527559
0
LINE
8
BLACK
6
CONTINUOUS
10
4.3469914173228341
20
-3.0359213779527559
11
4.3457112598425196
21
-3.0378372440944883
0
LINE
8
BLACK
6
CONTINUOUS
10
4.3457112598425196
20
-3.0378372440944883
11
4.3437953937007876
21
-3.0391174015748033
0
LINE
8
BLACK
6
CONTINUOUS
10
4.3437953937007876
20
-3.0391174015748033
11
4.3415354330708658
21
-3.0395669291338581
0
LINE
8
BLACK
6
CONTINUOUS
10
4.3415354330708658
20
-3.0395669291338581
11
4.2726377952755907
21
-3.0395669291338581
0
LINE
8
BLACK
6
CONTINUOUS
10
4.2726377952755907
20
-3.0395669291338581
11
4.2703778346456689
21
-3.0391174015748033
0
LINE
8
BLACK
6
CONTINUOUS
10
4.2703778346456689
20
-3.0391174015748033
11
4.2684619685039369
21
-3.0378372440944883
0
LINE
8
BLACK
6
CONTINUOUS
10
4.2684619685039369
20
-3.0378372440944883
11
4.2671818110236224
21
-3.0359213779527559
0
LINE
8
BLACK
6
CONTINUOUS
10
4.2671818110236224
20
-3.0359213779527559
11
4.2667322834645667
21
-3.0336614173228345
0
LINE
8
BLACK
6
CONTINUOUS
10
4.2667322834645667
20
-3.0336614173228345
11
4.2667322834645667
21
-3.0218503937007872
0
LINE
8
BLACK
6
CONTINUOUS
10
4.2667322834645667
20
-3.0218503937007872
11
4.2671818110236224
21
-3.0195904330708663
0
LINE
8
BLACK
6
CONTINUOUS
10
4.2671818110236224
20
-3.0195904330708663
11
4.2684619685039369
21
-3.0176745669291338
0
LINE
8
BLACK
6
CONTINUOUS
10
4.2684619685039369
20
-3.0176745669291338
11
4.2703778346456689
21
-3.0163944094488189
0
LINE
8
BLACK
6
CONTINUOUS
10
4.2703778346456689
20
-3.0163944094488189
11
4.2726377952755907
21
-3.0159448818897636
0
LINE
8
BLACK
6
CONTINUOUS
10
4.2726377952755907
20
-3.0159448818897636
11
4.3415354330708658
21
-3.0159448818897636
0
LINE
8
BLACK
6
CONTINUOUS
10
4.3415354330708658
20
-3.0159448818897636
11
4.3437953937007876
21
-3.0163944094488189
0
LINE
8
BLACK
6
CONTINUOUS
10
4.7870078740157478
20
-3.0393700787401574
11
4.7476377952755904
21
-3.0393700787401574
0
LINE
8
BLACK
6
CONTINUOUS
10
4.7476377952755904
20
-3.0393700787401574
11
4.7476377952755904
21
-3.0236220472440944
0
LINE
8
BLACK
6
CONTINUOUS
10
4.7476377952755904
20
-3.0236220472440944
11
4.7870078740157478
21
-3.0236220472440944
0
LINE
8
BLACK
6
CONTINUOUS
10
4.7870078740157478
20
-3.0236220472440944
11
4.7870078740157478
21
-3.0393700787401574
0
LINE
8
BLACK
6
CONTINUOUS
10
3.8572834645669292
20
-3.0167322834645667
11
3.7726377952755903
21
-3.0167322834645667
0
LINE
8
BLACK
6
CONTINUOUS
10
3.7726377952755903
20
-3.0167322834645667
11
3.7726377952755903
21
-2.8887795275590551
0
LINE
8
BLACK
6
CONTINUOUS
10
3.7726377952755903
20
-2.8887795275590551
11
3.8572834645669292
21
-2.8887795275590551
0
LINE
8
BLACK
6
CONTINUOUS
10
3.8572834645669292
20
-2.8887795275590551
11
3.8572834645669292
21
-3.0167322834645667
0
LINE
8
BLACK
6
CONTINUOUS
10
4.7870078740157478
20
-3.
11
4.7476377952755904
21
-3.
0
LINE
8
BLACK
6
CONTINUOUS
10
4.7476377952755904
20
-3.
11
4.7476377952755904
21
-2.984251968503937
0
LINE
8
BLACK
6
CONTINUOUS
10
4.7476377952755904
20
-2.984251968503937
11
4.7870078740157478
21
-2.984251968503937
0
LINE
8
BLACK
6
CONTINUOUS
10
4.7870078740157478
20
-2.984251968503937
11
4.7870078740157478
21
-3.
0
LINE
8
BLACK
6
CONTINUOUS
10
3.9776536614173228
20
-2.966394409448819
11
3.9795695275590552
21
-2.967674566929134
0
LINE
8
BLACK
6
CONTINUOUS
10
3.9795695275590552
20
-2.967674566929134
11
3.9808496850393702
21
-2.969590433070866
0
LINE
8
BLACK
6
CONTINUOUS
10
3.9808496850393702
20
-2.969590433070866
11
3.981299212598425
21
-2.9718503937007874
0
LINE
8
BLACK
6
CONTINUOUS
10
3.981299212598425
20
-2.9718503937007874
11
3.981299212598425
21
-2.9836614173228346
0
LINE
8
BLACK
6
CONTINUOUS
10
3.981299212598425
20
-2.9836614173228346
11
3.9808496850393702
21
-2.985921377952756
0
LINE
8
BLACK
6
CONTINUOUS
10
3.9808496850393702
20
-2.985921377952756
11
3.9795695275590552
21
-2.987837244094488
0
LINE
8
BLACK
6
CONTINUOUS
10
3.9795695275590552
20
-2.987837244094488
11
3.9776536614173228
21
-2.989117401574803
0
LINE
8
BLACK
6
CONTINUOUS
10
3.9776536614173228
20
-2.989117401574803
11
3.9753937007874014
21
-2.9895669291338582
0
LINE
8
BLACK
6
CONTINUOUS
10
3.9753937007874014
20
-2.9895669291338582
11
3.9064960629921259
21
-2.9895669291338582
0
LINE
8
BLACK
6
CONTINUOUS
10
3.9064960629921259
20
-2.9895669291338582
11
3.9042361023622045
21
-2.989117401574803
0
LINE
8
BLACK
6
CONTINUOUS
10
3.9042361023622045
20
-2.989117401574803
11
3.9023202362204725
21
-2.987837244094488
0
LINE
8
BLACK
6
CONTINUOUS
10
3.9023202362204725
20
-2.987837244094488
11
3.9010400787401576
21
-2.985921377952756
0
LINE
8
BLACK
6
CONTINUOUS
10
3.9010400787401576
20
-2.985921377952756
11
3.9005905511811023
21
-2.9836614173228346
0
LINE
8
BLACK
6
CONTINUOUS
10
3.9005905511811023
20
-2.9836614173228346
11
3.9005905511811023
21
-2.9718503937007874
0
LINE
8
BLACK
6
CONTINUOUS
10
3.9005905511811023
20
-2.9718503937007874
11
3.9010400787401576
21
-2.969590433070866
0
LINE
8
BLACK
6
CONTINUOUS
10
3.9010400787401576
20
-2.969590433070866
11
3.9023202362204725
21
-2.967674566929134
0
LINE
8
BLACK
6
CONTINUOUS
10
3.9023202362204725
20
-2.967674566929134
11
3.9042361023622045
21
-2.966394409448819
0
LINE
8
BLACK
6
CONTINUOUS
10
3.9042361023622045
20
-2.966394409448819
11
3.9064960629921259
21
-2.9659448818897638
0
LINE
8
BLACK
6
CONTINUOUS
10
3.9064960629921259
20
-2.9659448818897638
11
3.9753937007874014
21
-2.9659448818897638
0
LINE
8
BLACK
6
CONTINUOUS
10
3.9753937007874014
20
-2.9659448818897638
11
3.9776536614173228
21
-2.966394409448819
0
LINE
8
BLACK
6
CONTINUOUS
10
4.3437953937007876
20
-2.966394409448819
11
4.3457112598425196
21
-2.967674566929134
0
LINE
8
BLACK
6
CONTINUOUS
10
4.3457112598425196
20
-2.967674566929134
11
4.3469914173228341
21
-2.969590433070866
0
LINE
8
BLACK
6
CONTINUOUS
10
4.3469914173228341
20
-2.969590433070866
11
4.3474409448818898
21
-2.9718503937007874
0
LINE
8
BLACK
6
CONTINUOUS
10
4.3474409448818898
20
-2.9718503937007874
11
4.3474409448818898
21
-2.9836614173228346
0
LINE
8
BLACK
6
CONTINUOUS
10
4.3474409448818898
20
-2.9836614173228346
11
4.3469914173228341
21
-2.985921377952756
0
LINE
8
BLACK
6
CONTINUOUS
10
4.3469914173228341
20
-2.985921377952756
11
4.3457112598425196
21
-2.987837244094488
0
LINE
8
BLACK
6
CONTINUOUS
10
4.3457112598425196
20
-2.987837244094488
11
4.3437953937007876
21
-2.989117401574803
0
LINE
8
BLACK
6
CONTINUOUS
10
4.3437953937007876
20
-2.989117401574803
11
4.3415354330708658
21
-2.9895669291338582
0
LINE
8
BLACK
6
CONTINUOUS
10
4.3415354330708658
20
-2.9895669291338582
11
4.2726377952755907
21
-2.9895669291338582
0
LINE
8
BLACK
6
CONTINUOUS
10
4.2726377952755907
20
-2.9895669291338582
11
4.2703778346456689
21
-2.989117401574803
0
LINE
8
BLACK
6
CONTINUOUS
10
4.2703778346456689
20
-2.989117401574803
11
4.2684619685039369
21
-2.987837244094488
0
LINE
8
BLACK
6
CONTINUOUS
10
4.2684619685039369
20
-2.987837244094488
11
4.2671818110236224
21
-2.985921377952756
0
LINE
8
BLACK
6
CONTINUOUS
10
4.2671818110236224
20
-2.985921377952756
11
4.2667322834645667
21
-2.9836614173228346
0
LINE
8
BLACK
6
CONTINUOUS
10
4.2667322834645667
20
-2.9836614173228346
11
4.2667322834645667
21
-2.9718503937007874
0
LINE
8
BLACK
6
CONTINUOUS
10
4.2667322834645667
20
-2.9718503937007874
11
4.2671818110236224
21
-2.969590433070866
0
LINE
8
BLACK
6
CONTINUOUS
10
4.2671818110236224
20
-2.969590433070866
11
4.2684619685039369
21
-2.967674566929134
0
LINE
8
BLACK
6
CONTINUOUS
10
4.2684619685039369
20
-2.967674566929134
11
4.2703778346456689
21
-2.966394409448819
0
LINE
8
BLACK
6
CONTINUOUS
10
4.2703778346456689
20
-2.966394409448819
11
4.2726377952755907
21
-2.9659448818897638
0
LINE
8
BLACK
6
CONTINUOUS
10
4.2726377952755907
20
-2.9659448818897638
11
4.3415354330708658
21
-2.9659448818897638
0
LINE
8
BLACK
6
CONTINUOUS
10
4.3415354330708658
20
-2.9659448818897638
11
4.3437953937007876
21
-2.966394409448819
0
LINE
8
BLACK
6
CONTINUOUS
10
3.4870342913385826
20
-2.9318515748031495
11
3.4902274409448819
21
-2.9339851574803149
0
LINE
8
BLACK
6
CONTINUOUS
10
3.4902274409448819
20
-2.9339851574803149
11
3.4923610236220473
21
-2.9371783070866142
0
LINE
8
BLACK
6
CONTINUOUS
10
3.4923610236220473
20
-2.9371783070866142
11
3.4931102362204722
21
-2.9409448818897639
0
LINE
8
BLACK
6
CONTINUOUS
10
3.4931102362204722
20
-2.9409448818897639
11
3.4931102362204722
21
-2.9675196850393699
0
LINE
8
BLACK
6
CONTINUOUS
10
3.4931102362204722
20
-2.9675196850393699
11
3.4923610236220473
21
-2.9712862598425196
0
LINE
8
BLACK
6
CONTINUOUS
10
3.4923610236220473
20
-2.9712862598425196
11
3.4902274409448819
21
-2.9744794094488189
0
LINE
8
BLACK
6
CONTINUOUS
10
3.4902274409448819
20
-2.9744794094488189
11
3.4870342913385826
21
-2.9766129921259843
0
LINE
8
BLACK
6
CONTINUOUS
10
3.4870342913385826
20
-2.9766129921259843
11
3.4832677165354329
21
-2.9773622047244093
0
LINE
8
BLACK
6
CONTINUOUS
10
3.4832677165354329
20
-2.9773622047244093
11
3.4458661417322833
21
-2.9773622047244093
0
LINE
8
BLACK
6
CONTINUOUS
10
3.4458661417322833
20
-2.9773622047244093
11
3.4420995669291337
21
-2.9766129921259843
0
LINE
8
BLACK
6
CONTINUOUS
10
3.4420995669291337
20
-2.9766129921259843
11
3.4389064173228348
21
-2.9744794094488189
0
LINE
8
BLACK
6
CONTINUOUS
10
3.4389064173228348
20
-2.9744794094488189
11
3.4367728346456694
21
-2.9712862598425196
0
LINE
8
BLACK
6
CONTINUOUS
10
3.4367728346456694
20
-2.9712862598425196
11
3.436023622047244
21
-2.9675196850393699
0
LINE
8
BLACK
6
CONTINUOUS
10
3.436023622047244
20
-2.9675196850393699
11
3.436023622047244
21
-2.9409448818897639
0
LINE
8
BLACK
6
CONTINUOUS
10
3.436023622047244
20
-2.9409448818897639
11
3.4367728346456694
21
-2.9371783070866142
0
LINE
8
BLACK
6
CONTINUOUS
10
3.4367728346456694
20
-2.9371783070866142
11
3.4389064173228348
21
-2.9339851574803149
0
LINE
8
BLACK
6
CONTINUOUS
10
3.4389064173228348
20
-2.9339851574803149
11
3.4420995669291337
21
-2.9318515748031495
0
LINE
8
BLACK
6
CONTINUOUS
10
3.4420995669291337
20
-2.9318515748031495
11
3.4458661417322833
21
-2.9311023622047245
0
LINE
8
BLACK
6
CONTINUOUS
10
3.4458661417322833
20
-2.9311023622047245
11
3.4832677165354329
21
-2.9311023622047245
0
LINE
8
BLACK
6
CONTINUOUS
10
3.4832677165354329
20
-2.9311023622047245
11
3.4870342913385826
21
-2.9318515748031495
0
LINE
8
BLACK
6
CONTINUOUS
10
3.3876248425196849
20
-2.9298830708661416
11
3.3908179921259842
21
-2.932016653543307
0
LINE
8
BLACK
6
CONTINUOUS
10
3.3908179921259842
20
-2.932016653543307
11
3.3929515748031496
21
-2.9352098031496063
0
LINE
8
BLACK
6
CONTINUOUS
10
3.3929515748031496
20
-2.9352098031496063
11
3.3937007874015745
21
-2.938976377952756
0
LINE
8
BLACK
6
CONTINUOUS
10
3.3937007874015745
20
-2.938976377952756
11
3.3937007874015745
21
-2.9665354330708662
0
LINE
8
BLACK
6
CONTINUOUS
10
3.3937007874015745
20
-2.9665354330708662
11
3.3929515748031496
21
-2.9703020078740159
0
LINE
8
BLACK
6
CONTINUOUS
10
3.3929515748031496
20
-2.9703020078740159
11
3.3908179921259842
21
-2.9734951574803148
0
LINE
8
BLACK
6
CONTINUOUS
10
3.3908179921259842
20
-2.9734951574803148
11
3.3876248425196849
21
-2.9756287401574801
0
LINE
8
BLACK
6
CONTINUOUS
10
3.3876248425196849
20
-2.9756287401574801
11
3.3838582677165352
21
-2.9763779527559056
0
LINE
8
BLACK
6
CONTINUOUS
10
3.3838582677165352
20
-2.9763779527559056
11
3.3484251968503935
21
-2.9763779527559056
0
LINE
8
BLACK
6
CONTINUOUS
10
3.3484251968503935
20
-2.9763779527559056
11
3.3446586220472438
21
-2.9756287401574801
0
LINE
8
BLACK
6
CONTINUOUS
10
3.3446586220472438
20
-2.9756287401574801
11
3.3414654724409449
21
-2.9734951574803148
0
LINE
8
BLACK
6
CONTINUOUS
10
3.3414654724409449
20
-2.9734951574803148
11
3.3393318897637796
21
-2.9703020078740159
0
LINE
8
BLACK
6
CONTINUOUS
10
3.3393318897637796
20
-2.9703020078740159
11
3.3385826771653542
21
-2.9665354330708662
0
LINE
8
BLACK
6
CONTINUOUS
10
3.3385826771653542
20
-2.9665354330708662
11
3.3385826771653542
21
-2.938976377952756
0
LINE
8
BLACK
6
CONTINUOUS
10
3.3385826771653542
20
-2.938976377952756
11
3.3393318897637796
21
-2.9352098031496063
0
LINE
8
BLACK
6
CONTINUOUS
10
3.3393318897637796
20
-2.9352098031496063
11
3.3414654724409449
21
-2.932016653543307
0
LINE
8
BLACK
6
CONTINUOUS
10
3.3414654724409449
20
-2.932016653543307
11
3.3446586220472438
21
-2.9298830708661416
0
LINE
8
BLACK
6
CONTINUOUS
10
3.3446586220472438
20
-2.9298830708661416
11
3.3484251968503935
21
-2.9291338582677167
0
LINE
8
BLACK
6
CONTINUOUS
10
3.3484251968503935
20
-2.9291338582677167
11
3.3838582677165352
21
-2.9291338582677167
0
LINE
8
BLACK
6
CONTINUOUS
10
3.3838582677165352
20
-2.9291338582677167
11
3.3876248425196849
21
-2.9298830708661416
0
LINE
8
BLACK
6
CONTINUOUS
10
3.6289370078740157
20
-2.9714566929133857
11
3.5442913385826769
21
-2.9714566929133857
0
LINE
8
BLACK
6
CONTINUOUS
10
3.5442913385826769
20
-2.9714566929133857
11
3.5442913385826769
21
-2.9340551181102361
0
LINE
8
BLACK
6
CONTINUOUS
10
3.5442913385826769
20
-2.9340551181102361
11
3.6289370078740157
21
-2.9340551181102361
0
LINE
8
BLACK
6
CONTINUOUS
10
3.6289370078740157
20
-2.9340551181102361
11
3.6289370078740157
21
-2.9714566929133857
0
LINE
8
BLACK
6
CONTINUOUS
10
4.4321850393700783
20
-2.9695826771653544
11
4.3931850393700786
21
-2.9695826771653544
0
LINE
8
BLACK
6
CONTINUOUS
10
4.3931850393700786
20
-2.9695826771653544
11
4.3931850393700786
21
-2.9575826771653544
0
LINE
8
BLACK
6
CONTINUOUS
10
4.3931850393700786
20
-2.9575826771653544
11
4.4321850393700783
21
-2.9575826771653544
0
LINE
8
BLACK
6
CONTINUOUS
10
4.4321850393700783
20
-2.9575826771653544
11
4.4321850393700783
21
-2.9695826771653544
0
LINE
8
BLACK
6
CONTINUOUS
10
4.6619330708661417
20
-2.9695826771653544
11
4.622933070866142
21
-2.9695826771653544
0
LINE
8
BLACK
6
CONTINUOUS
10
4.622933070866142
20
-2.9695826771653544
11
4.622933070866142
21
-2.9575826771653544
0
LINE
8
BLACK
6
CONTINUOUS
10
4.622933070866142
20
-2.9575826771653544
11
4.6619330708661417
21
-2.9575826771653544
0
LINE
8
BLACK
6
CONTINUOUS
10
4.6619330708661417
20
-2.9575826771653544
11
4.6619330708661417
21
-2.9695826771653544
0
LINE
8
BLACK
6
CONTINUOUS
10
4.7870078740157478
20
-2.9606299212598426
11
4.7476377952755904
21
-2.9606299212598426
0
LINE
8
BLACK
6
CONTINUOUS
10
4.7476377952755904
20
-2.9606299212598426
11
4.7476377952755904
21
-2.9448818897637796
0
LINE
8
BLACK
6
CONTINUOUS
10
4.7476377952755904
20
-2.9448818897637796
11
4.7870078740157478
21
-2.9448818897637796
0
LINE
8
BLACK
6
CONTINUOUS
10
4.7870078740157478
20
-2.9448818897637796
11
4.7870078740157478
21
-2.9606299212598426
0
LINE
8
BLACK
6
CONTINUOUS
10
4.4321850393700783
20
-2.9439921259842521
11
4.3931850393700786
21
-2.9439921259842521
0
LINE
8
BLACK
6
CONTINUOUS
10
4.3931850393700786
20
-2.9439921259842521
11
4.3931850393700786
21
-2.9319921259842521
0
LINE
8
BLACK
6
CONTINUOUS
10
4.3931850393700786
20
-2.9319921259842521
11
4.4321850393700783
21
-2.9319921259842521
0
LINE
8
BLACK
6
CONTINUOUS
10
4.4321850393700783
20
-2.9319921259842521
11
4.4321850393700783
21
-2.9439921259842521
0
LINE
8
BLACK
6
CONTINUOUS
10
4.6619330708661417
20
-2.9439921259842521
11
4.622933070866142
21
-2.9439921259842521
0
LINE
8
BLACK
6
CONTINUOUS
10
4.622933070866142
20
-2.9439921259842521
11
4.622933070866142
21
-2.9319921259842521
0
LINE
8
BLACK
6
CONTINUOUS
10
4.622933070866142
20
-2.9319921259842521
11
4.6619330708661417
21
-2.9319921259842521
0
LINE
8
BLACK
6
CONTINUOUS
10
4.6619330708661417
20
-2.9319921259842521
11
4.6619330708661417
21
-2.9439921259842521
0
LINE
8
BLACK
6
CONTINUOUS
10
3.9776536614173228
20
-2.9163944094488188
11
3.9795695275590552
21
-2.9176745669291337
0
LINE
8
BLACK
6
CONTINUOUS
10
3.9795695275590552
20
-2.9176745669291337
11
3.9808496850393702
21
-2.9195904330708662
0
LINE
8
BLACK
6
CONTINUOUS
10
3.9808496850393702
20
-2.9195904330708662
11
3.981299212598425
21
-2.9218503937007871
0
LINE
8
BLACK
6
CONTINUOUS
10
3.981299212598425
20
-2.9218503937007871
11
3.981299212598425
21
-2.9336614173228344
0
LINE
8
BLACK
6
CONTINUOUS
10
3.981299212598425
20
-2.9336614173228344
11
3.9808496850393702
21
-2.9359213779527558
0
LINE
8
BLACK
6
CONTINUOUS
10
3.9808496850393702
20
-2.9359213779527558
11
3.9795695275590552
21
-2.9378372440944882
0
LINE
8
BLACK
6
CONTINUOUS
10
3.9795695275590552
20
-2.9378372440944882
11
3.9776536614173228
21
-2.9391174015748032
0
LINE
8
BLACK
6
CONTINUOUS
10
3.9776536614173228
20
-2.9391174015748032
11
3.9753937007874014
21
-2.9395669291338584
0
LINE
8
BLACK
6
CONTINUOUS
10
3.9753937007874014
20
-2.9395669291338584
11
3.9064960629921259
21
-2.9395669291338584
0
LINE
8
BLACK
6
CONTINUOUS
10
3.9064960629921259
20
-2.9395669291338584
11
3.9042361023622045
21
-2.9391174015748032
0
LINE
8
BLACK
6
CONTINUOUS
10
3.9042361023622045
20
-2.9391174015748032
11
3.9023202362204725
21
-2.9378372440944882
0
LINE
8
BLACK
6
CONTINUOUS
10
3.9023202362204725
20
-2.9378372440944882
11
3.9010400787401576
21
-2.9359213779527558
0
LINE
8
BLACK
6
CONTINUOUS
10
3.9010400787401576
20
-2.9359213779527558
11
3.9005905511811023
21
-2.9336614173228344
0
LINE
8
BLACK
6
CONTINUOUS
10
3.9005905511811023
20
-2.9336614173228344
11
3.9005905511811023
21
-2.9218503937007871
0
LINE
8
BLACK
6
CONTINUOUS
10
3.9005905511811023
20
-2.9218503937007871
11
3.9010400787401576
21
-2.9195904330708662
0
LINE
8
BLACK
6
CONTINUOUS
10
3.9010400787401576
20
-2.9195904330708662
11
3.9023202362204725
21
-2.9176745669291337
0
LINE
8
BLACK
6
CONTINUOUS
10
3.9023202362204725
20
-2.9176745669291337
11
3.9042361023622045
21
-2.9163944094488188
0
LINE
8
BLACK
6
CONTINUOUS
10
3.9042361023622045
20
-2.9163944094488188
11
3.9064960629921259
21
-2.9159448818897635
0
LINE
8
BLACK
6
CONTINUOUS
10
3.9064960629921259
20
-2.9159448818897635
11
3.9753937007874014
21
-2.9159448818897635
0
LINE
8
BLACK
6
CONTINUOUS
10
3.9753937007874014
20
-2.9159448818897635
11
3.9776536614173228
21
-2.9163944094488188
0
LINE
8
BLACK
6
CONTINUOUS
10
4.3437953937007876
20
-2.9163944094488188
11
4.3457112598425196
21
-2.9176745669291337
0
LINE
8
BLACK
6
CONTINUOUS
10
4.3457112598425196
20
-2.9176745669291337
11
4.3469914173228341
21
-2.9195904330708662
0
LINE
8
BLACK
6
CONTINUOUS
10
4.3469914173228341
20
-2.9195904330708662
11
4.3474409448818898
21
-2.9218503937007871
0
LINE
8
BLACK
6
CONTINUOUS
10
4.3474409448818898
20
-2.9218503937007871
11
4.3474409448818898
21
-2.9336614173228344
0
LINE
8
BLACK
6
CONTINUOUS
10
4.3474409448818898
20
-2.9336614173228344
11
4.3469914173228341
21
-2.9359213779527558
0
LINE
8
BLACK
6
CONTINUOUS
10
4.3469914173228341
20
-2.9359213779527558
11
4.3457112598425196
21
-2.9378372440944882
0
LINE
8
BLACK
6
CONTINUOUS
10
4.3457112598425196
20
-2.9378372440944882
11
4.3437953937007876
21
-2.9391174015748032
0
LINE
8
BLACK
6
CONTINUOUS
10
4.3437953937007876
20
-2.9391174015748032
11
4.3415354330708658
21
-2.9395669291338584
0
LINE
8
BLACK
6
CONTINUOUS
10
4.3415354330708658
20
-2.9395669291338584
11
4.2726377952755907
21
-2.9395669291338584
0
LINE
8
BLACK
6
CONTINUOUS
10
4.2726377952755907
20
-2.9395669291338584
11
4.2703778346456689
21
-2.9391174015748032
0
LINE
8
BLACK
6
CONTINUOUS
10
4.2703778346456689
20
-2.9391174015748032
11
4.2684619685039369
21
-2.9378372440944882
0
LINE
8
BLACK
6
CONTINUOUS
10
4.2684619685039369
20
-2.9378372440944882
11
4.2671818110236224
21
-2.9359213779527558
0
LINE
8
BLACK
6
CONTINUOUS
10
4.2671818110236224
20
-2.9359213779527558
11
4.2667322834645667
21
-2.9336614173228344
0
LINE
8
BLACK
6
CONTINUOUS
10
4.2667322834645667
20
-2.9336614173228344
11
4.2667322834645667
21
-2.9218503937007871
0
LINE
8
BLACK
6
CONTINUOUS
10
4.2667322834645667
20
-2.9218503937007871
11
4.2671818110236224
21
-2.9195904330708662
0
LINE
8
BLACK
6
CONTINUOUS
10
4.2671818110236224
20
-2.9195904330708662
11
4.2684619685039369
21
-2.9176745669291337
0
LINE
8
BLACK
6
CONTINUOUS
10
4.2684619685039369
20
-2.9176745669291337
11
4.2703778346456689
21
-2.9163944094488188
0
LINE
8
BLACK
6
CONTINUOUS
10
4.2703778346456689
20
-2.9163944094488188
11
4.2726377952755907
21
-2.9159448818897635
0
LINE
8
BLACK
6
CONTINUOUS
10
4.2726377952755907
20
-2.9159448818897635
11
4.3415354330708658
21
-2.9159448818897635
0
LINE
8
BLACK
6
CONTINUOUS
10
4.3415354330708658
20
-2.9159448818897635
11
4.3437953937007876
21
-2.9163944094488188
0
LINE
8
BLACK
6
CONTINUOUS
10
4.7870078740157478
20
-2.9212598425196852
11
4.7476377952755904
21
-2.9212598425196852
0
LINE
8
BLACK
6
CONTINUOUS
10
4.7476377952755904
20
-2.9212598425196852
11
4.7476377952755904
21
-2.9055118110236218
0
LINE
8
BLACK
6
CONTINUOUS
10
4.7476377952755904
20
-2.9055118110236218
11
4.7870078740157478
21
-2.9055118110236218
0
LINE
8
BLACK
6
CONTINUOUS
10
4.7870078740157478
20
-2.9055118110236218
11
4.7870078740157478
21
-2.9212598425196852
0
LINE
8
BLACK
6
CONTINUOUS
10
4.4321850393700783
20
-2.9184015748031493
11
4.3931850393700786
21
-2.9184015748031493
0
LINE
8
BLACK
6
CONTINUOUS
10
4.3931850393700786
20
-2.9184015748031493
11
4.3931850393700786
21
-2.9064015748031498
0
LINE
8
BLACK
6
CONTINUOUS
10
4.3931850393700786
20
-2.9064015748031498
11
4.4321850393700783
21
-2.9064015748031498
0
LINE
8
BLACK
6
CONTINUOUS
10
4.4321850393700783
20
-2.9064015748031498
11
4.4321850393700783
21
-2.9184015748031493
0
LINE
8
BLACK
6
CONTINUOUS
10
4.6619330708661417
20
-2.9184015748031493
11
4.622933070866142
21
-2.9184015748031493
0
LINE
8
BLACK
6
CONTINUOUS
10
4.622933070866142
20
-2.9184015748031493
11
4.622933070866142
21
-2.9064015748031498
0
LINE
8
BLACK
6
CONTINUOUS
10
4.622933070866142
20
-2.9064015748031498
11
4.6619330708661417
21
-2.9064015748031498
0
LINE
8
BLACK
6
CONTINUOUS
10
4.6619330708661417
20
-2.9064015748031498
11
4.6619330708661417
21
-2.9184015748031493
0
LINE
8
BLACK
6
CONTINUOUS
10
3.3876248425196849
20
-2.8511429133858268
11
3.3908179921259842
21
-2.8532764960629922
0
LINE
8
BLACK
6
CONTINUOUS
10
3.3908179921259842
20
-2.8532764960629922
11
3.3929515748031496
21
-2.8564696456692911
0
LINE
8
BLACK
6
CONTINUOUS
10
3.3929515748031496
20
-2.8564696456692911
11
3.3937007874015745
21
-2.8602362204724407
0
LINE
8
BLACK
6
CONTINUOUS
10
3.3937007874015745
20
-2.8602362204724407
11
3.3937007874015745
21
-2.8877952755905509
0
LINE
8
BLACK
6
CONTINUOUS
10
3.3937007874015745
20
-2.8877952755905509
11
3.3929515748031496
21
-2.8915618503937006
0
LINE
8
BLACK
6
CONTINUOUS
10
3.3929515748031496
20
-2.8915618503937006
11
3.3908179921259842
21
-2.894755
0
LINE
8
BLACK
6
CONTINUOUS
10
3.3908179921259842
20
-2.894755
11
3.3876248425196849
21
-2.8968885826771653
0
LINE
8
BLACK
6
CONTINUOUS
10
3.3876248425196849
20
-2.8968885826771653
11
3.3838582677165352
21
-2.8976377952755903
0
LINE
8
BLACK
6
CONTINUOUS
10
3.3838582677165352
20
-2.8976377952755903
11
3.3484251968503935
21
-2.8976377952755903
0
LINE
8
BLACK
6
CONTINUOUS
10
3.3484251968503935
20
-2.8976377952755903
11
3.3446586220472438
21
-2.8968885826771653
0
LINE
8
BLACK
6
CONTINUOUS
10
3.3446586220472438
20
-2.8968885826771653
11
3.3414654724409449
21
-2.894755
0
LINE
8
BLACK
6
CONTINUOUS
10
3.3414654724409449
20
-2.894755
11
3.3393318897637796
21
-2.8915618503937006
0
LINE
8
BLACK
6
CONTINUOUS
10
3.3393318897637796
20
-2.8915618503937006
11
3.3385826771653542
21
-2.8877952755905509
0
LINE
8
BLACK
6
CONTINUOUS
10
3.3385826771653542
20
-2.8877952755905509
11
3.3385826771653542
21
-2.8602362204724407
0
LINE
8
BLACK
6
CONTINUOUS
10
3.3385826771653542
20
-2.8602362204724407
11
3.3393318897637796
21
-2.8564696456692911
0
LINE
8
BLACK
6
CONTINUOUS
10
3.3393318897637796
20
-2.8564696456692911
11
3.3414654724409449
21
-2.8532764960629922
0
LINE
8
BLACK
6
CONTINUOUS
10
3.3414654724409449
20
-2.8532764960629922
11
3.3446586220472438
21
-2.8511429133858268
0
LINE
8
BLACK
6
CONTINUOUS
10
3.3446586220472438
20
-2.8511429133858268
11
3.3484251968503935
21
-2.8503937007874014
0
LINE
8
BLACK
6
CONTINUOUS
10
3.3484251968503935
20
-2.8503937007874014
11
3.3838582677165352
21
-2.8503937007874014
0
LINE
8
BLACK
6
CONTINUOUS
10
3.3838582677165352
20
-2.8503937007874014
11
3.3876248425196849
21
-2.8511429133858268
0
LINE
8
BLACK
6
CONTINUOUS
10
3.4870342913385826
20
-2.8501586614173227
11
3.4902274409448819
21
-2.852292244094488
0
LINE
8
BLACK
6
CONTINUOUS
10
3.4902274409448819
20
-2.852292244094488
11
3.4923610236220473
21
-2.8554853937007874
0
LINE
8
BLACK
6
CONTINUOUS
10
3.4923610236220473
20
-2.8554853937007874
11
3.4931102362204722
21
-2.859251968503937
0
LINE
8
BLACK
6
CONTINUOUS
10
3.4931102362204722
20
-2.859251968503937
11
3.4931102362204722
21
-2.8858267716535431
0
LINE
8
BLACK
6
CONTINUOUS
10
3.4931102362204722
20
-2.8858267716535431
11
3.4923610236220473
21
-2.8895933464566927
0
LINE
8
BLACK
6
CONTINUOUS
10
3.4923610236220473
20
-2.8895933464566927
11
3.4902274409448819
21
-2.8927864960629921
0
LINE
8
BLACK
6
CONTINUOUS
10
3.4902274409448819
20
-2.8927864960629921
11
3.4870342913385826
21
-2.8949200787401574
0
LINE
8
BLACK
6
CONTINUOUS
10
3.4870342913385826
20
-2.8949200787401574
11
3.4832677165354329
21
-2.8956692913385824
0
LINE
8
BLACK
6
CONTINUOUS
10
3.4832677165354329
20
-2.8956692913385824
11
3.4458661417322833
21
-2.8956692913385824
0
LINE
8
BLACK
6
CONTINUOUS
10
3.4458661417322833
20
-2.8956692913385824
11
3.4420995669291337
21
-2.8949200787401574
0
LINE
8
BLACK
6
CONTINUOUS
10
3.4420995669291337
20
-2.8949200787401574
11
3.4389064173228348
21
-2.8927864960629921
0
LINE
8
BLACK
6
CONTINUOUS
10
3.4389064173228348
20
-2.8927864960629921
11
3.4367728346456694
21
-2.8895933464566927
0
LINE
8
BLACK
6
CONTINUOUS
10
3.4367728346456694
20
-2.8895933464566927
11
3.436023622047244
21
-2.8858267716535431
0
LINE
8
BLACK
6
CONTINUOUS
10
3.436023622047244
20
-2.8858267716535431
11
3.436023622047244
21
-2.859251968503937
0
LINE
8
BLACK
6
CONTINUOUS
10
3.436023622047244
20
-2.859251968503937
11
3.4367728346456694
21
-2.8554853937007874
0
LINE
8
BLACK
6
CONTINUOUS
10
3.4367728346456694
20
-2.8554853937007874
11
3.4389064173228348
21
-2.852292244094488
0
LINE
8
BLACK
6
CONTINUOUS
10
3.4389064173228348
20
-2.852292244094488
11
3.4420995669291337
21
-2.8501586614173227
0
LINE
8
BLACK
6
CONTINUOUS
10
3.4420995669291337
20
-2.8501586614173227
11
3.4458661417322833
21
-2.8494094488188977
0
LINE
8
BLACK
6
CONTINUOUS
10
3.4458661417322833
20
-2.8494094488188977
11
3.4832677165354329
21
-2.8494094488188977
0
LINE
8
BLACK
6
CONTINUOUS
10
3.4832677165354329
20
-2.8494094488188977
11
3.4870342913385826
21
-2.8501586614173227
0
LINE
8
BLACK
6
CONTINUOUS
10
4.4321850393700783
20
-2.892811023622047
11
4.3931850393700786
21
-2.892811023622047
0
LINE
8
BLACK
6
CONTINUOUS
10
4.3931850393700786
20
-2.892811023622047
11
4.3931850393700786
21
-2.880811023622047
0
LINE
8
BLACK
6
CONTINUOUS
10
4.3931850393700786
20
-2.880811023622047
11
4.4321850393700783
21
-2.880811023622047
0
LINE
8
BLACK
6
CONTINUOUS
10
4.4321850393700783
20
-2.880811023622047
11
4.4321850393700783
21
-2.892811023622047
0
LINE
8
BLACK
6
CONTINUOUS
10
4.6619330708661417
20
-2.892811023622047
11
4.622933070866142
21
-2.892811023622047
0
LINE
8
BLACK
6
CONTINUOUS
10
4.622933070866142
20
-2.892811023622047
11
4.622933070866142
21
-2.880811023622047
0
LINE
8
BLACK
6
CONTINUOUS
10
4.622933070866142
20
-2.880811023622047
11
4.6619330708661417
21
-2.880811023622047
0
LINE
8
BLACK
6
CONTINUOUS
10
4.6619330708661417
20
-2.880811023622047
11
4.6619330708661417
21
-2.892811023622047
0
LINE
8
BLACK
6
CONTINUOUS
10
3.9776536614173228
20
-2.866394409448819
11
3.9795695275590552
21
-2.8676745669291339
0
LINE
8
BLACK
6
CONTINUOUS
10
3.9795695275590552
20
-2.8676745669291339
11
3.9808496850393702
21
-2.8695904330708659
0
LINE
8
BLACK
6
CONTINUOUS
10
3.9808496850393702
20
-2.8695904330708659
11
3.981299212598425
21
-2.8718503937007873
0
LINE
8
BLACK
6
CONTINUOUS
10
3.981299212598425
20
-2.8718503937007873
11
3.981299212598425
21
-2.8836614173228345
0
LINE
8
BLACK
6
CONTINUOUS
10
3.981299212598425
20
-2.8836614173228345
11
3.9808496850393702
21
-2.8859213779527559
0
LINE
8
BLACK
6
CONTINUOUS
10
3.9808496850393702
20
-2.8859213779527559
11
3.9795695275590552
21
-2.8878372440944879
0
LINE
8
BLACK
6
CONTINUOUS
10
3.9795695275590552
20
-2.8878372440944879
11
3.9776536614173228
21
-2.8891174015748029
0
LINE
8
BLACK
6
CONTINUOUS
10
3.9776536614173228
20
-2.8891174015748029
11
3.9753937007874014
21
-2.8895669291338582
0
LINE
8
BLACK
6
CONTINUOUS
10
3.9753937007874014
20
-2.8895669291338582
11
3.9064960629921259
21
-2.8895669291338582
0
LINE
8
BLACK
6
CONTINUOUS
10
3.9064960629921259
20
-2.8895669291338582
11
3.9042361023622045
21
-2.8891174015748029
0
LINE
8
BLACK
6
CONTINUOUS
10
3.9042361023622045
20
-2.8891174015748029
11
3.9023202362204725
21
-2.8878372440944879
0
LINE
8
BLACK
6
CONTINUOUS
10
3.9023202362204725
20
-2.8878372440944879
11
3.9010400787401576
21
-2.8859213779527559
0
LINE
8
BLACK
6
CONTINUOUS
10
3.9010400787401576
20
-2.8859213779527559
11
3.9005905511811023
21
-2.8836614173228345
0
LINE
8
BLACK
6
CONTINUOUS
10
3.9005905511811023
20
-2.8836614173228345
11
3.9005905511811023
21
-2.8718503937007873
0
LINE
8
BLACK
6
CONTINUOUS
10
3.9005905511811023
20
-2.8718503937007873
11
3.9010400787401576
21
-2.8695904330708659
0
LINE
8
BLACK
6
CONTINUOUS
10
3.9010400787401576
20
-2.8695904330708659
11
3.9023202362204725
21
-2.8676745669291339
0
LINE
8
BLACK
6
CONTINUOUS
10
3.9023202362204725
20
-2.8676745669291339
11
3.9042361023622045
21
-2.866394409448819
0
LINE
8
BLACK
6
CONTINUOUS
10
3.9042361023622045
20
-2.866394409448819
11
3.9064960629921259
21
-2.8659448818897637
0
LINE
8
BLACK
6
CONTINUOUS
10
3.9064960629921259
20
-2.8659448818897637
11
3.9753937007874014
21
-2.8659448818897637
0
LINE
8
BLACK
6
CONTINUOUS
10
3.9753937007874014
20
-2.8659448818897637
11
3.9776536614173228
21
-2.866394409448819
0
LINE
8
BLACK
6
CONTINUOUS
10
4.3437953937007876
20
-2.866394409448819
11
4.3457112598425196
21
-2.8676745669291339
0
LINE
8
BLACK
6
CONTINUOUS
10
4.3457112598425196
20
-2.8676745669291339
11
4.3469914173228341
21
-2.8695904330708659
0
LINE
8
BLACK
6
CONTINUOUS
10
4.3469914173228341
20
-2.8695904330708659
11
4.3474409448818898
21
-2.8718503937007873
0
LINE
8
BLACK
6
CONTINUOUS
10
4.3474409448818898
20
-2.8718503937007873
11
4.3474409448818898
21
-2.8836614173228345
0
LINE
8
BLACK
6
CONTINUOUS
10
4.3474409448818898
20
-2.8836614173228345
11
4.3469914173228341
21
-2.8859213779527559
0
LINE
8
BLACK
6
CONTINUOUS
10
4.3469914173228341
20
-2.8859213779527559
11
4.3457112598425196
21
-2.8878372440944879
0
LINE
8
BLACK
6
CONTINUOUS
10
4.3457112598425196
20
-2.8878372440944879
11
4.3437953937007876
21
-2.8891174015748029
0
LINE
8
BLACK
6
CONTINUOUS
10
4.3437953937007876
20
-2.8891174015748029
11
4.3415354330708658
21
-2.8895669291338582
0
LINE
8
BLACK
6
CONTINUOUS
10
4.3415354330708658
20
-2.8895669291338582
11
4.2726377952755907
21
-2.8895669291338582
0
LINE
8
BLACK
6
CONTINUOUS
10
4.2726377952755907
20
-2.8895669291338582
11
4.2703778346456689
21
-2.8891174015748029
0
LINE
8
BLACK
6
CONTINUOUS
10
4.2703778346456689
20
-2.8891174015748029
11
4.2684619685039369
21
-2.8878372440944879
0
LINE
8
BLACK
6
CONTINUOUS
10
4.2684619685039369
20
-2.8878372440944879
11
4.2671818110236224
21
-2.8859213779527559
0
LINE
8
BLACK
6
CONTINUOUS
10
4.2671818110236224
20
-2.8859213779527559
11
4.2667322834645667
21
-2.8836614173228345
0
LINE
8
BLACK
6
CONTINUOUS
10
4.2667322834645667
20
-2.8836614173228345
11
4.2667322834645667
21
-2.8718503937007873
0
LINE
8
BLACK
6
CONTINUOUS
10
4.2667322834645667
20
-2.8718503937007873
11
4.2671818110236224
21
-2.8695904330708659
0
LINE
8
BLACK
6
CONTINUOUS
10
4.2671818110236224
20
-2.8695904330708659
11
4.2684619685039369
21
-2.8676745669291339
0
LINE
8
BLACK
6
CONTINUOUS
10
4.2684619685039369
20
-2.8676745669291339
11
4.2703778346456689
21
-2.866394409448819
0
LINE
8
BLACK
6
CONTINUOUS
10
4.2703778346456689
20
-2.866394409448819
11
4.2726377952755907
21
-2.8659448818897637
0
LINE
8
BLACK
6
CONTINUOUS
10
4.2726377952755907
20
-2.8659448818897637
11
4.3415354330708658
21
-2.8659448818897637
0
LINE
8
BLACK
6
CONTINUOUS
10
4.3415354330708658
20
-2.8659448818897637
11
4.3437953937007876
21
-2.866394409448819
0
LINE
8
BLACK
6
CONTINUOUS
10
3.6289370078740157
20
-2.8809055118110236
11
3.5442913385826769
21
-2.8809055118110236
0
LINE
8
BLACK
6
CONTINUOUS
10
3.5442913385826769
20
-2.8809055118110236
11
3.5442913385826769
21
-2.8435039370078741
0
LINE
8
BLACK
6
CONTINUOUS
10
3.5442913385826769
20
-2.8435039370078741
11
3.6289370078740157
21
-2.8435039370078741
0
LINE
8
BLACK
6
CONTINUOUS
10
3.6289370078740157
20
-2.8435039370078741
11
3.6289370078740157
21
-2.8809055118110236
0
LINE
8
BLACK
6
CONTINUOUS
10
4.4321850393700783
20
-2.8672204724409447
11
4.3931850393700786
21
-2.8672204724409447
0
LINE
8
BLACK
6
CONTINUOUS
10
4.3931850393700786
20
-2.8672204724409447
11
4.3931850393700786
21
-2.8552204724409447
0
LINE
8
BLACK
6
CONTINUOUS
10
4.3931850393700786
20
-2.8552204724409447
11
4.4321850393700783
21
-2.8552204724409447
0
LINE
8
BLACK
6
CONTINUOUS
10
4.4321850393700783
20
-2.8552204724409447
11
4.4321850393700783
21
-2.8672204724409447
0
LINE
8
BLACK
6
CONTINUOUS
10
4.6619330708661417
20
-2.8672204724409447
11
4.622933070866142
21
-2.8672204724409447
0
LINE
8
BLACK
6
CONTINUOUS
10
4.622933070866142
20
-2.8672204724409447
11
4.622933070866142
21
-2.8552204724409447
0
LINE
8
BLACK
6
CONTINUOUS
10
4.622933070866142
20
-2.8552204724409447
11
4.6619330708661417
21
-2.8552204724409447
0
LINE
8
BLACK
6
CONTINUOUS
10
4.6619330708661417
20
-2.8552204724409447
11
4.6619330708661417
21
-2.8672204724409447
0
LINE
8
BLACK
6
CONTINUOUS
10
4.8992125984251969
20
-2.8425196850393699
11
4.8480314960629922
21
-2.8425196850393699
0
LINE
8
BLACK
6
CONTINUOUS
10
4.8480314960629922
20
-2.8425196850393699
11
4.8480314960629922
21
-2.7637795275590551
0
LINE
8
BLACK
6
CONTINUOUS
10
4.8480314960629922
20
-2.7637795275590551
11
4.8992125984251969
21
-2.7637795275590551
0
LINE
8
BLACK
6
CONTINUOUS
10
4.8992125984251969
20
-2.7637795275590551
11
4.8992125984251969
21
-2.8425196850393699
0
LINE
8
BLACK
6
CONTINUOUS
10
4.4321850393700783
20
-2.8416299212598424
11
4.3931850393700786
21
-2.8416299212598424
0
LINE
8
BLACK
6
CONTINUOUS
10
4.3931850393700786
20
-2.8416299212598424
11
4.3931850393700786
21
-2.8296299212598424
0
LINE
8
BLACK
6
CONTINUOUS
10
4.3931850393700786
20
-2.8296299212598424
11
4.4321850393700783
21
-2.8296299212598424
0
LINE
8
BLACK
6
CONTINUOUS
10
4.4321850393700783
20
-2.8296299212598424
11
4.4321850393700783
21
-2.8416299212598424
0
LINE
8
BLACK
6
CONTINUOUS
10
4.6619330708661417
20
-2.8416299212598424
11
4.622933070866142
21
-2.8416299212598424
0
LINE
8
BLACK
6
CONTINUOUS
10
4.622933070866142
20
-2.8416299212598424
11
4.622933070866142
21
-2.8296299212598424
0
LINE
8
BLACK
6
CONTINUOUS
10
4.622933070866142
20
-2.8296299212598424
11
4.6619330708661417
21
-2.8296299212598424
0
LINE
8
BLACK
6
CONTINUOUS
10
4.6619330708661417
20
-2.8296299212598424
11
4.6619330708661417
21
-2.8416299212598424
0
LINE
8
BLACK
6
CONTINUOUS
10
3.9776536614173228
20
-2.8163944094488187
11
3.9795695275590552
21
-2.8176745669291337
0
LINE
8
BLACK
6
CONTINUOUS
10
3.9795695275590552
20
-2.8176745669291337
11
3.9808496850393702
21
-2.8195904330708661
0
LINE
8
BLACK
6
CONTINUOUS
10
3.9808496850393702
20
-2.8195904330708661
11
3.981299212598425
21
-2.8218503937007875
0
LINE
8
BLACK
6
CONTINUOUS
10
3.981299212598425
20
-2.8218503937007875
11
3.981299212598425
21
-2.8336614173228347
0
LINE
8
BLACK
6
CONTINUOUS
10
3.981299212598425
20
-2.8336614173228347
11
3.9808496850393702
21
-2.8359213779527557
0
LINE
8
BLACK
6
CONTINUOUS
10
3.9808496850393702
20
-2.8359213779527557
11
3.9795695275590552
21
-2.8378372440944881
0
LINE
8
BLACK
6
CONTINUOUS
10
3.9795695275590552
20
-2.8378372440944881
11
3.9776536614173228
21
-2.8391174015748031
0
LINE
8
BLACK
6
CONTINUOUS
10
3.9776536614173228
20
-2.8391174015748031
11
3.9753937007874014
21
-2.8395669291338583
0
LINE
8
BLACK
6
CONTINUOUS
10
3.9753937007874014
20
-2.8395669291338583
11
3.9064960629921259
21
-2.8395669291338583
0
LINE
8
BLACK
6
CONTINUOUS
10
3.9064960629921259
20
-2.8395669291338583
11
3.9042361023622045
21
-2.8391174015748031
0
LINE
8
BLACK
6
CONTINUOUS
10
3.9042361023622045
20
-2.8391174015748031
11
3.9023202362204725
21
-2.8378372440944881
0
LINE
8
BLACK
6
CONTINUOUS
10
3.9023202362204725
20
-2.8378372440944881
11
3.9010400787401576
21
-2.8359213779527557
0
LINE
8
BLACK
6
CONTINUOUS
10
3.9010400787401576
20
-2.8359213779527557
11
3.9005905511811023
21
-2.8336614173228347
0
LINE
8
BLACK
6
CONTINUOUS
10
3.9005905511811023
20
-2.8336614173228347
11
3.9005905511811023
21
-2.8218503937007875
0
LINE
8
BLACK
6
CONTINUOUS
10
3.9005905511811023
20
-2.8218503937007875
11
3.9010400787401576
21
-2.8195904330708661
0
LINE
8
BLACK
6
CONTINUOUS
10
3.9010400787401576
20
-2.8195904330708661
11
3.9023202362204725
21
-2.8176745669291337
0
LINE
8
BLACK
6
CONTINUOUS
10
3.9023202362204725
20
-2.8176745669291337
11
3.9042361023622045
21
-2.8163944094488187
0
LINE
8
BLACK
6
CONTINUOUS
10
3.9042361023622045
20
-2.8163944094488187
11
3.9064960629921259
21
-2.8159448818897639
0
LINE
8
BLACK
6
CONTINUOUS
10
3.9064960629921259
20
-2.8159448818897639
11
3.9753937007874014
21
-2.8159448818897639
0
LINE
8
BLACK
6
CONTINUOUS
10
3.9753937007874014
20
-2.8159448818897639
11
3.9776536614173228
21
-2.8163944094488187
0
LINE
8
BLACK
6
CONTINUOUS
10
4.3437953937007876
20
-2.8163944094488187
11
4.3457112598425196
21
-2.8176745669291337
0
LINE
8
BLACK
6
CONTINUOUS
10
4.3457112598425196
20
-2.8176745669291337
11
4.3469914173228341
21
-2.8195904330708661
0
LINE
8
BLACK
6
CONTINUOUS
10
4.3469914173228341
20
-2.8195904330708661
11
4.3474409448818898
21
-2.8218503937007875
0
LINE
8
BLACK
6
CONTINUOUS
10
4.3474409448818898
20
-2.8218503937007875
11
4.3474409448818898
21
-2.8336614173228347
0
LINE
8
BLACK
6
CONTINUOUS
10
4.3474409448818898
20
-2.8336614173228347
11
4.3469914173228341
21
-2.8359213779527557
0
LINE
8
BLACK
6
CONTINUOUS
10
4.3469914173228341
20
-2.8359213779527557
11
4.3457112598425196
21
-2.8378372440944881
0
LINE
8
BLACK
6
CONTINUOUS
10
4.3457112598425196
20
-2.8378372440944881
11
4.3437953937007876
21
-2.8391174015748031
0
LINE
8
BLACK
6
CONTINUOUS
10
4.3437953937007876
20
-2.8391174015748031
11
4.3415354330708658
21
-2.8395669291338583
0
LINE
8
BLACK
6
CONTINUOUS
10
4.3415354330708658
20
-2.8395669291338583
11
4.2726377952755907
21
-2.8395669291338583
0
LINE
8
BLACK
6
CONTINUOUS
10
4.2726377952755907
20
-2.8395669291338583
11
4.2703778346456689
21
-2.8391174015748031
0
LINE
8
BLACK
6
CONTINUOUS
10
4.2703778346456689
20
-2.8391174015748031
11
4.2684619685039369
21
-2.8378372440944881
0
LINE
8
BLACK
6
CONTINUOUS
10
4.2684619685039369
20
-2.8378372440944881
11
4.2671818110236224
21
-2.8359213779527557
0
LINE
8
BLACK
6
CONTINUOUS
10
4.2671818110236224
20
-2.8359213779527557
11
4.2667322834645667
21
-2.8336614173228347
0
LINE
8
BLACK
6
CONTINUOUS
10
4.2667322834645667
20
-2.8336614173228347
11
4.2667322834645667
21
-2.8218503937007875
0
LINE
8
BLACK
6
CONTINUOUS
10
4.2667322834645667
20
-2.8218503937007875
11
4.2671818110236224
21
-2.8195904330708661
0
LINE
8
BLACK
6
CONTINUOUS
10
4.2671818110236224
20
-2.8195904330708661
11
4.2684619685039369
21
-2.8176745669291337
0
LINE
8
BLACK
6
CONTINUOUS
10
4.2684619685039369
20
-2.8176745669291337
11
4.2703778346456689
21
-2.8163944094488187
0
LINE
8
BLACK
6
CONTINUOUS
10
4.2703778346456689
20
-2.8163944094488187
11
4.2726377952755907
21
-2.8159448818897639
0
LINE
8
BLACK
6
CONTINUOUS
10
4.2726377952755907
20
-2.8159448818897639
11
4.3415354330708658
21
-2.8159448818897639
0
LINE
8
BLACK
6
CONTINUOUS
10
4.3415354330708658
20
-2.8159448818897639
11
4.3437953937007876
21
-2.8163944094488187
0
LINE
8
BLACK
6
CONTINUOUS
10
4.4321850393700783
20
-2.8160393700787401
11
4.3931850393700786
21
-2.8160393700787401
0
LINE
8
BLACK
6
CONTINUOUS
10
4.3931850393700786
20
-2.8160393700787401
11
4.3931850393700786
21
-2.80403937007874
0
LINE
8
BLACK
6
CONTINUOUS
10
4.3931850393700786
20
-2.80403937007874
11
4.4321850393700783
21
-2.80403937007874
0
LINE
8
BLACK
6
CONTINUOUS
10
4.4321850393700783
20
-2.80403937007874
11
4.4321850393700783
21
-2.8160393700787401
0
LINE
8
BLACK
6
CONTINUOUS
10
4.6619330708661417
20
-2.8160393700787401
11
4.622933070866142
21
-2.8160393700787401
0
LINE
8
BLACK
6
CONTINUOUS
10
4.622933070866142
20
-2.8160393700787401
11
4.622933070866142
21
-2.80403937007874
0
LINE
8
BLACK
6
CONTINUOUS
10
4.622933070866142
20
-2.80403937007874
11
4.6619330708661417
21
-2.80403937007874
0
LINE
8
BLACK
6
CONTINUOUS
10
4.6619330708661417
20
-2.80403937007874
11
4.6619330708661417
21
-2.8160393700787401
0
LINE
8
BLACK
6
CONTINUOUS
10
4.4321850393700783
20
-2.7904488188976377
11
4.3931850393700786
21
-2.7904488188976377
0
LINE
8
BLACK
6
CONTINUOUS
10
4.3931850393700786
20
-2.7904488188976377
11
4.3931850393700786
21
-2.7784488188976377
0
LINE
8
BLACK
6
CONTINUOUS
10
4.3931850393700786
20
-2.7784488188976377
11
4.4321850393700783
21
-2.7784488188976377
0
LINE
8
BLACK
6
CONTINUOUS
10
4.4321850393700783
20
-2.7784488188976377
11
4.4321850393700783
21
-2.7904488188976377
0
LINE
8
BLACK
6
CONTINUOUS
10
4.6619330708661417
20
-2.7904488188976377
11
4.622933070866142
21
-2.7904488188976377
0
LINE
8
BLACK
6
CONTINUOUS
10
4.622933070866142
20
-2.7904488188976377
11
4.622933070866142
21
-2.7784488188976377
0
LINE
8
BLACK
6
CONTINUOUS
10
4.622933070866142
20
-2.7784488188976377
11
4.6619330708661417
21
-2.7784488188976377
0
LINE
8
BLACK
6
CONTINUOUS
10
4.6619330708661417
20
-2.7784488188976377
11
4.6619330708661417
21
-2.7904488188976377
0
LINE
8
BLACK
6
CONTINUOUS
10
3.9776536614173228
20
-2.7663944094488189
11
3.9795695275590552
21
-2.7676745669291338
0
LINE
8
BLACK
6
CONTINUOUS
10
3.9795695275590552
20
-2.7676745669291338
11
3.9808496850393702
21
-2.7695904330708663
0
LINE
8
BLACK
6
CONTINUOUS
10
3.9808496850393702
20
-2.7695904330708663
11
3.981299212598425
21
-2.7718503937007872
0
LINE
8
BLACK
6
CONTINUOUS
10
3.981299212598425
20
-2.7718503937007872
11
3.981299212598425
21
-2.7836614173228345
0
LINE
8
BLACK
6
CONTINUOUS
10
3.981299212598425
20
-2.7836614173228345
11
3.9808496850393702
21
-2.7859213779527559
0
LINE
8
BLACK
6
CONTINUOUS
10
3.9808496850393702
20
-2.7859213779527559
11
3.9795695275590552
21
-2.7878372440944883
0
LINE
8
BLACK
6
CONTINUOUS
10
3.9795695275590552
20
-2.7878372440944883
11
3.9776536614173228
21
-2.7891174015748033
0
LINE
8
BLACK
6
CONTINUOUS
10
3.9776536614173228
20
-2.7891174015748033
11
3.9753937007874014
21
-2.7895669291338581
0
LINE
8
BLACK
6
CONTINUOUS
10
3.9753937007874014
20
-2.7895669291338581
11
3.9064960629921259
21
-2.7895669291338581
0
LINE
8
BLACK
6
CONTINUOUS
10
3.9064960629921259
20
-2.7895669291338581
11
3.9042361023622045
21
-2.7891174015748033
0
LINE
8
BLACK
6
CONTINUOUS
10
3.9042361023622045
20
-2.7891174015748033
11
3.9023202362204725
21
-2.7878372440944883
0
LINE
8
BLACK
6
CONTINUOUS
10
3.9023202362204725
20
-2.7878372440944883
11
3.9010400787401576
21
-2.7859213779527559
0
LINE
8
BLACK
6
CONTINUOUS
10
3.9010400787401576
20
-2.7859213779527559
11
3.9005905511811023
21
-2.7836614173228345
0
LINE
8
BLACK
6
CONTINUOUS
10
3.9005905511811023
20
-2.7836614173228345
11
3.9005905511811023
21
-2.7718503937007872
0
LINE
8
BLACK
6
CONTINUOUS
10
3.9005905511811023
20
-2.7718503937007872
11
3.9010400787401576
21
-2.7695904330708663
0
LINE
8
BLACK
6
CONTINUOUS
10
3.9010400787401576
20
-2.7695904330708663
11
3.9023202362204725
21
-2.7676745669291338
0
LINE
8
BLACK
6
CONTINUOUS
10
3.9023202362204725
20
-2.7676745669291338
11
3.9042361023622045
21
-2.7663944094488189
0
LINE
8
BLACK
6
CONTINUOUS
10
3.9042361023622045
20
-2.7663944094488189
11
3.9064960629921259
21
-2.7659448818897636
0
LINE
8
BLACK
6
CONTINUOUS
10
3.9064960629921259
20
-2.7659448818897636
11
3.9753937007874014
21
-2.7659448818897636
0
LINE
8
BLACK
6
CONTINUOUS
10
3.9753937007874014
20
-2.7659448818897636
11
3.9776536614173228
21
-2.7663944094488189
0
LINE
8
BLACK
6
CONTINUOUS
10
4.3437953937007876
20
-2.7663944094488189
11
4.3457112598425196
21
-2.7676745669291338
0
LINE
8
BLACK
6
CONTINUOUS
10
4.3457112598425196
20
-2.7676745669291338
11
4.3469914173228341
21
-2.7695904330708663
0
LINE
8
BLACK
6
CONTINUOUS
10
4.3469914173228341
20
-2.7695904330708663
11
4.3474409448818898
21
-2.7718503937007872
0
LINE
8
BLACK
6
CONTINUOUS
10
4.3474409448818898
20
-2.7718503937007872
11
4.3474409448818898
21
-2.7836614173228345
0
LINE
8
BLACK
6
CONTINUOUS
10
4.3474409448818898
20
-2.7836614173228345
11
4.3469914173228341
21
-2.7859213779527559
0
LINE
8
BLACK
6
CONTINUOUS
10
4.3469914173228341
20
-2.7859213779527559
11
4.3457112598425196
21
-2.7878372440944883
0
LINE
8
BLACK
6
CONTINUOUS
10
4.3457112598425196
20
-2.7878372440944883
11
4.3437953937007876
21
-2.7891174015748033
0
LINE
8
BLACK
6
CONTINUOUS
10
4.3437953937007876
20
-2.7891174015748033
11
4.3415354330708658
21
-2.7895669291338581
0
LINE
8
BLACK
6
CONTINUOUS
10
4.3415354330708658
20
-2.7895669291338581
11
4.2726377952755907
21
-2.7895669291338581
0
LINE
8
BLACK
6
CONTINUOUS
10
4.2726377952755907
20
-2.7895669291338581
11
4.2703778346456689
21
-2.7891174015748033
0
LINE
8
BLACK
6
CONTINUOUS
10
4.2703778346456689
20
-2.7891174015748033
11
4.2684619685039369
21
-2.7878372440944883
0
LINE
8
BLACK
6
CONTINUOUS
10
4.2684619685039369
20
-2.7878372440944883
11
4.2671818110236224
21
-2.7859213779527559
0
LINE
8
BLACK
6
CONTINUOUS
10
4.2671818110236224
20
-2.7859213779527559
11
4.2667322834645667
21
-2.7836614173228345
0
LINE
8
BLACK
6
CONTINUOUS
10
4.2667322834645667
20
-2.7836614173228345
11
4.2667322834645667
21
-2.7718503937007872
0
LINE
8
BLACK
6
CONTINUOUS
10
4.2667322834645667
20
-2.7718503937007872
11
4.2671818110236224
21
-2.7695904330708663
0
LINE
8
BLACK
6
CONTINUOUS
10
4.2671818110236224
20
-2.7695904330708663
11
4.2684619685039369
21
-2.7676745669291338
0
LINE
8
BLACK
6
CONTINUOUS
10
4.2684619685039369
20
-2.7676745669291338
11
4.2703778346456689
21
-2.7663944094488189
0
LINE
8
BLACK
6
CONTINUOUS
10
4.2703778346456689
20
-2.7663944094488189
11
4.2726377952755907
21
-2.7659448818897636
0
LINE
8
BLACK
6
CONTINUOUS
10
4.2726377952755907
20
-2.7659448818897636
11
4.3415354330708658
21
-2.7659448818897636
0
LINE
8
BLACK
6
CONTINUOUS
10
4.3415354330708658
20
-2.7659448818897636
11
4.3437953937007876
21
-2.7663944094488189
  0
ENDSEC
  0
EOF
