  0
SECTION
  2
HEADER
  9
$ANGBASE
  50
0.0
  9
$ANGDIR
  70
1
  9
$MEASUREMENT
  70
0
  0
ENDSEC
  0
SECTION
  2
TABLES
  0
TABLE
  2
LTYPE
  70
4
  0
LTYPE
  5
40F
  2
CONTINUOUS
  70
0
  3
Solid line
  72
65
  73
0
  40
0.0
  0
LTYPE
  5
410
  2
DASHDOT
 70
0
  3
Dash Dot ____ _ ____ _
 72
65
 73
4
 40
2.0
 49
1.25
 49
-0.25
 49
0.25
 49
-0.25
  0
LTYPE
  5
411
  2
DASHED
 70
0
  3
Dashed __ __ __ __ __
 72
65
 73
2
 40
0.75
 49
0.5
 49
-0.25
  0
LTYPE
  5
43B
  2
DOTTED
 70
0
  3
Dotted .  .  .  .
 72
65
 73
2
 40
0.2
 49
0.0
 49
-0.2
  0
ENDTAB
  0
TABLE
  2
STYLE
  70
4
  0
STYLE
  2
KICAD
  70
0
  40
0
  41
1
  42
1
  50
0
  71
0
  3
isocp.shx
  0
STYLE
  2
KICADB
  70
0
  40
0
  41
1
  42
1
  50
0
  71
0
  3
isocp.shx
  0
STYLE
  2
KICADI
  70
0
  40
0
  41
1
  42
1
  50
15
  71
0
  3
isocp.shx
  0
STYLE
  2
KICADBI
  70
0
  40
0
  41
1
  42
1
  50
15
  71
0
  3
isocp.shx
  0
ENDTAB
  0
TABLE
  2
LAYER
  70
1
  0
LAYER
  2
BLACK
  70
0
  62
7
  6
CONTINUOUS
  0
ENDTAB
  0
ENDSEC
  0
SECTION
  2
ENTITIES
0
LINE
8
BLACK
6
CONTINUOUS
10
4.4098254724409447
20
-2.4597205905511812
11
4.4103581496062993
21
-2.4602532677165354
0
LINE
8
BLACK
6
CONTINUOUS
10
4.4103581496062993
20
-2.4602532677165354
11
4.4104327952755904
21
-2.715625905511811
0
LINE
8
BLACK
6
CONTINUOUS
10
4.4104327952755904
20
-2.715625905511811
11
5.0098425196850389
21
-2.715551181102362
0
LINE
8
BLACK
6
CONTINUOUS
10
5.0098425196850389
20
-2.715551181102362
11
5.0102191732283465
21
-2.7156261023622048
0
LINE
8
BLACK
6
CONTINUOUS
10
5.0102191732283465
20
-2.7156261023622048
11
5.0107518503937003
21
-2.716158779527559
0
LINE
8
BLACK
6
CONTINUOUS
10
5.0107518503937003
20
-2.716158779527559
11
5.0108267716535435
21
-3.4251968503937009
0
LINE
8
BLACK
6
CONTINUOUS
10
5.0108267716535435
20
-3.4251968503937009
11
5.0107518503937003
21
-3.4255735039370077
0
LINE
8
BLACK
6
CONTINUOUS
10
5.0107518503937003
20
-3.4255735039370077
11
5.0102191732283465
21
-3.4261061811023623
0
LINE
8
BLACK
6
CONTINUOUS
10
5.0102191732283465
20
-3.4261061811023623
11
4.4103585433070869
21
-3.4261809842519684
0
LINE
8
BLACK
6
CONTINUOUS
10
4.4103585433070869
20
-3.4261809842519684
11
4.4104330708661417
21
-3.6811023622047245
0
LINE
8
BLACK
6
CONTINUOUS
10
4.4104330708661417
20
-3.6811023622047245
11
4.4103581496062993
21
-3.6814790157480313
0
LINE
8
BLACK
6
CONTINUOUS
10
4.4103581496062993
20
-3.6814790157480313
11
4.4098254724409447
21
-3.6820116929133859
0
LINE
8
BLACK
6
CONTINUOUS
10
4.4098254724409447
20
-3.6820116929133859
11
3.2677165354330708
21
-3.6820866141732282
0
LINE
8
BLACK
6
CONTINUOUS
10
3.2677165354330708
20
-3.6820866141732282
11
3.2673398818897637
21
-3.6820116929133859
0
LINE
8
BLACK
6
CONTINUOUS
10
3.2673398818897637
20
-3.6820116929133859
11
3.2668072047244094
21
-3.6814790157480313
0
LINE
8
BLACK
6
CONTINUOUS
10
3.2668072047244094
20
-3.6814790157480313
11
3.2667322834645667
21
-2.4606299212598426
0
LINE
8
BLACK
6
CONTINUOUS
10
3.2667322834645667
20
-2.4606299212598426
11
3.2668072047244094
21
-2.4602532677165354
0
LINE
8
BLACK
6
CONTINUOUS
10
3.2668072047244094
20
-2.4602532677165354
11
3.2673398818897637
21
-2.4597205905511812
0
LINE
8
BLACK
6
CONTINUOUS
10
3.2673398818897637
20
-2.4597205905511812
11
4.409448818897638
21
-2.4596456692913384
0
LINE
8
BLACK
6
CONTINUOUS
10
4.409448818897638
20
-2.4596456692913384
11
4.4098254724409447
21
-2.4597205905511812
0
LINE
8
BLACK
6
CONTINUOUS
10
3.2686259448818897
20
-2.4616140944881888
11
3.268700708661417
21
-3.6801929133858269
0
LINE
8
BLACK
6
CONTINUOUS
10
3.268700708661417
20
-3.6801929133858269
11
4.4085390551181103
21
-3.6801181496062991
0
LINE
8
BLACK
6
CONTINUOUS
10
4.4085390551181103
20
-3.6801181496062991
11
4.4084645669291334
21
-3.4251968503937009
0
LINE
8
BLACK
6
CONTINUOUS
10
4.4084645669291334
20
-3.4251968503937009
11
4.4085394881889766
21
-3.4248201968503937
0
LINE
8
BLACK
6
CONTINUOUS
10
4.4085394881889766
20
-3.4248201968503937
11
4.4090721653543303
21
-3.4242875196850391
0
LINE
8
BLACK
6
CONTINUOUS
10
4.4090721653543303
20
-3.4242875196850391
11
5.0089330314960625
21
-3.4242126771653543
0
LINE
8
BLACK
6
CONTINUOUS
10
5.0089330314960625
20
-3.4242126771653543
11
5.0088583464566927
21
-2.7174449212598426
0
LINE
8
BLACK
6
CONTINUOUS
10
5.0088583464566927
20
-2.7174449212598426
11
4.409448818897638
21
-2.7175196850393699
0
LINE
8
BLACK
6
CONTINUOUS
10
4.409448818897638
20
-2.7175196850393699
11
4.4090721653543303
21
-2.7174447637795276
0
LINE
8
BLACK
6
CONTINUOUS
10
4.4090721653543303
20
-2.7174447637795276
11
4.4085394881889766
21
-2.7169120866141734
0
LINE
8
BLACK
6
CONTINUOUS
10
4.4085394881889766
20
-2.7169120866141734
11
4.4084648031496059
21
-2.4615393307086615
0
LINE
8
BLACK
6
CONTINUOUS
10
4.4084648031496059
20
-2.4615393307086615
11
3.2686259448818897
21
-2.4616140944881888
  0
ENDSEC
  0
EOF
